<?xml version="1.0" encoding="UTF-8"?>
<svg id="Layer_1" xmlns="http://www.w3.org/2000/svg" version="1.1" viewBox="0 0 137 137">
  <!-- Generator: Adobe Illustrator 29.1.0, SVG Export Plug-In . SVG Version: 2.1.0 Build 142)  -->
  <defs>
    <style>
      .st0 {
        fill: #faebd7;
      }
    </style>
  </defs>
  <path class="st0" d="M132.5,126h-13.9v-23.5c0-13.6-10.8-25-24-25.4-6.8-.2-13.1,2.3-17.9,7s-7.5,11-7.5,17.7h0c0,0-.4,23.9-.4,23.9h-6.8c-15.1,0-29.4-5.8-40.2-16.4-10.8-10.6-16.9-24.7-17.2-39.8-.3-15.3,5.5-29.8,16.3-40.9,11-11.2,26.2-17.6,41.9-17.6h28.6v13.9h-28.6c-12.1,0-23.5,4.8-32,13.4-8.2,8.4-12.6,19.3-12.4,30.9.4,21.1,16.3,38.7,36.6,42l.2-9.5c0-10.5,4.2-20.3,11.7-27.6,7.5-7.3,17.5-11.2,28-10.9,20.7.6,37.6,18.2,37.6,39.3v23.5Z"/>
</svg>