<?xml version="1.0" encoding="UTF-8"?>
<svg id="Layer_1" xmlns="http://www.w3.org/2000/svg" version="1.1" viewBox="0 0 1164.3 426.8">
  <!-- Generator: Adobe Illustrator 29.1.0, SVG Export Plug-In . SVG Version: 2.1.0 Build 142)  -->
  <defs>
    <style>
      .st0 {
        fill: #f8e9d5;
      }
    </style>
  </defs>
  <g>
    <path class="st0" d="M715,273.2c-27.7,0-50.2-22.5-50.2-50.2s22.5-50.2,50.2-50.2,50.2,22.5,50.2,50.2-22.5,50.2-50.2,50.2ZM715,194.2c-15.9,0-28.8,12.9-28.8,28.8s12.9,28.8,28.8,28.8,28.8-12.9,28.8-28.8-12.9-28.8-28.8-28.8Z"/>
    <path class="st0" d="M224.8,312.3l-21.5-37.2,3.8-14.6c16.4-9.6,26.6-27.4,26.6-46.4,0-29.7-24.1-53.8-53.8-53.8s-53.8,24.1-53.8,53.8,10.2,36.7,26.6,46.4l3.8,14.6-20.8,36-18.6-10.7,15.8-27.4c-17.7-14.2-28.4-35.9-28.4-58.8,0-41.5,33.7-75.2,75.2-75.2s75.2,33.8,75.2,75.2,0,2.8-.1,4.2,0,.8,0,1.2c0,.8-.1,1.5-.2,2.2-.2,2-.5,4-.9,5.9s-.7,3.6-1.2,5.4-.7,2.5-1.1,3.8-1.1,3.1-1.7,4.7-1.3,3.1-2,4.7-1.2,2.5-1.9,3.7-1.1,2-1.7,3.1-1.5,2.3-2.2,3.5-1.5,2.2-2.3,3.3-1.4,1.8-2.1,2.6-1.1,1.3-1.7,1.9-.7.8-1.1,1.2c-.6.7-1.3,1.4-1.9,2-1,1-2,1.9-3,2.8s-2.1,1.8-3.2,2.7l16.5,28.7-18.6,10.7Z"/>
    <rect class="st0" x="441" y="82.2" width="21.4" height="136.5"/>
    <rect class="st0" x="1038.3" y="82.2" width="21.4" height="136.5"/>
    <path class="st0" d="M333.5,313.8l-19-13.7,79.8-110.3c5.2-7.1,6.5-16,3.8-24.4-2.8-8.4-9.2-14.7-17.6-17.4-8-2.5-16.5-1.3-23.5,3.4-6.9,4.7-11.2,12.2-11.8,20.6l-23.4-1.6c1.1-15.6,9.1-29.6,22-38.3,12.9-8.8,28.8-11.1,43.7-6.4,15.7,5,27.6,16.7,32.8,32.4,5.2,15.6,2.6,32.2-7,45.5l-79.8,110.3Z"/>
    <path class="st0" d="M789.4,313.8l-19-13.7,79.8-110.3c5.2-7.1,6.5-16,3.8-24.4-2.8-8.4-9.2-14.7-17.6-17.4-8-2.5-16.5-1.3-23.5,3.4-6.9,4.7-11.2,12.2-11.8,20.6l-23.4-1.6c1.1-15.6,9.1-29.6,22-38.3,12.9-8.8,28.8-11.1,43.7-6.4,15.7,5,27.6,16.8,32.8,32.4,5.2,15.6,2.6,32.2-7,45.5l-79.8,110.3Z"/>
    <path class="st0" d="M924.3,313.8l-19-13.7,79.8-110.3c5.2-7.1,6.5-16,3.8-24.4-2.8-8.4-9.2-14.7-17.6-17.4-8-2.5-16.5-1.3-23.5,3.4-6.9,4.7-11.2,12.2-11.8,20.6l-23.4-1.6c1.1-15.6,9.1-29.6,22-38.3,12.9-8.8,28.8-11.1,43.7-6.4,15.7,5,27.6,16.7,32.8,32.4,5.2,15.6,2.6,32.2-7,45.5l-79.8,110.3Z"/>
    <g>
      <polygon class="st0" points="640.3 318.6 514.5 318.6 514.5 149.5 537.9 149.5 537.9 295.2 616.8 295.2 616.8 149.5 640.3 149.5 640.3 318.6"/>
      <rect class="st0" x="483.1" y="211" width="201.8" height="23.4"/>
    </g>
    <circle class="st0" cx="275.3" cy="286.4" r="20.6"/>
    <circle class="st0" cx="862" cy="286.4" r="20.6"/>
  </g>
  <g>
    <path class="st0" d="M433.7,374.9h1.5c.2,2.1,1.5,3.2,3.9,3.2s3-.8,3-2.3-1.5-2.1-3.7-2.6c-2.2-.5-4.1-1.1-4.1-3.5s1.7-3.3,4.2-3.3,4.4,1.6,4.7,3.9h-1.5c-.2-1.8-1.4-2.7-3.2-2.7s-2.8.7-2.8,2,1.4,1.8,3.3,2.2c2.4.5,4.6,1.1,4.6,3.9s-1.9,3.6-4.6,3.6-5.2-2-5.3-4.5Z"/>
    <path class="st0" d="M450.7,377.9h0c-.5.7-1.5,1.4-3,1.4s-3-.8-3-2.5,1.7-2.6,3.9-2.9c1.3-.2,2.2-.3,2.2-1.3s-.7-1.6-2-1.6-2.2.6-2.2,2h-1.4c0-1.7,1.2-3,3.6-3s3.3.7,3.3,2.9v4.3c0,.7.2,1.1,1,1h0v1c-.2,0-.4.1-.8.1-.9,0-1.4-.4-1.6-1.3ZM450.7,375.8v-1.5c-.5.3-1.3.5-2.1.7-1.4.3-2.5.5-2.5,1.8s.9,1.5,1.9,1.5c1.9,0,2.7-1.4,2.7-2.4Z"/>
    <path class="st0" d="M455.5,371.3h0c.6-.9,1.6-1.4,2.9-1.4,1.9,0,3,1,3,2.9v6.3h-1.4v-6.2c0-1.2-.8-1.8-2-1.8s-2.5,1-2.5,2.5v5.5h-1.4v-9h1.4v1.2Z"/>
    <path class="st0" d="M463.3,366.7h1.4v1.7h-1.4v-1.7ZM463.3,370.2h1.4v9h-1.4v-9Z"/>
    <path class="st0" d="M468,378h0v1.2h-1.4v-12.5h1.4v4.7h0c.7-.9,1.6-1.5,2.9-1.5,2.3,0,3.8,1.7,3.8,4.7s-1.4,4.7-3.9,4.7-2.1-.4-2.8-1.4ZM473.3,374.7c0-2-.8-3.6-2.5-3.6s-2.9,1.6-2.9,3.6.9,3.5,2.9,3.5,2.5-1.5,2.5-3.5Z"/>
    <path class="st0" d="M475.7,374.7c0-2.6,1.7-4.7,4.4-4.7s4.3,2.1,4.3,4.7-1.6,4.7-4.3,4.7-4.4-2.1-4.4-4.7ZM482.9,374.7c0-2-1-3.6-2.9-3.6s-2.9,1.6-2.9,3.6,1,3.6,2.9,3.6,2.9-1.6,2.9-3.6Z"/>
    <path class="st0" d="M487.2,371.3h0c.6-.9,1.6-1.4,2.9-1.4,1.9,0,3,1,3,2.9v6.3h-1.4v-6.2c0-1.2-.8-1.8-2-1.8s-2.5,1-2.5,2.5v5.5h-1.4v-9h1.4v1.2Z"/>
    <path class="st0" d="M500.5,377.9h0c-.5.7-1.5,1.4-3,1.4s-3-.8-3-2.5,1.7-2.6,3.9-2.9c1.3-.2,2.2-.3,2.2-1.3s-.7-1.6-2-1.6-2.2.6-2.2,2h-1.4c0-1.7,1.2-3,3.6-3s3.3.7,3.3,2.9v4.3c0,.7.2,1.1,1,1h0v1c-.2,0-.4.1-.8.1-.9,0-1.4-.4-1.6-1.3ZM500.5,375.8v-1.5c-.5.3-1.3.5-2.1.7-1.4.3-2.5.5-2.5,1.8s.9,1.5,1.9,1.5c1.9,0,2.7-1.4,2.7-2.4Z"/>
    <path class="st0" d="M505.3,371.3h0c.6-.9,1.6-1.4,2.9-1.4,1.9,0,3,1,3,2.9v6.3h-1.4v-6.2c0-1.2-.8-1.8-2-1.8s-2.5,1-2.5,2.5v5.5h-1.4v-9h1.4v1.2Z"/>
    <path class="st0" d="M513,366.7h1.4v1.7h-1.4v-1.7ZM513,370.2h1.4v9h-1.4v-9Z"/>
    <path class="st0" d="M519.4,373.3c0-3,1.2-5.5,2.5-7.3h1.2c-1.2,2-2,4.4-2,7.3s.7,5.5,2,7.9h-1.2c-1.4-2.2-2.5-4.6-2.5-7.9Z"/>
    <path class="st0" d="M527,368.6c0-1.3.6-1.8,1.5-1.9v.7c-.4.2-.7.5-.7,1.3h.7v1.7h-1.5v-1.7ZM529.6,368.6c0-1.3.6-1.8,1.5-1.9v.7c-.4.2-.7.5-.7,1.3h.7v1.7h-1.5v-1.7Z"/>
    <path class="st0" d="M533,366.7h1.6v5.3h6.7v-5.3h1.6v12.5h-1.6v-5.9h-6.7v5.9h-1.6v-12.5Z"/>
    <path class="st0" d="M544.4,374.7c0-2.6,1.7-4.7,4.3-4.7s4.1,2.1,4.1,5.1h-7c.1,1.8,1.1,3.2,2.9,3.2s2.2-.6,2.5-1.8h1.4c-.4,1.9-1.8,3-3.9,3s-4.4-2.1-4.4-4.7ZM545.9,373.9h5.4c0-1.8-1-2.9-2.6-2.9s-2.6,1.3-2.8,2.9Z"/>
    <path class="st0" d="M554.2,366.7h1.4v12.5h-1.4v-12.5Z"/>
    <path class="st0" d="M557.7,366.7h1.4v12.5h-1.4v-12.5Z"/>
    <path class="st0" d="M560.5,374.7c0-2.6,1.7-4.7,4.4-4.7s4.3,2.1,4.3,4.7-1.6,4.7-4.3,4.7-4.4-2.1-4.4-4.7ZM567.8,374.7c0-2-1-3.6-2.9-3.6s-2.9,1.6-2.9,3.6,1,3.6,2.9,3.6,2.9-1.6,2.9-3.6Z"/>
    <path class="st0" d="M571.2,368.4c0,1.3-.6,1.8-1.5,1.9v-.7c.4-.2.7-.5.7-1.3h-.7v-1.7h1.5v1.7ZM573.8,368.4c0,1.3-.6,1.8-1.5,1.9v-.7c.4-.2.7-.5.7-1.3h-.7v-1.7h1.5v1.7Z"/>
    <path class="st0" d="M577.7,370.2h1.3v-2.8h1.4v2.8h1.7v1.1h-1.7v5.9c0,.6.3.8.9.8s.6,0,.7-.1h0v1.2c-.3,0-.7.1-1.1.1-1.1,0-2-.5-2-1.7v-6.2h-1.3v-1.1Z"/>
    <path class="st0" d="M583,374.7c0-2.6,1.7-4.7,4.4-4.7s4.3,2.1,4.3,4.7-1.6,4.7-4.3,4.7-4.4-2.1-4.4-4.7ZM590.3,374.7c0-2-1-3.6-2.9-3.6s-2.9,1.6-2.9,3.6,1,3.6,2.9,3.6,2.9-1.6,2.9-3.6Z"/>
    <path class="st0" d="M601.4,377.9h0c-.5.7-1.5,1.4-3,1.4s-3-.8-3-2.5,1.7-2.6,3.9-2.9c1.3-.2,2.2-.3,2.2-1.3s-.7-1.6-2-1.6-2.2.6-2.2,2h-1.4c0-1.7,1.2-3,3.6-3s3.3.7,3.3,2.9v4.3c0,.7.2,1.1,1,1h0v1c-.2,0-.4.1-.8.1-.9,0-1.4-.4-1.6-1.3ZM601.5,375.8v-1.5c-.5.3-1.3.5-2.1.7-1.4.3-2.5.5-2.5,1.8s.9,1.5,1.9,1.5c1.9,0,2.7-1.4,2.7-2.4Z"/>
    <path class="st0" d="M607.3,379.7h1.3c.1,1,1.1,1.4,2.5,1.4s2.6-.8,2.6-2.3v-1.3h0c-.7.9-1.4,1.4-2.7,1.4-2.3,0-3.9-1.9-3.9-4.5s1.8-4.4,3.9-4.4,2.1.5,2.8,1.4h0v-1.1h1.4v8.5c0,2.4-1.6,3.5-4,3.5s-3.7-.9-3.8-2.5ZM613.8,374.3c0-2-.8-3.2-2.8-3.2s-2.5,1.3-2.5,3.3.9,3.3,2.6,3.3,2.7-1.4,2.7-3.3Z"/>
    <path class="st0" d="M618.4,371.7h0c.5-.9,1.5-1.6,2.7-1.6s.4,0,.6.1v1.4h0c-.2,0-.3,0-.6,0-1.4,0-2.6,1-2.6,2.7v5h-1.4v-9h1.4v1.5Z"/>
    <path class="st0" d="M622.1,374.7c0-2.6,1.7-4.7,4.4-4.7s4.3,2.1,4.3,4.7-1.6,4.7-4.3,4.7-4.4-2.1-4.4-4.7ZM629.4,374.7c0-2-1-3.6-2.9-3.6s-2.9,1.6-2.9,3.6,1,3.6,2.9,3.6,2.9-1.6,2.9-3.6Z"/>
    <path class="st0" d="M638,379.2v-1.2h0c-.6.9-1.4,1.4-2.7,1.4s-3-1.1-3-3v-6.2h1.4v6.2c0,1.2.7,1.8,2,1.8s2.4-1.1,2.4-2.5v-5.5h1.4v9h-1.4Z"/>
    <path class="st0" d="M641.3,370.2h1.4v1.3h0c.7-.9,1.6-1.5,2.9-1.5,2.3,0,3.9,1.7,3.9,4.7s-1.5,4.7-3.9,4.7-2.1-.4-2.8-1.3h0v4h-1.4v-11.9ZM648.1,374.7c0-2-.9-3.6-2.6-3.6s-2.9,1.6-2.9,3.6.8,3.5,2.9,3.5,2.6-1.5,2.6-3.5Z"/>
    <path class="st0" d="M653.2,374.7c0-2.6,1.7-4.7,4.4-4.7s4.3,2.1,4.3,4.7-1.6,4.7-4.3,4.7-4.4-2.1-4.4-4.7ZM660.4,374.7c0-2-1-3.6-2.9-3.6s-2.9,1.6-2.9,3.6,1,3.6,2.9,3.6,2.9-1.6,2.9-3.6Z"/>
    <path class="st0" d="M662.5,370.2h1.2v-1.4c0-1.6.9-2.1,2.4-2.1s.5,0,.7,0v1.2c-.2,0-.3,0-.5,0-.9,0-1.2.2-1.2,1v1.4h1.7v1.1h-1.7v7.9h-1.4v-7.9h-1.2v-1.1Z"/>
    <path class="st0" d="M671,370.2h1.4v1.3h0c.7-.9,1.6-1.5,2.9-1.5,2.3,0,3.9,1.7,3.9,4.7s-1.5,4.7-3.9,4.7-2.1-.4-2.8-1.3h0v4h-1.4v-11.9ZM677.8,374.7c0-2-.9-3.6-2.6-3.6s-2.9,1.6-2.9,3.6.8,3.5,2.9,3.5,2.6-1.5,2.6-3.5Z"/>
    <path class="st0" d="M680.1,374.7c0-2.6,1.7-4.7,4.3-4.7s4.1,2.1,4.1,5.1h-7c.1,1.8,1.1,3.2,2.9,3.2s2.2-.6,2.5-1.8h1.4c-.4,1.9-1.8,3-3.9,3s-4.4-2.1-4.4-4.7ZM681.6,373.9h5.4c0-1.8-1-2.9-2.6-2.9s-2.6,1.3-2.8,2.9Z"/>
    <path class="st0" d="M689.4,374.7c0-2.6,1.7-4.7,4.4-4.7s4.3,2.1,4.3,4.7-1.6,4.7-4.3,4.7-4.4-2.1-4.4-4.7ZM696.6,374.7c0-2-1-3.6-2.9-3.6s-2.9,1.6-2.9,3.6,1,3.6,2.9,3.6,2.9-1.6,2.9-3.6Z"/>
    <path class="st0" d="M699.5,370.2h1.4v1.3h0c.7-.9,1.6-1.5,2.9-1.5,2.3,0,3.9,1.7,3.9,4.7s-1.5,4.7-3.9,4.7-2.1-.4-2.8-1.3h0v4h-1.4v-11.9ZM706.3,374.7c0-2-.9-3.6-2.6-3.6s-2.9,1.6-2.9,3.6.8,3.5,2.9,3.5,2.6-1.5,2.6-3.5Z"/>
    <path class="st0" d="M709.2,366.7h1.4v12.5h-1.4v-12.5Z"/>
    <path class="st0" d="M712,374.7c0-2.6,1.7-4.7,4.3-4.7s4.1,2.1,4.1,5.1h-7c.1,1.8,1.1,3.2,2.9,3.2s2.2-.6,2.5-1.8h1.4c-.4,1.9-1.8,3-3.9,3s-4.4-2.1-4.4-4.7ZM713.5,373.9h5.4c0-1.8-1-2.9-2.6-2.9s-2.6,1.3-2.8,2.9Z"/>
    <path class="st0" d="M721.5,377.4h1.7v1.7h-1.7v-1.7Z"/>
    <path class="st0" d="M729.1,373.3c0-2.9-.9-5.3-2-7.3h1.2c1.3,1.8,2.5,4.3,2.5,7.3s-1.1,5.7-2.5,7.9h-1.2c1.3-2.4,2-4.8,2-7.9Z"/>
  </g>
</svg>