<?xml version="1.0" encoding="UTF-8"?>
<svg id="Layer_1" xmlns="http://www.w3.org/2000/svg" version="1.1" viewBox="0 0 1718.1 728.6">
  <!-- Generator: Adobe Illustrator 29.1.0, SVG Export Plug-In . SVG Version: 2.1.0 Build 142)  -->
  <defs>
    <style>
      .st0 {
        fill: #f8e9d5;
      }
    </style>
  </defs>
  <g>
    <g>
      <polygon class="st0" points="971.5 656 856.7 656 856.7 621.7 946.1 621.7 862.5 414.6 894.3 401.8 987.4 632.5 971.5 656"/>
      <polygon class="st0" points="888.3 656 789.6 656 789.6 581.6 823.9 581.6 823.9 621.7 888.3 621.7 888.3 656"/>
    </g>
    <g>
      <path class="st0" d="M1074.5,510"/>
      <polygon class="st0" points="1305.7 650.3 1121.6 650.3 1121.6 402.7 1155.9 402.7 1155.9 616 1271.4 616 1271.4 402.7 1305.7 402.7 1305.7 650.3"/>
    </g>
    <path class="st0" d="M671.3,672.3l-27.8-20.1,116.8-161.5c7.6-10.5,9.6-23.5,5.5-35.7-4-12.3-13.4-21.5-25.7-25.4-11.7-3.7-24.2-1.9-34.3,5-10.1,6.9-16.4,17.9-17.3,30.1l-34.2-2.3c1.6-22.8,13.3-43.3,32.2-56.1,18.9-12.9,42.2-16.3,64-9.4,22.9,7.3,40.4,24.5,47.9,47.4,7.5,22.8,3.8,47.1-10.3,66.6l-116.8,161.5Z"/>
    <rect class="st0" x="1008.5" y="522.4" width="34.3" height="199.9"/>
    <rect class="st0" x="1683.8" y="522.4" width="34.3" height="199.9"/>
    <polygon class="st0" points="1388.2 722.3 1353.9 722.3 1353.9 527.1 1075.7 527.1 1075.7 492.8 1371 492.8 1388.2 510 1388.2 722.3"/>
    <g>
      <path class="st0" d="M428.3,504c-55.9,0-101.3-45.4-101.3-101.3h34.3c0,36.9,30,67,67,67s67-30,67-67h34.3c0,55.9-45.4,101.3-101.3,101.3Z"/>
      <polygon class="st0" points="441.4 650 415.2 650 308.7 524 334.9 501.9 428.3 612.3 521.7 501.9 547.9 524 441.4 650"/>
      <circle class="st0" cx="569.1" cy="608.8" r="30.1"/>
      <circle class="st0" cx="264.2" cy="608.8" r="30.1"/>
      <path class="st0" d="M189.9,638.9h-34.3c0-63.9,24.7-122.7,66.7-160.6-22.3-31.9-54.6-50.6-88.7-50.6s-66.4,18.7-88.7,50.6c42,37.9,66.7,96.7,66.7,160.6h-34.3c0-59.1-24.4-112.6-65.2-143.2l-12.1-9,7.4-13.1c28.3-50.1,75.5-80.1,126.2-80.1s97.9,29.9,126.2,80.1l7.4,13.1-12.1,9c-40.8,30.6-65.2,84.1-65.2,143.2Z"/>
    </g>
    <path class="st0" d="M1612.1,638.9h-34.3c0-63.9,24.7-122.7,66.7-160.6-22.3-31.9-54.6-50.6-88.7-50.6s-66.4,18.7-88.7,50.6c42,37.9,66.7,96.7,66.7,160.6h-34.3c0-59.1-24.4-112.6-65.2-143.2l-12.1-9,7.4-13.1c28.3-50.1,75.5-80.1,126.2-80.1s97.8,29.9,126.2,80.1l7.4,13.1-12.1,9c-40.8,30.6-65.2,84.1-65.2,143.2Z"/>
  </g>
  <g>
    <path class="st0" d="M492.3,289.6l-17.2-25.4c20.5-13.9,32.3-34.4,32.3-56.2s-11.5-41.9-31.6-55.8l17.4-25.2c28.5,19.7,44.8,49.2,44.8,81s-16.7,61.9-45.8,81.6Z"/>
    <path class="st0" d="M348.7,289.6c-29.1-19.7-45.8-49.4-45.8-81.6s16.3-61.3,44.8-81l17.4,25.2c-20.1,13.9-31.6,34.2-31.6,55.8s11.8,42.3,32.3,56.2l-17.2,25.4Z"/>
    <path class="st0" d="M420.5,207.6c-44.5,0-80.6-36.2-80.6-80.6s36.2-80.6,80.6-80.6,80.6,36.2,80.6,80.6-36.2,80.6-80.6,80.6ZM420.5,77c-27.6,0-50,22.4-50,50s22.4,50,50,50,50-22.4,50-50-22.4-50-50-50Z"/>
    <path class="st0" d="M236.1,294.3l-30.7-53.2,5.5-20.9c23.4-13.8,38-39.2,38-66.3,0-42.4-34.5-76.9-76.9-76.9s-76.9,34.5-76.9,76.9,14.6,52.5,38,66.3l5.5,20.9-29.7,51.4-26.5-15.3,22.6-39.2c-25.3-20.2-40.5-51.3-40.5-84.1,0-59.3,48.2-107.6,107.6-107.6s107.6,48.2,107.6,107.6,0,4.2-.2,6.3-.3,4.3-.6,6.4-.3,2-.4,3-.3,2.2-.5,3.3c-.4,2.1-.8,4.1-1.3,6.2s-.6,2.5-1,3.8c-.7,2.5-1.5,5-2.4,7.4s-1.5,4-2.4,6-2.1,4.7-3.3,7c-3,5.8-6.5,11.3-10.5,16.5s-11.3,12.9-18,18.4l23.7,41-26.5,15.3Z"/>
    <path class="st0" d="M510.5,359.8c-29.9,0-54.3-24.4-54.3-54.3s24.4-54.3,54.3-54.3,54.3,24.4,54.3,54.3-24.4,54.3-54.3,54.3ZM510.5,281.8c-13,0-23.7,10.6-23.7,23.7s10.6,23.7,23.7,23.7,23.7-10.6,23.7-23.7-10.6-23.7-23.7-23.7Z"/>
    <rect class="st0" x="156.6" width="30.6" height="128.1"/>
    <rect class="st0" y="46.3" width="30.6" height="128.1"/>
  </g>
</svg>