<?xml version="1.0" encoding="UTF-8"?>
<svg id="Layer_1" xmlns="http://www.w3.org/2000/svg" version="1.1" viewBox="0 0 1853.9 1088.3">
  <!-- Generator: Adobe Illustrator 29.1.0, SVG Export Plug-In . SVG Version: 2.1.0 Build 142)  -->
  <defs>
    <style>
      .st0 {
        fill: #323232;
      }

      .st1 {
        fill: #f8e9d5;
      }
    </style>
  </defs>
  <rect class="st0" x=".5" width="1853.8" height="1088.3"/>
  <g>
    <g>
      <polygon class="st1" points="1039.4 703.8 924.6 703.8 924.6 669.5 1014 669.5 930.4 462.4 962.2 449.6 1055.3 680.3 1039.4 703.8"/>
      <polygon class="st1" points="956.2 703.8 857.5 703.8 857.5 629.4 891.8 629.4 891.8 669.5 956.2 669.5 956.2 703.8"/>
    </g>
    <g>
      <path class="st1" d="M1142.4,557.8"/>
      <polygon class="st1" points="1373.6 698.1 1189.5 698.1 1189.5 450.5 1223.8 450.5 1223.8 663.8 1339.3 663.8 1339.3 450.5 1373.6 450.5 1373.6 698.1"/>
    </g>
    <path class="st1" d="M739.2,720.1l-27.8-20.1,116.8-161.5c7.6-10.5,9.6-23.5,5.5-35.7-4-12.3-13.4-21.5-25.7-25.4-11.7-3.7-24.2-1.9-34.3,5s-16.4,17.9-17.3,30.1l-34.2-2.3c1.6-22.8,13.3-43.3,32.2-56.1,18.9-12.9,42.2-16.3,64-9.4,22.9,7.3,40.4,24.5,47.9,47.4,7.5,22.8,3.8,47.1-10.3,66.6l-116.8,161.5h0Z"/>
    <rect class="st1" x="1076.4" y="570.2" width="34.3" height="199.9"/>
    <rect class="st1" x="1751.7" y="570.2" width="34.3" height="199.9"/>
    <polygon class="st1" points="1456.1 770.1 1421.8 770.1 1421.8 574.9 1143.6 574.9 1143.6 540.6 1438.9 540.6 1456.1 557.8 1456.1 770.1"/>
    <g>
      <path class="st1" d="M496.2,551.8c-55.9,0-101.3-45.4-101.3-101.3h34.3c0,36.9,30,67,67,67s67-30,67-67h34.3c0,55.9-45.4,101.3-101.3,101.3Z"/>
      <polygon class="st1" points="509.3 697.8 483.1 697.8 376.6 571.8 402.8 549.7 496.2 660.1 589.6 549.7 615.8 571.8 509.3 697.8"/>
      <circle class="st1" cx="637" cy="656.6" r="30.1"/>
      <circle class="st1" cx="332.1" cy="656.6" r="30.1"/>
      <path class="st1" d="M257.8,686.7h-34.3c0-63.9,24.7-122.7,66.7-160.6-22.3-31.9-54.6-50.6-88.7-50.6s-66.4,18.7-88.7,50.6c42,37.9,66.7,96.7,66.7,160.6h-34.3c0-59.1-24.4-112.6-65.2-143.2l-12.1-9,7.4-13.1c28.3-50.1,75.5-80.1,126.2-80.1s97.9,29.9,126.2,80.1l7.4,13.1-12.1,9c-40.8,30.6-65.2,84.1-65.2,143.2h0Z"/>
    </g>
    <path class="st1" d="M1680,686.7h-34.3c0-63.9,24.7-122.7,66.7-160.6-22.3-31.9-54.6-50.6-88.7-50.6s-66.4,18.7-88.7,50.6c42,37.9,66.7,96.7,66.7,160.6h-34.3c0-59.1-24.4-112.6-65.2-143.2l-12.1-9,7.4-13.1c28.3-50.1,75.5-80.1,126.2-80.1s97.8,29.9,126.2,80.1l7.4,13.1-12.1,9c-40.8,30.6-65.2,84.1-65.2,143.2Z"/>
  </g>
  <g>
    <path class="st1" d="M560.2,337.4l-17.2-25.4c20.5-13.9,32.3-34.4,32.3-56.2s-11.5-41.9-31.6-55.8l17.4-25.2c28.5,19.7,44.8,49.2,44.8,81s-16.7,61.9-45.8,81.6h.1Z"/>
    <path class="st1" d="M416.6,337.4c-29.1-19.7-45.8-49.4-45.8-81.6s16.3-61.3,44.8-81l17.4,25.2c-20.1,13.9-31.6,34.2-31.6,55.8s11.8,42.3,32.3,56.2l-17.2,25.4h.1Z"/>
    <path class="st1" d="M488.4,255.4c-44.5,0-80.6-36.2-80.6-80.6s36.2-80.6,80.6-80.6,80.6,36.2,80.6,80.6-36.2,80.6-80.6,80.6ZM488.4,124.8c-27.6,0-50,22.4-50,50s22.4,50,50,50,50-22.4,50-50-22.4-50-50-50Z"/>
    <path class="st1" d="M304,342.1l-30.7-53.2,5.5-20.9c23.4-13.8,38-39.2,38-66.3,0-42.4-34.5-76.9-76.9-76.9s-76.9,34.5-76.9,76.9,14.6,52.5,38,66.3l5.5,20.9-29.7,51.4-26.5-15.3,22.6-39.2c-25.3-20.2-40.5-51.3-40.5-84.1,0-59.3,48.2-107.6,107.6-107.6s107.6,48.2,107.6,107.6,0,4.2-.2,6.3-.3,4.3-.6,6.4-.3,2-.4,3-.3,2.2-.5,3.3c-.4,2.1-.8,4.1-1.3,6.2s-.6,2.5-1,3.8c-.7,2.5-1.5,5-2.4,7.4s-1.5,4-2.4,6-2.1,4.7-3.3,7c-3,5.8-6.5,11.3-10.5,16.5s-11.3,12.9-18,18.4l23.7,41-26.5,15.3-.2-.2Z"/>
    <path class="st1" d="M578.4,407.6c-29.9,0-54.3-24.4-54.3-54.3s24.4-54.3,54.3-54.3,54.3,24.4,54.3,54.3-24.4,54.3-54.3,54.3ZM578.4,329.6c-13,0-23.7,10.6-23.7,23.7s10.6,23.7,23.7,23.7,23.7-10.6,23.7-23.7-10.6-23.7-23.7-23.7Z"/>
    <rect class="st1" x="224.5" y="47.8" width="30.6" height="128.1"/>
    <rect class="st1" x="67.9" y="94.1" width="30.6" height="128.1"/>
  </g>
  <g>
    <path class="st1" d="M748.9,340.5h23v4.9h-8.6v23.8h-5.8v-23.8h-8.6v-4.9Z"/>
    <path class="st1" d="M779.8,351.3h.1c1.5-2.2,3.2-3.2,6-3.2,4.2,0,7.1,3.2,7.1,7.7v13.4h-5.4v-12.6c0-2.2-1.3-3.8-3.6-3.8s-4.2,1.9-4.2,4.7v11.7h-5.4v-28.6h5.4v10.8Z"/>
    <path class="st1" d="M795.4,358.8c0-6.1,4.1-10.8,10.1-10.8s10.1,5,10.1,12.4h-14.9c.4,3.2,2.2,5.1,5.2,5.1s3.4-1,4-2.5h5.4c-.8,3.6-4,6.7-9.3,6.7s-10.7-4.8-10.7-10.9ZM800.8,356.6h9.1c-.2-2.6-1.9-4.4-4.4-4.4s-4.3,1.7-4.8,4.4Z"/>
    <path class="st1" d="M825.3,340.5h5.9l9.5,16c.9,1.6,2,4,2,4h0s-.2-3-.2-5v-15h5.7v28.6h-5.6l-9.8-15.8c-.9-1.5-2-4-2-4h0s.2,3,.2,5v14.8h-5.7v-28.6Z"/>
    <path class="st1" d="M851.4,358.9c0-6.4,3.6-10.9,8.8-10.9s4.7,1.3,5.8,3h.1v-10.6h5.4v28.6h-5.2v-2.7h0c-1.2,2-3.2,3.3-6.1,3.3-5.2,0-8.7-4.2-8.7-10.9ZM866.2,359c0-3.9-1.3-6.6-4.8-6.6s-4.5,2.6-4.5,6.4,1.6,6.3,4.4,6.3,4.9-2.4,4.9-6.2Z"/>
    <path class="st1" d="M874,358.8c0-6.1,4.1-10.8,10.1-10.8s10.1,5,10.1,12.4h-14.9c.4,3.2,2.2,5.1,5.2,5.1s3.4-1,4-2.5h5.4c-.8,3.6-4,6.7-9.3,6.7s-10.7-4.8-10.7-10.9ZM879.5,356.6h9.1c-.2-2.6-1.9-4.4-4.4-4.4s-4.3,1.7-4.8,4.4Z"/>
    <path class="st1" d="M902.2,366.6h0v2.6h-5.2v-28.6h5.4v10.6h.1c1.1-1.7,2.9-3,5.7-3,5.2,0,8.9,4.4,8.9,10.9s-3.5,10.9-8.7,10.9-4.9-1.2-6.1-3.2ZM911.5,358.9c0-3.8-1.5-6.4-4.6-6.4s-4.7,2.8-4.7,6.6,1.9,6.2,4.9,6.2,4.4-2.3,4.4-6.3Z"/>
    <path class="st1" d="M918.5,358.8c0-6.1,4.1-10.8,10.1-10.8s10.1,5,10.1,12.4h-14.9c.4,3.2,2.2,5.1,5.2,5.1s3.4-1,4-2.5h5.4c-.8,3.6-4,6.7-9.3,6.7s-10.7-4.8-10.7-10.9ZM924,356.6h9.1c-.2-2.6-1.9-4.4-4.4-4.4s-4.3,1.7-4.8,4.4Z"/>
    <path class="st1" d="M941.4,340.5h5.4v28.6h-5.4v-28.6Z"/>
    <path class="st1" d="M949.4,358.8c0-6.1,4.1-10.8,10.1-10.8s10.1,5,10.1,12.4h-14.9c.4,3.2,2.2,5.1,5.2,5.1s3.4-1,4-2.5h5.4c-.8,3.6-4,6.7-9.3,6.7s-10.7-4.8-10.7-10.9ZM954.9,356.6h9.1c-.2-2.6-1.9-4.4-4.4-4.4s-4.3,1.7-4.8,4.4Z"/>
    <path class="st1" d="M978.2,354.9c0-8.5,5.3-15,13.7-15s11.2,4.2,11.8,9.7h-5.8c-.5-2.9-2.7-4.8-6-4.8-5.3,0-7.8,4.4-7.8,10.1s3,10.1,7.9,10.1,5.8-2,6.2-5h5.7c-.2,2.5-1.2,5-3.2,6.8-2,1.8-4.7,3-8.7,3-8.1,0-13.8-6.2-13.8-14.8Z"/>
    <path class="st1" d="M1019.3,369.1v-2.4h-.1c-1.4,1.9-3,3-5.9,3-4.6,0-7.1-2.9-7.1-7.4v-13.7h5.4v12.8c0,2.4,1.1,3.7,3.4,3.7s4.1-1.9,4.1-4.6v-11.9h5.4v20.5h-5.2Z"/>
    <path class="st1" d="M1028.2,340.5h5.4v28.6h-5.4v-28.6Z"/>
    <path class="st1" d="M1036,348.6h2.8v-6.4h5.3v6.4h3.5v3.6h-3.5v10.9c0,1.5.8,2,2,2s1.6,0,1.6,0v4s-1.2,0-3.4,0-5.6-1-5.6-4.9v-12.1h-2.8v-3.6Z"/>
    <path class="st1" d="M1063.5,369.1v-2.4h-.1c-1.4,1.9-3,3-5.9,3-4.6,0-7.1-2.9-7.1-7.4v-13.7h5.4v12.8c0,2.4,1.1,3.7,3.4,3.7s4.1-1.9,4.1-4.6v-11.9h5.4v20.5h-5.2Z"/>
    <path class="st1" d="M1077.5,351.9h.1c1.2-2.3,2.6-3.5,5-3.5s1,0,1.3.2v4.8h-.1c-3.6-.4-6.1,1.5-6.1,5.8v10h-5.4v-20.5h5.2v3.3Z"/>
    <path class="st1" d="M1084.7,358.8c0-6.1,4.1-10.8,10.1-10.8s10.1,5,10.1,12.4h-14.9c.4,3.2,2.2,5.1,5.2,5.1s3.4-1,4-2.5h5.4c-.8,3.6-4,6.7-9.3,6.7s-10.7-4.8-10.7-10.9ZM1090.2,356.6h9.1c-.2-2.6-1.9-4.4-4.4-4.4s-4.3,1.7-4.8,4.4Z"/>
  </g>
  <g>
    <path class="st1" d="M67.9,845.1h34.5v139.3h-34.5v-139.3Z"/>
    <path class="st1" d="M114.9,940.6h34.7c1.6,14,10.7,19.9,27.3,19.9s22.4-4.1,22.4-14.6-11.3-13.4-30.4-18.1c-24.2-5.6-49.7-13.1-49.7-42.3s24.2-42.9,55.3-42.9,53.6,13.6,54.9,42.9h-33.7c-1.4-10.7-9.5-16.8-22.4-16.8s-20.1,5.3-20.1,13.1,10.7,12.1,31.6,16.8c25.9,6,49.3,14,49.3,43.8s-24.9,45.4-57.1,45.4-61.4-16.4-62.1-47.1Z"/>
    <path class="st1" d="M248.3,845.1h34.5v139.3h-34.5v-139.3Z"/>
    <path class="st1" d="M301.9,845.1h34.5v50.5l47.9-50.5h40.9l-53.4,55.9,56.5,83.4h-40.1l-40.1-60.2-11.7,12.3v47.9h-34.5v-139.3Z"/>
    <path class="st1" d="M419.3,915.1c0-41.7,26.7-72.7,68.8-72.7s69,31,69,72.7-26.7,72.7-69,72.7-68.8-31-68.8-72.7ZM522,915.1c0-25.3-11.1-44.8-33.7-44.8s-33.9,19.5-33.9,44.8,11.5,44.6,33.9,44.6,33.7-19.3,33.7-44.6Z"/>
    <path class="st1" d="M594.1,940.6h34.7c1.6,14,10.7,19.9,27.3,19.9s22.4-4.1,22.4-14.6-11.3-13.4-30.4-18.1c-24.2-5.6-49.7-13.1-49.7-42.3s24.2-42.9,55.3-42.9,53.6,13.6,54.9,42.9h-33.7c-1.4-10.7-9.5-16.8-22.4-16.8s-20.1,5.3-20.1,13.1,10.7,12.1,31.6,16.8c25.9,6,49.3,14,49.3,43.8s-24.9,45.4-57.1,45.4-61.4-16.4-62.1-47.1Z"/>
    <path class="st1" d="M721.8,934.7c0-30,20.6-52.8,52.2-52.8s44.4,15.8,47.3,38.2h-30.6c-1.9-9-7.4-14.8-16.4-14.8-13.6,0-20.5,11.3-20.5,29.4s6.8,29,20.5,29,16-5.8,17.3-17.1h30.4c-.8,23-19.1,40.9-47.3,40.9s-53-22.8-53-52.8Z"/>
    <path class="st1" d="M832.3,884.7h30.4v15.6h.6c7-11.9,15.2-17.1,27.3-17.1s4.9.2,6.2.8v27.3h-.8c-19.5-2.7-31.9,6.8-31.9,28.4v44.8h-31.8v-99.7Z"/>
    <path class="st1" d="M906.9,845.1h31.8v25.7h-31.8v-25.7ZM906.9,884.7h31.8v99.7h-31.8v-99.7Z"/>
    <path class="st1" d="M953.8,884.7h30.4v12.1h.6c6.8-9,16.6-15,30.2-15,26.5,0,42.7,22.8,42.7,52.8s-17.3,53-43.4,53-22-5.1-28.2-13.4h-.4v43.2h-31.8v-132.7ZM1025.5,935.7c0-17.1-6.4-28.4-20.1-28.4s-20.8,12.3-20.8,28.4,7.8,27.3,21.4,27.3,19.5-10.3,19.5-27.3Z"/>
    <path class="st1" d="M1073.3,958.1v-53.6h-13.2v-19.9h13.2v-31.6h31v31.6h18.1v19.9h-18.1v46.8c0,7.8,4.3,9.7,11.1,9.7s5.8-.2,7-.2v23.2c-2.7.8-8.8,1.6-17.3,1.6-18.5,0-31.8-6-31.8-27.5Z"/>
  </g>
</svg>