<?xml version="1.0" encoding="UTF-8"?>
<svg id="Layer_1" xmlns="http://www.w3.org/2000/svg" version="1.1" viewBox="0 0 1920 766.01">
  <!-- Generator: Adobe Illustrator 29.1.0, SVG Export Plug-In . SVG Version: 2.1.0 Build 142)  -->
  <defs>
    <style>
      .st0 {
        fill: #f8e9d5;
      }
    </style>
  </defs>
  <g>
    <path class="st0" d="M175.32,162.02c-34.86,0-63.22-28.36-63.22-63.22h21.42c0,23.05,18.75,41.8,41.8,41.8s41.8-18.75,41.8-41.8h21.42c0,34.86-28.36,63.22-63.22,63.22Z"/>
    <polygon class="st0" points="183.49 253.11 167.15 253.11 100.66 174.53 117.01 160.69 175.32 229.62 233.63 160.69 249.98 174.53 183.49 253.11"/>
    <circle class="st0" cx="263.16" cy="227.42" r="18.78"/>
    <circle class="st0" cx="619.67" cy="227.42" r="18.78"/>
    <path class="st0" d="M356.56,162.02c-34.86,0-63.22-28.36-63.22-63.22h21.42c0,23.05,18.75,41.8,41.8,41.8s41.8-18.75,41.8-41.8h21.42c0,34.86-28.36,63.22-63.22,63.22Z"/>
    <polygon class="st0" points="364.74 253.11 348.39 253.11 281.9 174.53 298.25 160.69 356.56 229.62 414.88 160.69 431.22 174.53 364.74 253.11"/>
    <rect class="st0" x="408.89" y="173.53" width="21.42" height="124.73"/>
    <path class="st0" d="M573.34,246.2h-21.42c0-39.86,15.4-76.57,41.61-100.23-13.92-19.91-34.11-31.56-55.35-31.56s-41.43,11.64-55.35,31.56c26.22,23.66,41.61,60.37,41.61,100.23h-21.42c0-36.88-15.21-70.3-40.68-89.39l-7.53-5.64,4.63-8.19c17.68-31.29,47.11-49.98,78.74-49.98s61.06,18.68,78.74,49.98l4.63,8.19-7.53,5.64c-25.47,19.09-40.68,52.51-40.68,89.39Z"/>
  </g>
  <g>
    <polygon class="st0" points="1398.46 604.31 1210.8 604.31 1210.8 351.97 1245.77 351.97 1245.77 569.34 1363.49 569.34 1363.49 351.97 1398.46 351.97 1398.46 604.31"/>
    <polygon class="st0" points="991.23 595.01 956.25 595.01 956.25 359.97 973.74 342.48 1141.83 342.48 1141.83 377.45 991.23 377.45 991.23 595.01"/>
    <path class="st0" d="M784.76,626.73l-28.33-20.5,119.06-164.56c7.71-10.65,9.76-23.92,5.64-36.41s-13.68-21.92-26.21-25.89c-11.91-3.77-24.67-1.9-35,5.13-10.33,7.04-16.74,18.22-17.59,30.69l-34.89-2.38c1.59-23.24,13.54-44.09,32.79-57.21,19.25-13.11,43.03-16.6,65.24-9.57,23.37,7.4,41.18,24.99,48.87,48.27,7.69,23.28,3.85,48.02-10.52,67.88l-119.06,164.56Z"/>
    <path class="st0" d="M537.16,455.21c-56.92,0-103.24-46.31-103.24-103.24h34.97c0,37.64,30.62,68.26,68.26,68.26s68.26-30.62,68.26-68.26h34.97c0,56.92-46.31,103.24-103.24,103.24Z"/>
    <polygon class="st0" points="550.51 603.96 523.81 603.96 415.23 475.63 441.93 453.04 537.16 565.6 632.39 453.04 659.09 475.63 550.51 603.96"/>
    <circle class="st0" cx="680.62" cy="562" r="30.67"/>
    <rect class="st0" x="1052.25" y="473.99" width="34.97" height="203.69"/>
    <rect class="st0" x="1783.8" y="473.99" width="34.97" height="203.69"/>
    <polygon class="st0" points="1482.54 677.68 1447.57 677.68 1447.57 478.77 1164.06 478.77 1164.06 443.8 1465.06 443.8 1482.54 461.28 1482.54 677.68"/>
    <circle class="st0" cx="369.88" cy="562" r="30.67"/>
    <path class="st0" d="M294.22,592.67h-34.97c0-65.09,25.14-125.04,67.95-163.68-22.74-32.52-55.7-51.53-90.39-51.53s-67.65,19.01-90.39,51.53c42.81,38.65,67.95,98.59,67.95,163.68h-34.97c0-60.23-24.84-114.8-66.44-145.98l-12.3-9.22,7.56-13.38c28.87-51.1,76.94-81.61,128.59-81.61s99.72,30.51,128.59,81.61l7.56,13.38-12.3,9.22c-41.6,31.18-66.44,85.75-66.44,145.98Z"/>
    <path class="st0" d="M1710.76,592.67h-34.97c0-65.09,25.14-125.04,67.95-163.68-22.74-32.52-55.7-51.53-90.39-51.53s-67.65,19.01-90.39,51.53c42.81,38.65,67.95,98.59,67.95,163.68h-34.97c0-60.23-24.84-114.8-66.44-145.98l-12.3-9.22,7.56-13.38c28.87-51.1,76.94-81.61,128.59-81.61s99.72,30.51,128.59,81.61l7.56,13.38-12.3,9.22c-41.6,31.18-66.44,85.75-66.44,145.98Z"/>
  </g>
</svg>