<?xml version="1.0" encoding="UTF-8"?>
<svg id="Layer_1" xmlns="http://www.w3.org/2000/svg" version="1.1" viewBox="0 0 1719.83 701.17">
  <!-- Generator: Adobe Illustrator 29.1.0, SVG Export Plug-In . SVG Version: 2.1.0 Build 142)  -->
  <defs>
    <style>
      .st0 {
        fill: #f8e9d5;
      }
    </style>
  </defs>
  <g>
    <path class="st0" d="M75.96,139.02c-34.86,0-63.22-28.36-63.22-63.22h21.42c0,23.05,18.75,41.8,41.8,41.8s41.8-18.75,41.8-41.8h21.42c0,34.86-28.36,63.22-63.22,63.22Z"/>
    <polygon class="st0" points="84.14 230.11 67.79 230.11 1.3 151.53 17.65 137.69 75.96 206.62 134.28 137.69 150.63 151.53 84.14 230.11"/>
    <circle class="st0" cx="163.81" cy="204.41" r="18.78"/>
    <circle class="st0" cx="520.31" cy="204.41" r="18.78"/>
    <path class="st0" d="M257.21,139.02c-34.86,0-63.22-28.36-63.22-63.22h21.42c0,23.05,18.75,41.8,41.8,41.8s41.8-18.75,41.8-41.8h21.42c0,34.86-28.36,63.22-63.22,63.22Z"/>
    <polygon class="st0" points="265.38 230.11 249.03 230.11 182.54 151.53 198.89 137.69 257.21 206.62 315.52 137.69 331.87 151.53 265.38 230.11"/>
    <rect class="st0" x="309.54" y="150.52" width="21.42" height="124.73"/>
    <path class="st0" d="M473.98,223.2h-21.42c0-39.86,15.4-76.57,41.61-100.23-13.92-19.91-34.11-31.56-55.35-31.56s-41.43,11.64-55.35,31.56c26.22,23.66,41.61,60.37,41.61,100.23h-21.42c0-36.88-15.21-70.3-40.68-89.39l-7.53-5.64,4.63-8.19c17.68-31.29,47.11-49.98,78.74-49.98s61.06,18.68,78.74,49.98l4.63,8.19-7.53,5.64c-25.47,19.09-40.68,52.51-40.68,89.39Z"/>
  </g>
  <g>
    <g>
      <path class="st0" d="M1063.48,438.28"/>
      <polygon class="st0" points="1299.11 581.31 1111.44 581.31 1111.44 328.97 1146.42 328.97 1146.42 546.34 1264.14 546.34 1264.14 328.97 1299.11 328.97 1299.11 581.31"/>
    </g>
    <polygon class="st0" points="891.87 572 856.9 572 856.9 336.97 874.39 319.48 1042.48 319.48 1042.48 354.45 891.87 354.45 891.87 572"/>
    <path class="st0" d="M685.41,603.73l-28.33-20.5,119.06-164.56c7.71-10.65,9.76-23.92,5.64-36.41s-13.68-21.92-26.21-25.89c-11.91-3.77-24.67-1.9-35,5.13-10.33,7.04-16.74,18.22-17.59,30.69l-34.89-2.38c1.59-23.24,13.54-44.09,32.79-57.21,19.25-13.11,43.03-16.6,65.24-9.57,23.37,7.4,41.18,24.99,48.87,48.27,7.69,23.28,3.85,48.02-10.52,67.88l-119.06,164.56Z"/>
    <path class="st0" d="M437.81,432.21c-56.92,0-103.24-46.31-103.24-103.24h34.97c0,37.64,30.62,68.26,68.26,68.26s68.26-30.62,68.26-68.26h34.97c0,56.92-46.31,103.24-103.24,103.24Z"/>
    <polygon class="st0" points="451.16 580.96 424.46 580.96 315.88 452.63 342.58 430.04 437.81 542.59 533.04 430.04 559.74 452.63 451.16 580.96"/>
    <circle class="st0" cx="581.26" cy="539" r="30.67"/>
    <rect class="st0" x="952.9" y="450.99" width="34.97" height="203.69"/>
    <rect class="st0" x="1684.44" y="450.99" width="34.97" height="203.69"/>
    <polygon class="st0" points="1383.19 654.68 1348.21 654.68 1348.21 455.77 1064.7 455.77 1064.7 420.79 1365.7 420.79 1383.19 438.28 1383.19 654.68"/>
    <circle class="st0" cx="270.52" cy="539" r="30.67"/>
    <path class="st0" d="M194.86,569.67h-34.97c0-65.09,25.14-125.04,67.95-163.68-22.74-32.52-55.7-51.53-90.39-51.53s-67.65,19.01-90.39,51.53c42.81,38.65,67.95,98.59,67.95,163.68h-34.97c0-60.23-24.84-114.8-66.44-145.98l-12.3-9.22,7.56-13.38c28.87-51.1,76.94-81.61,128.59-81.61s99.72,30.51,128.59,81.61l7.56,13.38-12.3,9.22c-41.6,31.18-66.44,85.75-66.44,145.98Z"/>
    <path class="st0" d="M1611.4,569.67h-34.97c0-65.09,25.14-125.04,67.95-163.68-22.74-32.52-55.7-51.53-90.39-51.53s-67.65,19.01-90.39,51.53c42.81,38.65,67.95,98.59,67.95,163.68h-34.97c0-60.23-24.84-114.8-66.44-145.98l-12.3-9.22,7.56-13.38c28.87-51.1,76.94-81.61,128.59-81.61s99.72,30.51,128.59,81.61l7.56,13.38-12.3,9.22c-41.6,31.18-66.44,85.75-66.44,145.98Z"/>
  </g>
</svg>