<?xml version="1.0" encoding="UTF-8"?>
<svg id="Layer_1" xmlns="http://www.w3.org/2000/svg" version="1.1" viewBox="0 0 137 137">
  <!-- Generator: Adobe Illustrator 29.1.0, SVG Export Plug-In . SVG Version: 2.1.0 Build 142)  -->
  <defs>
    <style>
      .st0 {
        fill: #faebd7;
      }
    </style>
  </defs>
  <path class="st0" d="M102.7,126.4l-8.2-12.1c9.8-6.6,15.4-16.4,15.4-26.8s-5.5-19.9-15-26.6l8.3-12c13.6,9.4,21.3,23.4,21.3,38.6s-7.9,29.5-21.8,38.8h0Z"/>
  <path class="st0" d="M34.3,126.4c-13.8-9.4-21.8-23.5-21.8-38.8s7.8-29.2,21.3-38.6l8.3,12c-9.6,6.6-15,16.3-15,26.6s5.6,20.2,15.4,26.8l-8.2,12.1h0Z"/>
  <path class="st0" d="M68.5,87.3c-21.2,0-38.4-17.2-38.4-38.4S47.3,10.5,68.5,10.5s38.4,17.2,38.4,38.4-17.2,38.4-38.4,38.4ZM68.5,25.1c-13.1,0-23.8,10.7-23.8,23.8s10.7,23.8,23.8,23.8,23.8-10.7,23.8-23.8-10.7-23.8-23.8-23.8Z"/>
</svg>