<?xml version="1.0" encoding="UTF-8"?>
<svg id="Layer_1" xmlns="http://www.w3.org/2000/svg" version="1.1" viewBox="0 0 960 616.4">
  <!-- Generator: Adobe Illustrator 29.1.0, SVG Export Plug-In . SVG Version: 2.1.0 Build 142)  -->
  <defs>
    <style>
      .st0 {
        fill: #f8e9d5;
      }
    </style>
  </defs>
  <g>
    <path class="st0" d="M391,239.6c-70.1,0-127.1-57-127.1-127.1h43.1c0,46.4,37.7,84.1,84.1,84.1s84.1-37.7,84.1-84.1h43.1c0,70.1-57,127.1-127.1,127.1Z"/>
    <polygon class="st0" points="407.4 422.8 374.5 422.8 240.8 264.7 273.7 236.9 391 375.5 508.2 236.9 541.1 264.7 407.4 422.8"/>
    <circle class="st0" cx="393.7" cy="103" r="37.8"/>
    <path class="st0" d="M726.2,239.6c-70.1,0-127.1-57-127.1-127.1h43.1c0,46.4,37.7,84.1,84.1,84.1s84.1-37.7,84.1-84.1h43.1c0,70.1-57,127.1-127.1,127.1Z"/>
    <polygon class="st0" points="742.6 422.8 709.7 422.8 576 264.7 608.9 236.9 726.2 375.5 843.5 236.9 876.3 264.7 742.6 422.8"/>
    <circle class="st0" cx="725.3" cy="103" r="37.8"/>
    <rect class="st0" x="83.7" y="383.4" width="196.8" height="39.4"/>
  </g>
  <g>
    <path class="st0" d="M366,547v-2.5h0c-1.3,1.8-2.8,2.9-5.5,2.9s-6.1-2.2-6.1-6v-12.6h2.8v12.5c0,2.4,1.5,3.7,4.1,3.7s4.7-2.2,4.7-5.1v-11.2h2.8v18.2h-2.8Z"/>
    <path class="st0" d="M372.7,528.9h2.8v2.6h0c1.1-1.8,3.1-3,5.3-3s4,1.1,4.7,3.2h0c1.2-2.1,3.3-3.2,5.6-3.2,3.2,0,5.5,2.1,5.5,5.8v12.8h-2.8v-12.6c0-2.2-1.5-3.6-3.3-3.6s-4.5,2-4.5,4.9v11.3h-2.8v-12.6c0-2.2-1.3-3.6-3.1-3.6s-4.7,2-4.7,4.9v11.3h-2.8v-18.2Z"/>
    <path class="st0" d="M411.7,544.5h0c-1.1,1.4-3,2.9-6,2.9s-6.2-1.6-6.2-5.1,3.4-5.2,7.9-5.9c2.6-.4,4.4-.6,4.4-2.6s-1.5-3.2-4.1-3.2-4.4,1.3-4.5,4h-2.7c.1-3.5,2.4-6.1,7.2-6.1s6.7,1.4,6.7,5.8v8.6c0,1.5.4,2.3,1.9,1.9h.1v2.1c-.4.1-.8.3-1.5.3-1.9,0-2.8-.8-3.1-2.7ZM411.8,540.3v-3.1c-.9.6-2.6,1.1-4.1,1.3-2.8.5-5.1,1-5.1,3.7s1.9,3,3.8,3c3.8,0,5.5-2.8,5.5-4.9Z"/>
    <path class="st0" d="M418.5,528.9h2.8v2.6h0c1.1-1.8,3.1-3,5.3-3s4,1.1,4.7,3.2h0c1.2-2.1,3.3-3.2,5.6-3.2,3.2,0,5.5,2.1,5.5,5.8v12.8h-2.8v-12.6c0-2.2-1.5-3.6-3.3-3.6s-4.5,2-4.5,4.9v11.3h-2.8v-12.6c0-2.2-1.3-3.6-3.1-3.6s-4.7,2-4.7,4.9v11.3h-2.8v-18.2Z"/>
    <path class="st0" d="M457.5,544.5h0c-1.1,1.4-3,2.9-6,2.9s-6.2-1.6-6.2-5.1,3.4-5.2,7.9-5.9c2.6-.4,4.4-.6,4.4-2.6s-1.5-3.2-4.1-3.2-4.4,1.3-4.5,4h-2.7c.1-3.5,2.4-6.1,7.2-6.1s6.7,1.4,6.7,5.8v8.6c0,1.5.4,2.3,1.9,1.9h.1v2.1c-.4.1-.8.3-1.5.3-1.9,0-2.8-.8-3.1-2.7ZM457.6,540.3v-3.1c-.9.6-2.6,1.1-4.1,1.3-2.8.5-5.1,1-5.1,3.7s1.9,3,3.8,3c3.8,0,5.5-2.8,5.5-4.9Z"/>
    <path class="st0" d="M470.5,535.3c0-6.1,2.5-11,5.1-14.7h2.3c-2.3,3.9-4.1,9-4.1,14.7s1.5,11.1,4.1,15.9h-2.3c-2.9-4.4-5.1-9.3-5.1-15.9Z"/>
    <path class="st0" d="M486.2,528.9h2.8v2.6h0c1.1-1.8,3.1-3,5.3-3s4,1.1,4.7,3.2h0c1.2-2.1,3.3-3.2,5.6-3.2,3.2,0,5.5,2.1,5.5,5.8v12.8h-2.8v-12.6c0-2.2-1.5-3.6-3.3-3.6s-4.5,2-4.5,4.9v11.3h-2.8v-12.6c0-2.2-1.3-3.6-3.1-3.6s-4.7,2-4.7,4.9v11.3h-2.8v-18.2Z"/>
    <path class="st0" d="M513,538c0-5.3,3.4-9.6,8.8-9.6s8.8,4.3,8.8,9.6-3.3,9.6-8.8,9.6-8.8-4.3-8.8-9.6ZM527.7,538c0-4-2-7.2-5.8-7.2s-5.9,3.2-5.9,7.2,2,7.2,5.9,7.2,5.8-3.2,5.8-7.2Z"/>
    <path class="st0" d="M531.9,528.9h2.6v-5.7h2.8v5.7h3.5v2.3h-3.5v11.8c0,1.3.7,1.7,1.8,1.7s1.2-.1,1.5-.2h.1v2.5c-.7.1-1.4.2-2.3.2-2.3,0-4-.9-4-3.5v-12.4h-2.6v-2.3Z"/>
    <path class="st0" d="M546.7,531.3h0c1.3-1.7,3.1-2.8,5.8-2.8,3.8,0,6.1,2.1,6.1,5.8v12.8h-2.8v-12.5c0-2.4-1.5-3.7-4.1-3.7s-5,2-5,5v11.2h-2.8v-25.1h2.8v9.3Z"/>
    <path class="st0" d="M561.4,538c0-5.3,3.4-9.6,8.6-9.6s8.4,4.2,8.4,10.2h-14.1c.2,3.7,2.2,6.5,5.9,6.5s4.4-1.3,5-3.7h2.8c-.8,3.9-3.7,6.1-7.8,6.1s-8.8-4.3-8.8-9.6ZM564.4,536.5h10.9c-.2-3.6-2-5.8-5.3-5.8s-5.2,2.5-5.6,5.8Z"/>
    <path class="st0" d="M584,531.9h0c1.1-1.8,3-3.2,5.4-3.2s.8,0,1.2.2v2.7h-.1c-.4-.1-.7-.2-1.3-.2-2.8,0-5.3,2.1-5.3,5.5v10.1h-2.8v-18.2h2.8v3Z"/>
    <path class="st0" d="M601.7,535.3c0-5.8-1.8-10.8-4.1-14.7h2.3c2.7,3.7,5.1,8.6,5.1,14.7s-2.2,11.5-5.1,15.9h-2.3c2.6-4.9,4.1-9.7,4.1-15.9Z"/>
  </g>
</svg>