<?xml version="1.0" encoding="UTF-8"?>
<svg id="Layer_1" xmlns="http://www.w3.org/2000/svg" version="1.1" viewBox="0 0 1164.3 384.4">
  <!-- Generator: Adobe Illustrator 29.1.0, SVG Export Plug-In . SVG Version: 2.1.0 Build 142)  -->
  <defs>
    <style>
      .st0 {
        fill: #f8e9d5;
      }
    </style>
  </defs>
  <g>
    <g>
      <path class="st0" d="M795.1,339.9v-1.2h0c-.6.9-1.4,1.4-2.7,1.4s-3-1.1-3-3v-6.2h1.4v6.2c0,1.2.7,1.8,2,1.8s2.4-1.1,2.4-2.5v-5.5h1.4v9h-1.4Z"/>
      <path class="st0" d="M799.9,338.7h0v1.2h-1.4v-12.5h1.4v4.7h0c.7-.9,1.6-1.5,2.9-1.5,2.3,0,3.8,1.7,3.8,4.7s-1.4,4.7-3.9,4.7-2.1-.4-2.8-1.4ZM805.1,335.5c0-2-.8-3.6-2.5-3.6s-2.9,1.6-2.9,3.6.9,3.5,2.9,3.5,2.5-1.5,2.5-3.5Z"/>
      <path class="st0" d="M813.5,338.7h0c-.5.7-1.5,1.4-3,1.4s-3-.8-3-2.5,1.7-2.6,3.9-2.9c1.3-.2,2.2-.3,2.2-1.3s-.7-1.6-2-1.6-2.2.6-2.2,2h-1.4c0-1.7,1.2-3,3.6-3s3.3.7,3.3,2.9v4.3c0,.7.2,1.1,1,1h0v1c-.2,0-.4.1-.8.1-.9,0-1.4-.4-1.6-1.3ZM813.5,336.6v-1.5c-.5.3-1.3.5-2.1.7-1.4.3-2.5.5-2.5,1.8s.9,1.5,1.9,1.5c1.9,0,2.7-1.4,2.7-2.4Z"/>
      <path class="st0" d="M818.3,338.7h0v1.2h-1.4v-12.5h1.4v4.7h0c.7-.9,1.6-1.5,2.9-1.5,2.3,0,3.8,1.7,3.8,4.7s-1.4,4.7-3.9,4.7-2.1-.4-2.8-1.4ZM823.6,335.5c0-2-.8-3.6-2.5-3.6s-2.9,1.6-2.9,3.6.9,3.5,2.9,3.5,2.5-1.5,2.5-3.5Z"/>
      <path class="st0" d="M832,338.7h0c-.5.7-1.5,1.4-3,1.4s-3-.8-3-2.5,1.7-2.6,3.9-2.9c1.3-.2,2.2-.3,2.2-1.3s-.7-1.6-2-1.6-2.2.6-2.2,2h-1.4c0-1.7,1.2-3,3.6-3s3.3.7,3.3,2.9v4.3c0,.7.2,1.1,1,1h0v1c-.2,0-.4.1-.8.1-.9,0-1.4-.4-1.6-1.3ZM832,336.6v-1.5c-.5.3-1.3.5-2.1.7-1.4.3-2.5.5-2.5,1.8s.9,1.5,1.9,1.5c1.9,0,2.7-1.4,2.7-2.4Z"/>
      <path class="st0" d="M838.4,334.1c0-3,1.2-5.5,2.5-7.3h1.1c-1.1,2-2,4.4-2,7.3s.7,5.5,2,7.9h-1.1c-1.4-2.2-2.5-4.6-2.5-7.9Z"/>
      <path class="st0" d="M845.6,330.9h1.2v-1.4c0-1.6.9-2.1,2.4-2.1s.5,0,.7,0v1.2c-.2,0-.3,0-.5,0-.9,0-1.2.2-1.2,1v1.4h1.7v1.2h-1.7v7.9h-1.4v-7.9h-1.2v-1.2Z"/>
      <path class="st0" d="M856.6,338.7h0c-.5.7-1.5,1.4-3,1.4s-3-.8-3-2.5,1.7-2.6,3.9-2.9c1.3-.2,2.2-.3,2.2-1.3s-.7-1.6-2-1.6-2.2.6-2.2,2h-1.4c0-1.7,1.2-3,3.6-3s3.3.7,3.3,2.9v4.3c0,.7.2,1.1,1,1h0v1c-.2,0-.4.1-.8.1-.9,0-1.4-.4-1.6-1.3ZM856.6,336.6v-1.5c-.5.3-1.3.5-2.1.7-1.4.3-2.5.5-2.5,1.8s.9,1.5,1.9,1.5c1.9,0,2.7-1.4,2.7-2.4Z"/>
      <path class="st0" d="M859.2,330.9h1.3v-2.8h1.4v2.8h1.7v1.2h-1.7v5.9c0,.6.3.8.9.8s.6,0,.8-.1h0v1.2c-.3,0-.7.1-1.1.1-1.2,0-2-.5-2-1.7v-6.2h-1.3v-1.2Z"/>
      <path class="st0" d="M866.5,332.1h0c.6-.9,1.6-1.4,2.9-1.4,1.9,0,3,1,3,2.9v6.3h-1.4v-6.2c0-1.2-.8-1.8-2-1.8s-2.5,1-2.5,2.5v5.5h-1.4v-12.5h1.4v4.6Z"/>
      <path class="st0" d="M873.8,335.4c0-2.6,1.7-4.7,4.3-4.7s4.1,2.1,4.1,5.1h-7c.1,1.8,1.1,3.2,2.9,3.2s2.2-.6,2.5-1.8h1.4c-.4,1.9-1.8,3-3.9,3s-4.4-2.1-4.4-4.7ZM875.3,334.7h5.4c0-1.8-1-2.9-2.6-2.9s-2.6,1.3-2.8,2.9Z"/>
      <path class="st0" d="M885,332.4h0c.5-.9,1.5-1.6,2.7-1.6s.4,0,.6.1v1.4h0c-.2,0-.3,0-.6,0-1.4,0-2.6,1-2.6,2.7v5h-1.4v-9h1.4v1.5Z"/>
      <path class="st0" d="M893.8,334.1c0-2.9-.9-5.3-2-7.3h1.2c1.3,1.8,2.5,4.3,2.5,7.3s-1.1,5.7-2.5,7.9h-1.2c1.3-2.4,2-4.8,2-7.9Z"/>
    </g>
    <g>
      <polygon class="st0" points="847 259.6 732.4 259.6 732.4 105.5 753.8 105.5 753.8 238.2 825.6 238.2 825.6 105.5 847 105.5 847 259.6"/>
      <rect class="st0" x="697.8" y="161.6" width="183.8" height="21.4"/>
      <circle class="st0" cx="789.7" cy="101" r="18.7"/>
      <polygon class="st0" points="1041.7 259.6 927.2 259.6 927.2 105.5 948.5 105.5 948.5 238.2 1020.4 238.2 1020.4 105.5 1041.7 105.5 1041.7 259.6"/>
      <rect class="st0" x="892.6" y="161.6" width="183.8" height="21.4"/>
      <circle class="st0" cx="984.4" cy="101" r="18.7"/>
      <rect class="st0" x="608.7" y="240" width="97.6" height="19.5"/>
    </g>
  </g>
  <g>
    <g>
      <path class="st0" d="M240.3,168.7c-34.8,0-63-28.3-63-63h21.4c0,23,18.7,41.7,41.7,41.7s41.7-18.7,41.7-41.7h21.4c0,34.8-28.3,63-63,63Z"/>
      <polygon class="st0" points="248.4 259.6 232.1 259.6 165.8 181.2 182.1 167.4 240.3 236.1 298.4 167.4 314.7 181.2 248.4 259.6"/>
      <circle class="st0" cx="241.6" cy="101" r="18.7"/>
      <path class="st0" d="M406.5,168.7c-34.8,0-63-28.3-63-63h21.4c0,23,18.7,41.7,41.7,41.7s41.7-18.7,41.7-41.7h21.4c0,34.8-28.3,63-63,63Z"/>
      <polygon class="st0" points="414.6 259.6 398.3 259.6 332 181.2 348.3 167.4 406.5 236.1 464.6 167.4 480.9 181.2 414.6 259.6"/>
      <circle class="st0" cx="406" cy="101" r="18.7"/>
      <rect class="st0" x="87.9" y="240" width="97.6" height="19.5"/>
    </g>
    <g>
      <path class="st0" d="M227.9,321.2v-1.2h0c-.6.9-1.4,1.4-2.7,1.4s-3-1.1-3-3v-6.2h1.4v6.2c0,1.2.7,1.8,2,1.8s2.4-1.1,2.4-2.5v-5.5h1.4v9h-1.4Z"/>
      <path class="st0" d="M231.2,312.2h1.4v1.3h0c.6-.9,1.5-1.5,2.6-1.5s2,.6,2.4,1.6h0c.6-1,1.7-1.6,2.8-1.6,1.6,0,2.7,1,2.7,2.9v6.3h-1.4v-6.3c0-1.1-.7-1.8-1.7-1.8s-2.2,1-2.2,2.4v5.6h-1.4v-6.3c0-1.1-.6-1.8-1.6-1.8s-2.3,1-2.3,2.4v5.6h-1.4v-9Z"/>
      <path class="st0" d="M250.6,319.9h0c-.5.7-1.5,1.4-3,1.4s-3-.8-3-2.5,1.7-2.6,3.9-2.9c1.3-.2,2.2-.3,2.2-1.3s-.7-1.6-2-1.6-2.2.6-2.2,2h-1.4c0-1.7,1.2-3,3.6-3s3.3.7,3.3,2.9v4.3c0,.7.2,1.1,1,1h0v1c-.2,0-.4.1-.8.1-.9,0-1.4-.4-1.6-1.3ZM250.6,317.9v-1.5c-.5.3-1.3.5-2.1.7-1.4.3-2.5.5-2.5,1.8s.9,1.5,1.9,1.5c1.9,0,2.7-1.4,2.7-2.4Z"/>
      <path class="st0" d="M253.9,312.2h1.4v1.3h0c.6-.9,1.5-1.5,2.6-1.5s2,.6,2.4,1.6h0c.6-1,1.7-1.6,2.8-1.6,1.6,0,2.7,1,2.7,2.9v6.3h-1.4v-6.3c0-1.1-.7-1.8-1.7-1.8s-2.2,1-2.2,2.4v5.6h-1.4v-6.3c0-1.1-.6-1.8-1.6-1.8s-2.3,1-2.3,2.4v5.6h-1.4v-9Z"/>
      <path class="st0" d="M273.3,319.9h0c-.5.7-1.5,1.4-3,1.4s-3-.8-3-2.5,1.7-2.6,3.9-2.9c1.3-.2,2.2-.3,2.2-1.3s-.7-1.6-2-1.6-2.2.6-2.2,2h-1.4c0-1.7,1.2-3,3.6-3s3.3.7,3.3,2.9v4.3c0,.7.2,1.1,1,1h0v1c-.2,0-.4.1-.8.1-.9,0-1.4-.4-1.6-1.3ZM273.3,317.9v-1.5c-.5.3-1.3.5-2.1.7-1.4.3-2.5.5-2.5,1.8s.9,1.5,1.9,1.5c1.9,0,2.7-1.4,2.7-2.4Z"/>
      <path class="st0" d="M279.7,315.3c0-3,1.2-5.5,2.5-7.3h1.1c-1.1,2-2,4.4-2,7.3s.7,5.5,2,7.9h-1.1c-1.4-2.2-2.5-4.6-2.5-7.9Z"/>
      <path class="st0" d="M287.5,312.2h1.4v1.3h0c.6-.9,1.5-1.5,2.6-1.5s2,.6,2.4,1.6h0c.6-1,1.7-1.6,2.8-1.6,1.6,0,2.7,1,2.7,2.9v6.3h-1.4v-6.3c0-1.1-.7-1.8-1.7-1.8s-2.2,1-2.2,2.4v5.6h-1.4v-6.3c0-1.1-.6-1.8-1.6-1.8s-2.3,1-2.3,2.4v5.6h-1.4v-9Z"/>
      <path class="st0" d="M300.8,316.7c0-2.6,1.7-4.7,4.4-4.7s4.3,2.1,4.3,4.7-1.6,4.7-4.3,4.7-4.4-2.1-4.4-4.7ZM308.1,316.7c0-2-1-3.6-2.9-3.6s-2.9,1.6-2.9,3.6,1,3.6,2.9,3.6,2.9-1.6,2.9-3.6Z"/>
      <path class="st0" d="M310.2,312.2h1.3v-2.8h1.4v2.8h1.7v1.2h-1.7v5.9c0,.6.3.8.9.8s.6,0,.7-.1h0v1.2c-.3,0-.7.1-1.1.1-1.1,0-2-.5-2-1.7v-6.2h-1.3v-1.2Z"/>
      <path class="st0" d="M317.5,313.4h0c.6-.9,1.6-1.4,2.9-1.4,1.9,0,3,1,3,2.9v6.3h-1.4v-6.2c0-1.2-.8-1.8-2-1.8s-2.5,1-2.5,2.5v5.5h-1.4v-12.5h1.4v4.6Z"/>
      <path class="st0" d="M324.8,316.7c0-2.6,1.7-4.7,4.3-4.7s4.1,2.1,4.1,5.1h-7c.1,1.8,1.1,3.2,2.9,3.2s2.2-.6,2.5-1.8h1.4c-.4,1.9-1.8,3-3.9,3s-4.4-2.1-4.4-4.7ZM326.3,316h5.4c0-1.8-1-2.9-2.6-2.9s-2.6,1.3-2.8,2.9Z"/>
      <path class="st0" d="M336,313.7h0c.5-.9,1.5-1.6,2.7-1.6s.4,0,.6.1v1.4h0c-.2,0-.3,0-.6,0-1.4,0-2.6,1-2.6,2.7v5h-1.4v-9h1.4v1.5Z"/>
      <path class="st0" d="M344.8,315.3c0-2.9-.9-5.3-2-7.3h1.1c1.3,1.8,2.5,4.3,2.5,7.3s-1.1,5.7-2.5,7.9h-1.1c1.3-2.4,2-4.8,2-7.9Z"/>
    </g>
  </g>
</svg>