<?xml version="1.0" encoding="UTF-8"?>
<svg id="Layer_1" xmlns="http://www.w3.org/2000/svg" version="1.1" viewBox="0 0 137 152">
  <!-- Generator: Adobe Illustrator 29.1.0, SVG Export Plug-In . SVG Version: 2.1.0 Build 142)  -->
  <defs>
    <style>
      .st0 {
        fill: #faebd7;
      }
    </style>
  </defs>
  <path class="st0" d="M52.9,68.7c-6.9-1.6-12.7-5.7-16.5-11.7-3.9-6-5.1-13.3-3.6-20.3l13.7,3c-1.5,7,2.9,14,9.9,15.5s14-2.9,15.5-9.9l13.7,3c-3.2,14.5-17.6,23.7-32.2,20.6h-.4c0,0,0-.1,0-.1Z"/>
  <path class="st0" d="M21.7,134.5l-3.4-13.6c72.9-18.5,81.6-56.4,82.4-67.6,1.2-14.4-5.4-27.3-16.5-32.2-11.4-4.9-20-3-25.1-.4-6.5,3.3-10.4,8.7-11.3,12.4l-13.6-3.2c2-8.5,9.3-17,18.6-21.7,11-5.6,24.1-5.6,36.9,0,16.5,7.2,26.4,25.8,24.8,46.1-.9,11.4-5.8,28.5-23.7,45.4-16.3,15.5-39.6,27-69.3,34.5h.2Z"/>
</svg>