<?xml version="1.0" encoding="UTF-8"?>
<svg id="Layer_1" xmlns="http://www.w3.org/2000/svg" version="1.1" viewBox="0 0 960 616.4">
  <!-- Generator: Adobe Illustrator 29.1.0, SVG Export Plug-In . SVG Version: 2.1.0 Build 142)  -->
  <defs>
    <style>
      .st0 {
        fill: #f8e9d5;
      }
    </style>
  </defs>
  <g>
    <path class="st0" d="M384.3,565.9v-2.5h0c-1.3,1.8-2.8,2.9-5.5,2.9s-6.1-2.2-6.1-6v-12.6h2.8v12.5c0,2.4,1.5,3.7,4.1,3.7s4.7-2.2,4.7-5.1v-11.2h2.8v18.2h-2.8Z"/>
    <path class="st0" d="M393.9,563.6h0v2.4h-2.8v-25.1h2.8v9.6h0c1.4-1.9,3.2-3,5.8-3,4.6,0,7.7,3.5,7.7,9.6s-2.9,9.6-7.8,9.6-4.3-.9-5.7-2.9ZM404.6,556.9c0-4.1-1.7-7.2-5.1-7.2s-5.8,3.2-5.8,7.2,1.9,7.1,5.8,7.1,5.1-3,5.1-7.1Z"/>
    <path class="st0" d="M421.5,563.4h0c-1.1,1.4-3,2.9-6,2.9s-6.2-1.6-6.2-5.1,3.4-5.2,7.9-5.9c2.6-.4,4.4-.6,4.4-2.6s-1.5-3.2-4.1-3.2-4.4,1.3-4.5,4h-2.7c.1-3.5,2.4-6.1,7.2-6.1s6.7,1.4,6.7,5.8v8.6c0,1.5.4,2.3,1.9,1.9h.1v2.1c-.4.1-.8.3-1.5.3-1.9,0-2.8-.8-3.1-2.7ZM421.6,559.2v-3.1c-.9.6-2.6,1.1-4.1,1.3-2.8.5-5.1,1-5.1,3.7s1.9,3,3.8,3c3.8,0,5.5-2.8,5.5-4.9Z"/>
    <path class="st0" d="M431.2,563.6h0v2.4h-2.8v-25.1h2.8v9.6h0c1.4-1.9,3.2-3,5.8-3,4.6,0,7.7,3.5,7.7,9.6s-2.9,9.6-7.8,9.6-4.3-.9-5.7-2.9ZM441.8,556.9c0-4.1-1.7-7.2-5.1-7.2s-5.8,3.2-5.8,7.2,1.9,7.1,5.8,7.1,5.1-3,5.1-7.1Z"/>
    <path class="st0" d="M458.7,563.4h0c-1.1,1.4-3,2.9-6,2.9s-6.2-1.6-6.2-5.1,3.4-5.2,7.9-5.9c2.6-.4,4.4-.6,4.4-2.6s-1.5-3.2-4.1-3.2-4.4,1.3-4.5,4h-2.7c.1-3.5,2.4-6.1,7.2-6.1s6.7,1.4,6.7,5.8v8.6c0,1.5.4,2.3,1.9,1.9h.1v2.1c-.4.1-.8.3-1.5.3-1.9,0-2.8-.8-3.1-2.7ZM458.8,559.2v-3.1c-.9.6-2.6,1.1-4.1,1.3-2.8.5-5.1,1-5.1,3.7s1.9,3,3.8,3c3.8,0,5.5-2.8,5.5-4.9Z"/>
    <path class="st0" d="M471.7,554.2c0-6.1,2.5-11,5.1-14.7h2.3c-2.3,3.9-4.1,9-4.1,14.7s1.5,11.1,4.1,15.9h-2.3c-2.9-4.4-5.1-9.3-5.1-15.9Z"/>
    <path class="st0" d="M486.2,547.8h2.5v-2.9c0-3.1,1.8-4.3,4.8-4.3s1.1,0,1.4,0v2.4c-.5,0-.6,0-.9,0-1.8,0-2.5.5-2.5,1.9v2.8h3.4v2.3h-3.4v15.9h-2.8v-15.9h-2.5v-2.3Z"/>
    <path class="st0" d="M508.3,563.4h0c-1.1,1.4-3,2.9-6,2.9s-6.2-1.6-6.2-5.1,3.4-5.2,7.9-5.9c2.6-.4,4.4-.6,4.4-2.6s-1.5-3.2-4.1-3.2-4.4,1.3-4.5,4h-2.7c.1-3.5,2.4-6.1,7.2-6.1s6.7,1.4,6.7,5.8v8.6c0,1.5.4,2.3,1.9,1.9h.1v2.1c-.4.1-.8.3-1.5.3-1.9,0-2.8-.8-3.1-2.7ZM508.4,559.2v-3.1c-.9.6-2.6,1.1-4.1,1.3-2.8.5-5.1,1-5.1,3.7s1.9,3,3.8,3c3.8,0,5.5-2.8,5.5-4.9Z"/>
    <path class="st0" d="M513.6,547.8h2.6v-5.7h2.8v5.7h3.5v2.3h-3.5v11.8c0,1.3.7,1.7,1.8,1.7s1.2-.1,1.5-.2h.1v2.5c-.7.1-1.4.2-2.3.2-2.3,0-4-.9-4-3.5v-12.4h-2.6v-2.3Z"/>
    <path class="st0" d="M528.4,550.2h0c1.3-1.7,3.1-2.8,5.8-2.8,3.8,0,6.1,2.1,6.1,5.8v12.8h-2.8v-12.5c0-2.4-1.5-3.7-4.1-3.7s-5,2-5,5v11.2h-2.8v-25.1h2.8v9.4Z"/>
    <path class="st0" d="M543,556.9c0-5.3,3.4-9.6,8.6-9.6s8.4,4.2,8.4,10.2h-14.1c.2,3.7,2.2,6.5,5.9,6.5s4.4-1.3,5-3.7h2.8c-.8,3.9-3.7,6.1-7.8,6.1s-8.8-4.3-8.8-9.6ZM546,555.4h10.9c-.2-3.6-2-5.8-5.3-5.8s-5.2,2.5-5.6,5.8Z"/>
    <path class="st0" d="M565.6,550.8h0c1.1-1.8,3-3.2,5.4-3.2s.8,0,1.2.2v2.7h-.1c-.4-.1-.7-.2-1.3-.2-2.8,0-5.3,2.1-5.3,5.5v10.1h-2.8v-18.2h2.8v3Z"/>
    <path class="st0" d="M583.4,554.2c0-5.8-1.8-10.8-4.1-14.7h2.3c2.7,3.7,5.1,8.6,5.1,14.7s-2.2,11.5-5.1,15.9h-2.3c2.6-4.8,4.1-9.7,4.1-15.9Z"/>
  </g>
  <g>
    <polygon class="st0" points="489 403.9 257.9 403.9 257.9 93.1 301 93.1 301 360.8 446 360.8 446 93.1 489 93.1 489 403.9"/>
    <rect class="st0" x="188.1" y="206.2" width="370.7" height="43.1"/>
    <circle class="st0" cx="373.5" cy="84" r="37.8"/>
    <polygon class="st0" points="881.8 403.9 650.7 403.9 650.7 93.1 693.8 93.1 693.8 360.8 838.8 360.8 838.8 93.1 881.8 93.1 881.8 403.9"/>
    <rect class="st0" x="580.9" y="206.2" width="370.7" height="43.1"/>
    <circle class="st0" cx="766.3" cy="84" r="37.8"/>
    <rect class="st0" x="8.4" y="364.5" width="196.8" height="39.4"/>
  </g>
</svg>