<?xml version="1.0" encoding="UTF-8"?>
<svg id="Layer_1" xmlns="http://www.w3.org/2000/svg" version="1.1" viewBox="0 0 531.4 384.4">
  <!-- Generator: Adobe Illustrator 29.1.0, SVG Export Plug-In . SVG Version: 2.1.0 Build 142)  -->
  <defs>
    <style>
      .st0 {
        fill: #f8e9d5;
      }
    </style>
  </defs>
  <g>
    <path class="st0" d="M218.3,339.9v-1.2h0c-.6.9-1.4,1.4-2.7,1.4s-3-1.1-3-3v-6.2h1.4v6.2c0,1.2.7,1.8,2,1.8s2.4-1.1,2.4-2.5v-5.5h1.4v9h-1.4Z"/>
    <path class="st0" d="M223,338.7h0v1.2h-1.4v-12.5h1.4v4.7h0c.7-.9,1.6-1.5,2.9-1.5,2.3,0,3.8,1.7,3.8,4.7s-1.4,4.7-3.9,4.7-2.1-.4-2.8-1.4ZM228.3,335.5c0-2-.8-3.6-2.5-3.6s-2.9,1.6-2.9,3.6.9,3.5,2.9,3.5,2.5-1.5,2.5-3.5Z"/>
    <path class="st0" d="M236.7,338.7h0c-.5.7-1.5,1.4-3,1.4s-3-.8-3-2.5,1.7-2.6,3.9-2.9c1.3-.2,2.2-.3,2.2-1.3s-.7-1.6-2-1.6-2.2.6-2.2,2h-1.4c0-1.7,1.2-3,3.6-3s3.3.7,3.3,2.9v4.3c0,.7.2,1.1,1,1h0v1c-.2,0-.4.1-.8.1-.9,0-1.4-.4-1.6-1.3ZM236.7,336.6v-1.5c-.5.3-1.3.5-2.1.7-1.4.3-2.5.5-2.5,1.8s.9,1.5,1.9,1.5c1.9,0,2.7-1.4,2.7-2.4Z"/>
    <path class="st0" d="M241.5,338.7h0v1.2h-1.4v-12.5h1.4v4.7h0c.7-.9,1.6-1.5,2.9-1.5,2.3,0,3.8,1.7,3.8,4.7s-1.4,4.7-3.9,4.7-2.1-.4-2.8-1.4ZM246.8,335.5c0-2-.8-3.6-2.5-3.6s-2.9,1.6-2.9,3.6.9,3.5,2.9,3.5,2.5-1.5,2.5-3.5Z"/>
    <path class="st0" d="M255.2,338.7h0c-.5.7-1.5,1.4-3,1.4s-3-.8-3-2.5,1.7-2.6,3.9-2.9c1.3-.2,2.2-.3,2.2-1.3s-.7-1.6-2-1.6-2.2.6-2.2,2h-1.4c0-1.7,1.2-3,3.6-3s3.3.7,3.3,2.9v4.3c0,.7.2,1.1,1,1h0v1c-.2,0-.4.1-.8.1-.9,0-1.4-.4-1.6-1.3ZM255.2,336.6v-1.5c-.5.3-1.3.5-2.1.7-1.4.3-2.5.5-2.5,1.8s.9,1.5,1.9,1.5c1.9,0,2.7-1.4,2.7-2.4Z"/>
    <path class="st0" d="M261.6,334.1c0-3,1.2-5.5,2.5-7.3h1.1c-1.1,2-2,4.4-2,7.3s.7,5.5,2,7.9h-1.1c-1.4-2.2-2.5-4.6-2.5-7.9Z"/>
    <path class="st0" d="M268.8,330.9h1.2v-1.4c0-1.6.9-2.1,2.4-2.1s.5,0,.7,0v1.2c-.2,0-.3,0-.5,0-.9,0-1.2.2-1.2,1v1.4h1.7v1.2h-1.7v7.9h-1.4v-7.9h-1.2v-1.2Z"/>
    <path class="st0" d="M279.7,338.7h0c-.5.7-1.5,1.4-3,1.4s-3-.8-3-2.5,1.7-2.6,3.9-2.9c1.3-.2,2.2-.3,2.2-1.3s-.7-1.6-2-1.6-2.2.6-2.2,2h-1.4c0-1.7,1.2-3,3.6-3s3.3.7,3.3,2.9v4.3c0,.7.2,1.1,1,1h0v1c-.2,0-.4.1-.8.1-.9,0-1.4-.4-1.6-1.3ZM279.8,336.6v-1.5c-.5.3-1.3.5-2.1.7-1.4.3-2.5.5-2.5,1.8s.9,1.5,1.9,1.5c1.9,0,2.7-1.4,2.7-2.4Z"/>
    <path class="st0" d="M282.3,330.9h1.3v-2.8h1.4v2.8h1.7v1.2h-1.7v5.9c0,.6.3.8.9.8s.6,0,.8-.1h0v1.2c-.3,0-.7.1-1.1.1-1.2,0-2-.5-2-1.7v-6.2h-1.3v-1.2Z"/>
    <path class="st0" d="M289.7,332.1h0c.6-.9,1.6-1.4,2.9-1.4,1.9,0,3,1,3,2.9v6.3h-1.4v-6.2c0-1.2-.8-1.8-2-1.8s-2.5,1-2.5,2.5v5.5h-1.4v-12.5h1.4v4.6Z"/>
    <path class="st0" d="M297,335.4c0-2.6,1.7-4.7,4.3-4.7s4.1,2.1,4.1,5.1h-7c.1,1.8,1.1,3.2,2.9,3.2s2.2-.6,2.5-1.8h1.4c-.4,1.9-1.8,3-3.9,3s-4.4-2.1-4.4-4.7ZM298.4,334.7h5.4c0-1.8-1-2.9-2.6-2.9s-2.6,1.3-2.8,2.9Z"/>
    <path class="st0" d="M308.2,332.4h0c.5-.9,1.5-1.6,2.7-1.6s.4,0,.6.1v1.4h0c-.2,0-.3,0-.6,0-1.4,0-2.6,1-2.6,2.7v5h-1.4v-9h1.4v1.5Z"/>
    <path class="st0" d="M317,334.1c0-2.9-.9-5.3-2-7.3h1.2c1.3,1.8,2.5,4.3,2.5,7.3s-1.1,5.7-2.5,7.9h-1.2c1.3-2.4,2-4.8,2-7.9Z"/>
  </g>
  <g>
    <polygon class="st0" points="270.2 259.6 155.6 259.6 155.6 105.5 177 105.5 177 238.2 248.8 238.2 248.8 105.5 270.2 105.5 270.2 259.6"/>
    <rect class="st0" x="121" y="161.6" width="183.8" height="21.4"/>
    <circle class="st0" cx="212.9" cy="101" r="18.7"/>
    <polygon class="st0" points="464.9 259.6 350.3 259.6 350.3 105.5 371.7 105.5 371.7 238.2 443.6 238.2 443.6 105.5 464.9 105.5 464.9 259.6"/>
    <rect class="st0" x="315.7" y="161.6" width="183.8" height="21.4"/>
    <circle class="st0" cx="407.6" cy="101" r="18.7"/>
    <rect class="st0" x="31.9" y="240" width="97.6" height="19.5"/>
  </g>
</svg>