<?xml version="1.0" encoding="UTF-8"?>
<svg id="Layer_1" xmlns="http://www.w3.org/2000/svg" version="1.1" viewBox="0 0 137 137">
  <!-- Generator: Adobe Illustrator 29.1.0, SVG Export Plug-In . SVG Version: 2.1.0 Build 142)  -->
  <defs>
    <style>
      .st0 {
        fill: #faebd7;
      }
    </style>
  </defs>
  <path class="st0" d="M99,127.5l-14.6-25.3,2.6-9.9c11.2-6.6,18.1-18.7,18.1-31.6,0-20.2-16.4-36.6-36.6-36.6S31.9,40.5,31.9,60.7s6.9,25,18.1,31.6l2.6,9.9-14.1,24.5-12.6-7.3,10.8-18.7c-12-9.6-19.3-24.4-19.3-40,0-28.2,23-51.2,51.2-51.2s51.2,23,51.2,51.2,0,2.5-.1,3.7,0,.9-.1,1.4c-.1,1.1-.2,2.1-.4,3.2s-.2,1.4-.4,2.1c-.2,1.1-.5,2.2-.8,3.3s-.5,1.9-.9,2.8-.4,1.3-.7,1.9-.7,1.6-1,2.4-.7,1.5-1.1,2.3-.5,1-.8,1.4c-.4.8-.9,1.6-1.4,2.4s-.4.6-.6,1c-.4.7-.9,1.3-1.3,1.9s-.8,1.1-1.2,1.6-.9,1.2-1.4,1.8-.8.9-1.2,1.4-1.1,1.2-1.6,1.7-1.3,1.3-2,1.9-1.5,1.3-2.3,1.9l11.3,19.5-12.6,7.3Z"/>
</svg>