<?xml version="1.0" encoding="UTF-8"?>
<svg id="Layer_1" xmlns="http://www.w3.org/2000/svg" version="1.1" viewBox="0 0 1164.3 426.8">
  <!-- Generator: Adobe Illustrator 29.1.0, SVG Export Plug-In . SVG Version: 2.1.0 Build 142)  -->
  <defs>
    <style>
      .st0, .st1 {
        fill: none;
        stroke: #fff;
        stroke-miterlimit: 10;
      }

      .st1 {
        stroke-dasharray: 1.2 2.3;
        stroke-width: 1.2px;
      }

      .st2 {
        fill: #f8e9d5;
      }

      .st3 {
        fill: #fff;
      }
    </style>
  </defs>
  <line class="st1" x1="27.1" y1="217.7" x2="1132" y2="217.7"/>
  <line class="st1" x1="27.1" y1="107.9" x2="1132" y2="107.9"/>
  <line class="st1" x1="27.1" y1="282.6" x2="1132" y2="282.6"/>
  <line class="st1" x1="27.1" y1="64.4" x2="1132" y2="64.4"/>
  <path class="st2" d="M152,326.6v-.7h-.1c-.3.4-.9.8-1.6.8-1.1,0-1.6-.8-1.6-1.5,0-1.3,1.1-2,3.2-2h0c0-.5-.1-1.3-1.2-1.3s-1,.2-1.4.4l-.2-.6c.4-.3,1.1-.5,1.7-.5,1.6,0,2,1.1,2,2.2v2c0,.5,0,.9,0,1.3h-.9ZM151.9,323.9c-1.1,0-2.3.2-2.3,1.2s.4.9.9.9,1.1-.4,1.3-.9c0,0,0-.2,0-.3v-.9Z"/>
  <g>
    <path class="st2" d="M148.2,349.5h4.9v.7h-2.2l-1.1,5.7h-.8l1.1-5.7h-2.1v-.7Z"/>
    <path class="st2" d="M154,352.1h0c.4-.5,1-.8,1.7-.8s1.3.6,1.1,1.5l-.6,3.3h-.7l.6-3.3c.1-.6,0-.9-.6-.9-.9,0-1.7.7-1.8,1.5l-.5,2.6h-.7l1.3-6.4h.7l-.5,2.5Z"/>
    <path class="st2" d="M158.1,353.8c0,0,0,.2,0,.3,0,.8.4,1.4,1.3,1.4s1.1-.4,1.3-1h.7c-.4,1-1.1,1.6-2.1,1.6s-2-.8-2-2,1.1-2.9,2.4-2.9.9.1,1.2.3c.6.4.8,1.3.6,2.3h-3.5ZM158.2,353.3h2.7c0-.9-.3-1.5-1.1-1.5s-1.4.6-1.6,1.5Z"/>
    <path class="st2" d="M164.3,350.4c.1-.6.5-.8.9-.9v.3c-.3,0-.5.2-.5.6h.4l-.2.9h-.8l.2-1ZM165.6,350.4c.1-.6.5-.8.9-.9v.3c-.3,0-.5.2-.5.6h.4l-.2.9h-.8l.2-1Z"/>
    <path class="st2" d="M169.1,355.4h0c-.3.4-.8.7-1.5.7s-1.5-.6-1.5-1.3c0-1.2.9-1.4,1.9-1.5,1.3,0,1.6-.2,1.6-.8s-.5-.7-1-.7c-.8,0-1.2.3-1.3.9h-.7c.2-.9.9-1.5,2.1-1.5s1.8.4,1.5,1.6l-.4,2.2c0,.3,0,.6.4.5h0v.5c-.2,0-.3,0-.5,0-.5,0-.6-.3-.7-.6ZM167.7,355.5c.9,0,1.4-.6,1.5-1.3v-.6c-.2.2-.5.2-1.3.3-.4,0-1.1,0-1.1.9s.3.8.9.8Z"/>
    <path class="st2" d="M171.8,350.5c-.1.6-.5.8-.9.9v-.3c.3,0,.5-.2.5-.6h-.4l.2-.9h.8l-.2,1ZM173.1,350.5c-.1.6-.5.8-.9.9v-.3c.3,0,.5-.2.5-.6h-.4l.2-.9h.8l-.2,1Z"/>
    <path class="st2" d="M175,351.3h.6v-.7c.3-.8.7-1.1,1.5-1.1s.3,0,.4,0v.6c-.2,0-.3,0-.4,0-.5,0-.6.2-.6.5v.7c-.1,0,.7,0,.7,0v.6h-1l-.8,4.1h-.7l.8-4.1h-.6v-.6Z"/>
    <path class="st2" d="M177.8,353.8c0,0,0,.2,0,.3,0,.8.4,1.4,1.3,1.4s1.1-.4,1.3-1h.7c-.4,1-1.1,1.6-2.1,1.6s-2-.8-2-2,1.1-2.9,2.4-2.9.9.1,1.2.3c.6.4.8,1.3.6,2.3h-3.5ZM177.9,353.3h2.7c0-.9-.3-1.5-1.1-1.5s-1.4.6-1.6,1.5Z"/>
    <path class="st2" d="M182.5,353.8c0,0,0,.2,0,.3,0,.8.4,1.4,1.3,1.4s1.1-.4,1.3-1h.7c-.4,1-1.1,1.6-2.1,1.6s-2-.8-2-2,1.1-2.9,2.4-2.9.9.1,1.2.3c.6.4.8,1.3.6,2.3h-3.5ZM182.6,353.3h2.7c0-.9-.3-1.5-1.1-1.5s-1.4.6-1.6,1.5Z"/>
    <path class="st2" d="M187.6,349.5h.7l-1.3,6.4h-.7l1.3-6.4Z"/>
    <path class="st2" d="M188,354.5h.7c0,.7.5,1.1,1.3,1.1s1.1-.2,1.1-.8-.3-.5-1.1-.8c-.8-.3-1.4-.6-1.4-1.4s.7-1.3,1.6-1.3,1.7.4,1.8,1.5h-.7c0-.6-.5-.9-1.1-.9s-.9.1-.9.7.3.5,1.1.8c.8.3,1.4.6,1.4,1.4s-.9,1.5-1.8,1.5-2-.5-2-1.6Z"/>
    <path class="st2" d="M196.7,355.4h0c-.3.4-.8.7-1.5.7s-1.5-.6-1.5-1.3c0-1.2.9-1.4,1.9-1.5,1.3,0,1.6-.2,1.6-.8s-.5-.7-1-.7c-.8,0-1.2.3-1.3.9h-.7c.2-.9.9-1.5,2.1-1.5s1.8.4,1.5,1.6l-.4,2.2c0,.3,0,.6.4.5h0v.5c-.2,0-.3,0-.5,0-.5,0-.6-.3-.7-.6ZM195.3,355.5c.9,0,1.4-.6,1.5-1.3v-.6c-.2.2-.5.2-1.3.3-.4,0-1.1,0-1.1.9s.3.8.9.8Z"/>
    <path class="st2" d="M199.7,352h0c.4-.5,1-.8,1.7-.8s1.3.6,1.1,1.5l-.6,3.3h-.7l.6-3.3c.1-.6,0-.9-.6-.9-.9,0-1.7.7-1.8,1.5l-.5,2.6h-.7l.9-4.7h.7v.7Z"/>
    <path class="st2" d="M203.1,354.2c0-1.4.9-3,2.5-3s1.1.3,1.4.8h0l.5-2.5h.7l-1.3,6.4h-.7v-.5c.1,0,0,0,0,0-.4.4-.8.6-1.4.6-1.1,0-1.8-.7-1.8-1.9ZM205,355.5c1.2,0,1.7-1.3,1.7-2.4s-.4-1.3-1.2-1.3c-1.2,0-1.7,1.3-1.7,2.3s.3,1.4,1.1,1.4Z"/>
    <path class="st2" d="M209.3,354.5h.7c0,.7.5,1.1,1.3,1.1s1.1-.2,1.1-.8-.3-.5-1.1-.8c-.8-.3-1.4-.6-1.4-1.4s.7-1.3,1.6-1.3,1.7.4,1.8,1.5h-.7c0-.6-.5-.9-1.1-.9s-.9.1-.9.7.3.5,1.1.8c.8.3,1.4.6,1.4,1.4s-.9,1.5-1.8,1.5-2-.5-2-1.6Z"/>
    <path class="st2" d="M213.7,354.1c0-1.5.9-2.9,2.5-2.9s2,.8,2,2.1-.9,2.8-2.5,2.8-2-.7-2-2ZM215.7,355.5c1.1,0,1.7-1.1,1.7-2.2s-.4-1.5-1.3-1.5-1.7,1.1-1.7,2.3.4,1.4,1.3,1.4Z"/>
    <path class="st2" d="M221.4,355.3h0c-.4.4-.9.8-1.6.8s-1.4-.6-1.2-1.5l.6-3.2h.7l-.6,3.2c-.1.6,0,.9.6.9.8,0,1.5-.7,1.7-1.6l.5-2.6h.7l-.9,4.7h-.7v-.6Z"/>
    <path class="st2" d="M224.4,352h0c.4-.5,1-.8,1.7-.8s1.3.6,1.1,1.5l-.6,3.3h-.7l.6-3.3c.1-.6,0-.9-.6-.9-.9,0-1.7.7-1.8,1.5l-.5,2.6h-.7l.9-4.7h.7v.7Z"/>
    <path class="st2" d="M227.8,354.2c0-1.4.9-3,2.5-3s1.1.3,1.4.8h0l.5-2.5h.7l-1.3,6.4h-.7v-.5c.1,0,0,0,0,0-.4.4-.8.6-1.4.6-1.1,0-1.8-.7-1.8-1.9ZM229.7,355.5c1.2,0,1.7-1.3,1.7-2.4s-.4-1.3-1.2-1.3c-1.2,0-1.7,1.3-1.7,2.3s.3,1.4,1.1,1.4Z"/>
    <path class="st2" d="M232.5,354.5h.7c0,.7.5,1.1,1.3,1.1s1.1-.2,1.1-.8-.3-.5-1.1-.8c-.8-.3-1.4-.6-1.4-1.4s.7-1.3,1.6-1.3,1.7.4,1.8,1.5h-.7c0-.6-.5-.9-1.1-.9s-.9.1-.9.7.3.5,1.1.8c.8.3,1.4.6,1.4,1.4s-.9,1.5-1.8,1.5-2-.5-2-1.6Z"/>
    <path class="st2" d="M147.2,365.3h.7c0,.7.5,1.1,1.3,1.1s1.1-.2,1.1-.8-.3-.5-1.1-.8c-.8-.3-1.4-.6-1.4-1.4s.7-1.3,1.6-1.3,1.7.4,1.8,1.5h-.7c0-.6-.5-.9-1.1-.9s-.9.1-.9.7.3.5,1.1.8c.8.3,1.4.6,1.4,1.4s-.9,1.4-1.8,1.4-2-.5-2-1.6Z"/>
    <path class="st2" d="M153,362.9h0c.4-.5,1-.8,1.7-.8s1.3.6,1.1,1.5l-.6,3.3h-.7l.6-3.3c.1-.6,0-.9-.6-.9-.9,0-1.7.7-1.8,1.5l-.5,2.6h-.7l1.3-6.4h.7l-.5,2.5Z"/>
    <path class="st2" d="M159.1,366.2h0c-.3.4-.8.7-1.5.7s-1.5-.6-1.5-1.3c0-1.2.9-1.4,1.9-1.5,1.3,0,1.6-.2,1.6-.8s-.5-.7-1-.7c-.8,0-1.2.3-1.3.9h-.7c.2-.9.9-1.5,2.1-1.5s1.8.4,1.5,1.6l-.4,2.2c0,.3,0,.6.4.5h0v.5c-.2,0-.3,0-.5,0-.5,0-.6-.3-.7-.6ZM157.8,366.3c.9,0,1.4-.6,1.5-1.3v-.6c-.2.2-.5.2-1.3.3-.4,0-1.1,0-1.1.9s.3.8.9.8Z"/>
    <path class="st2" d="M162.2,362.9h0c.4-.5.8-.8,1.3-.8s.3,0,.4,0v.7h-.2c0,0-.2,0-.3,0-.7,0-1.3.6-1.5,1.5l-.5,2.5h-.7l.9-4.7h.7v.7Z"/>
    <path class="st2" d="M164.6,362.1h.7v.6c-.1,0-.1,0-.1,0,.4-.5.9-.7,1.5-.7,1,0,1.7.8,1.7,1.9s-.8,3-2.4,3-1.2-.3-1.5-.8h0l-.4,2.2h-.7l1.2-6.1ZM166,366.3c1.2,0,1.7-1.3,1.7-2.3s-.3-1.4-1.1-1.4-1.8,1.2-1.8,2.3c0,.8.4,1.4,1.2,1.4Z"/>
    <path class="st2" d="M173.1,366.2h0c-.3.4-.8.7-1.5.7s-1.5-.6-1.5-1.3c0-1.2.9-1.4,1.9-1.5,1.3,0,1.6-.2,1.6-.8s-.5-.7-1-.7c-.8,0-1.2.3-1.3.9h-.7c.2-.9.9-1.5,2.1-1.5s1.8.4,1.5,1.6l-.4,2.2c0,.3,0,.6.4.5h0v.5c-.2,0-.3,0-.5,0-.5,0-.6-.3-.7-.6ZM171.7,366.3c.9,0,1.4-.6,1.5-1.3v-.6c-.2.2-.5.2-1.3.3-.4,0-1.1,0-1.1.9s.3.8.9.8Z"/>
    <path class="st2" d="M176.1,362.8h0c.4-.5,1-.8,1.7-.8s1.3.6,1.1,1.5l-.6,3.3h-.7l.6-3.3c.1-.6,0-.9-.6-.9-.9,0-1.7.7-1.8,1.5l-.5,2.6h-.7l.9-4.7h.7v.7Z"/>
    <path class="st2" d="M179.5,365c0-1.4.9-3,2.5-3s1.1.3,1.4.8h0l.5-2.5h.7l-1.3,6.4h-.7v-.5c0,0,0,0,0,0-.4.4-.8.6-1.4.6-1.1,0-1.8-.7-1.8-1.9ZM181.4,366.3c1.2,0,1.7-1.3,1.7-2.4s-.4-1.3-1.2-1.3c-1.2,0-1.7,1.3-1.7,2.3s.3,1.4,1.1,1.4Z"/>
    <path class="st2" d="M185.7,365.3h.7c0,.7.5,1.1,1.3,1.1s1.1-.2,1.1-.8-.3-.5-1.1-.8c-.8-.3-1.4-.6-1.4-1.4s.7-1.3,1.6-1.3,1.7.4,1.8,1.5h-.7c0-.6-.5-.9-1.1-.9s-.9.1-.9.7.3.5,1.1.8c.8.3,1.4.6,1.4,1.4s-.9,1.4-1.8,1.4-2-.5-2-1.6Z"/>
    <path class="st2" d="M191.4,362.9h0c.4-.5,1-.8,1.7-.8s1.3.6,1.1,1.5l-.6,3.3h-.7l.6-3.3c.1-.6,0-.9-.6-.9-.9,0-1.7.7-1.8,1.5l-.5,2.6h-.7l1.3-6.4h.7l-.5,2.5Z"/>
    <path class="st2" d="M194.8,364.9c0-1.5.9-2.9,2.5-2.9s2,.8,2,2.1-.9,2.8-2.5,2.8-2-.7-2-2ZM196.8,366.3c1.1,0,1.7-1.1,1.7-2.2s-.4-1.5-1.3-1.5-1.7,1.1-1.7,2.3.4,1.4,1.3,1.4Z"/>
    <path class="st2" d="M201,362.9h0c.4-.5.8-.8,1.3-.8s.3,0,.4,0v.7h-.2c-.1,0-.2,0-.3,0-.7,0-1.3.6-1.5,1.5l-.5,2.5h-.7l.9-4.7h.7v.7Z"/>
    <path class="st2" d="M203.1,362.1h.7l.3-1.5h.7l-.3,1.5h.9v.6h-1l-.6,3c0,.4,0,.5.4.5s.3,0,.4,0h0v.6c-.3,0-.4,0-.6,0-.7,0-1.1-.4-.9-1.2l.6-2.9h-.7v-.6Z"/>
    <path class="st2" d="M207.1,362.1h.8l.3,2.8c0,.4,0,1.1,0,1.1h0s.2-.6.4-1l1.3-2.9h.8l.3,2.9c0,.4,0,1,0,1h0s.2-.6.4-1l1.4-2.8h.8l-2.3,4.7h-.7l-.3-2.8c0-.4,0-1,0-1h0s-.2.6-.4,1l-1.2,2.8h-.8l-.6-4.7Z"/>
    <path class="st2" d="M214.6,362.9h0c.4-.5,1-.8,1.7-.8s1.3.6,1.1,1.5l-.6,3.3h-.7l.6-3.3c.1-.6,0-.9-.6-.9-.9,0-1.7.7-1.8,1.5l-.5,2.6h-.7l1.3-6.4h.7l-.5,2.5Z"/>
    <path class="st2" d="M218.7,364.6c0,0,0,.2,0,.3,0,.8.4,1.4,1.3,1.4s1.1-.4,1.3-1h.7c-.4,1-1.1,1.6-2.1,1.6s-2-.8-2-2,1.1-2.9,2.4-2.9.9.1,1.2.3c.6.4.8,1.3.6,2.3h-3.5ZM218.7,364.1h2.7c0-.9-.3-1.5-1.1-1.5s-1.4.6-1.6,1.5Z"/>
    <path class="st2" d="M223.9,362.8h0c.4-.5,1-.8,1.7-.8s1.3.6,1.1,1.5l-.6,3.3h-.7l.6-3.3c.1-.6,0-.9-.6-.9-.9,0-1.7.7-1.8,1.5l-.5,2.6h-.7l.9-4.7h.7v.7Z"/>
    <path class="st2" d="M147.2,376.1h.7c0,.7.5,1.1,1.3,1.1s1.1-.2,1.1-.8-.3-.5-1.1-.8c-.8-.3-1.4-.6-1.4-1.4s.7-1.3,1.6-1.3,1.7.4,1.8,1.5h-.7c0-.6-.5-.9-1.1-.9s-.9.1-.9.7.3.5,1.1.8c.8.3,1.4.6,1.4,1.4s-.9,1.4-1.8,1.4-2-.5-2-1.6Z"/>
    <path class="st2" d="M152.4,372.9h.7v.6c-.1,0-.1,0-.1,0,.4-.5.9-.7,1.5-.7,1,0,1.7.8,1.7,1.9s-.8,3-2.4,3-1.2-.3-1.5-.8h0l-.4,2.2h-.7l1.2-6.1ZM153.8,377.1c1.2,0,1.7-1.3,1.7-2.3s-.3-1.4-1.1-1.4-1.8,1.2-1.8,2.3c0,.8.4,1.4,1.2,1.4Z"/>
    <path class="st2" d="M156.6,375.7c0-1.5.9-2.9,2.5-2.9s2,.8,2,2.1-.9,2.8-2.5,2.8-2-.7-2-2ZM158.6,377.1c1.1,0,1.7-1.1,1.7-2.2s-.4-1.5-1.3-1.5-1.7,1.1-1.7,2.3.4,1.4,1.3,1.4Z"/>
    <path class="st2" d="M163.8,374.6l1.3,2.9h-.8l-1.1-2.5-.8.7-.3,1.7h-.7l1.3-6.4h.7l-.8,3.9,2.2-2.1h1l-2,1.7Z"/>
    <path class="st2" d="M166.2,375.4c0,0,0,.2,0,.3,0,.8.4,1.4,1.3,1.4s1.1-.4,1.3-1h.7c-.4,1-1.1,1.6-2.1,1.6s-2-.8-2-2,1.1-2.9,2.4-2.9.9.1,1.2.3c.6.4.8,1.3.6,2.3h-3.5ZM166.3,374.9h2.7c0-.9-.3-1.5-1.1-1.5s-1.4.6-1.6,1.5Z"/>
    <path class="st2" d="M171.5,373.6h0c.4-.5,1-.8,1.7-.8s1.3.6,1.1,1.5l-.6,3.3h-.7l.6-3.3c.1-.6,0-.9-.6-.9-.9,0-1.7.7-1.8,1.5l-.5,2.6h-.7l.9-4.7h.7v.7Z"/>
    <path class="st2" d="M174.4,378.3c.2,0,.5-.2.6-.7h-.4l.2-.9h.9l-.2,1c-.1.7-.5,1-1.1,1.1v-.4Z"/>
    <path class="st2" d="M179.1,371.1h.7l-1.3,6.4h-.7l1.3-6.4Z"/>
    <path class="st2" d="M180.4,372.9h.7l-.9,4.7h-.7l.9-4.7ZM180.8,371.1h.7l-.2.9h-.7l.2-.9Z"/>
    <path class="st2" d="M183.7,374.6l1.3,2.9h-.8l-1.1-2.5-.8.7-.3,1.7h-.7l1.3-6.4h.7l-.8,3.9,2.2-2.1h1l-2,1.7Z"/>
    <path class="st2" d="M186.1,375.4c0,0,0,.2,0,.3,0,.8.4,1.4,1.3,1.4s1.1-.4,1.3-1h.7c-.4,1-1.1,1.6-2.1,1.6s-2-.8-2-2,1.1-2.9,2.4-2.9.9.1,1.2.3c.6.4.8,1.3.6,2.3h-3.5ZM186.2,374.9h2.7c0-.9-.3-1.5-1.1-1.5s-1.4.6-1.6,1.5Z"/>
    <path class="st2" d="M192.3,372c.1-.6.5-.8.9-.9v.3c-.3,0-.5.2-.5.6h.4l-.2.9h-.8l.2-1ZM193.7,372c.1-.6.5-.8.9-.9v.3c-.3,0-.5.2-.5.6h.4l-.2.9h-.8l.2-1Z"/>
    <path class="st2" d="M197.1,377h0c-.3.4-.8.7-1.5.7s-1.5-.6-1.5-1.3c0-1.2.9-1.4,1.9-1.5,1.3,0,1.6-.2,1.6-.8s-.5-.7-1-.7c-.8,0-1.2.3-1.3.9h-.7c.2-.9.9-1.5,2.1-1.5s1.8.4,1.5,1.6l-.4,2.2c0,.3,0,.6.4.5h0v.5c-.2,0-.3,0-.5,0-.5,0-.6-.3-.7-.6ZM195.7,377.1c.9,0,1.4-.6,1.5-1.3v-.6c-.2.2-.5.2-1.3.3-.4,0-1.1,0-1.1.9s.3.8.9.8Z"/>
    <path class="st2" d="M199.8,372.1c-.1.6-.5.8-.9.9v-.3c.3,0,.5-.2.5-.6h-.4l.2-.9h.8l-.2,1ZM201.1,372.1c-.1.6-.5.8-.9.9v-.3c.3,0,.5-.2.5-.6h-.4l.2-.9h.8l-.2,1Z"/>
    <path class="st2" d="M203.3,372.9h.7l-.9,4.7h-.7l.9-4.7ZM203.6,371.1h.7l-.2.9h-.7l.2-.9Z"/>
    <path class="st2" d="M205.6,373.6h0c.4-.5,1-.8,1.7-.8s1.3.6,1.1,1.5l-.6,3.3h-.7l.6-3.3c.1-.6,0-.9-.6-.9-.9,0-1.7.7-1.8,1.5l-.5,2.6h-.7l.9-4.7h.7v.7Z"/>
    <path class="st2" d="M211.2,372c.1-.6.5-.8.9-.9v.3c-.3,0-.5.2-.5.6h.4l-.2.9h-.8l.2-1ZM212.6,372c.1-.6.5-.8.9-.9v.3c-.3,0-.5.2-.5.6h.4l-.2.9h-.8l.2-1Z"/>
    <path class="st2" d="M213.7,372.9h.6v-.7c.3-.8.7-1.1,1.5-1.1s.3,0,.4,0v.6c-.2,0-.3,0-.4,0-.5,0-.6.2-.6.5v.7c-.1,0,.7,0,.7,0v.6h-1l-.8,4.1h-.7l.8-4.1h-.6v-.6Z"/>
    <path class="st2" d="M218.6,377h0c-.3.4-.8.7-1.5.7s-1.5-.6-1.5-1.3c0-1.2.9-1.4,1.9-1.5,1.3,0,1.6-.2,1.6-.8s-.5-.7-1-.7c-.8,0-1.2.3-1.3.9h-.7c.2-.9.9-1.5,2.1-1.5s1.8.4,1.5,1.6l-.4,2.2c0,.3,0,.6.4.5h0v.5c-.2,0-.3,0-.5,0-.5,0-.6-.3-.7-.6ZM217.3,377.1c.9,0,1.4-.6,1.5-1.3v-.6c-.2.2-.5.2-1.3.3-.4,0-1.1,0-1.1.9s.3.8.9.8Z"/>
    <path class="st2" d="M220.6,372.9h.7l.3-1.5h.7l-.3,1.5h.9v.6h-1l-.6,3c0,.4,0,.5.4.5s.3,0,.4,0h0v.6c-.3,0-.4,0-.6,0-.7,0-1.1-.4-.9-1.2l.6-2.9h-.7v-.6Z"/>
    <path class="st2" d="M224.2,373.7h0c.4-.5,1-.8,1.7-.8s1.3.6,1.1,1.5l-.6,3.3h-.7l.6-3.3c.1-.6,0-.9-.6-.9-.9,0-1.7.7-1.8,1.5l-.5,2.6h-.7l1.3-6.4h.7l-.5,2.5Z"/>
    <path class="st2" d="M228.3,375.4c0,0,0,.2,0,.3,0,.8.4,1.4,1.3,1.4s1.1-.4,1.3-1h.7c-.4,1-1.1,1.6-2.1,1.6s-2-.8-2-2,1.1-2.9,2.4-2.9.9.1,1.2.3c.6.4.8,1.3.6,2.3h-3.5ZM228.4,374.9h2.7c0-.9-.3-1.5-1.1-1.5s-1.4.6-1.6,1.5Z"/>
    <path class="st2" d="M233.6,373.7h0c.4-.5.8-.8,1.3-.8s.3,0,.4,0v.7h-.2c0,0-.2,0-.3,0-.7,0-1.3.6-1.5,1.5l-.5,2.5h-.7l.9-4.7h.7v.7Z"/>
    <path class="st2" d="M236.9,372.1c-.1.6-.5.8-.9.9v-.3c.3,0,.5-.2.5-.6h-.4l.2-.9h.8l-.2,1ZM238.2,372.1c-.1.6-.5.8-.9.9v-.3c.3,0,.5-.2.5-.6h-.4l.2-.9h.8l-.2,1Z"/>
    <path class="st2" d="M238.1,376.7h.9l-.2.9h-.9l.2-.9Z"/>
  </g>
  <g>
    <path class="st2" d="M339.4,349.5h4.9v.7h-2.2l-1.1,5.7h-.8l1.1-5.7h-2.1v-.7Z"/>
    <path class="st2" d="M345.3,352.1h0c.4-.5,1-.8,1.7-.8s1.3.6,1.1,1.5l-.6,3.3h-.7l.6-3.3c.1-.6,0-.9-.6-.9-.9,0-1.7.7-1.8,1.5l-.5,2.6h-.7l1.3-6.4h.7l-.5,2.5Z"/>
    <path class="st2" d="M349.4,353.8c0,0,0,.2,0,.3,0,.8.4,1.4,1.3,1.4s1.1-.4,1.3-1h.7c-.4,1-1.1,1.6-2.1,1.6s-2-.8-2-2,1.1-2.9,2.4-2.9.9.1,1.2.3c.6.4.8,1.3.6,2.3h-3.5ZM349.4,353.3h2.7c0-.9-.3-1.5-1.1-1.5s-1.4.6-1.6,1.5Z"/>
    <path class="st2" d="M355.5,350.4c.1-.6.5-.8.9-.9v.3c-.3,0-.5.2-.5.6h.4l-.2.9h-.8l.2-1ZM356.9,350.4c.1-.6.5-.8.9-.9v.3c-.3,0-.5.2-.5.6h.4l-.2.9h-.8l.2-1Z"/>
    <path class="st2" d="M358.1,353.8c0,0,0,.2,0,.3,0,.8.4,1.4,1.3,1.4s1.1-.4,1.3-1h.7c-.4,1-1.1,1.6-2.1,1.6s-2-.8-2-2,1.1-2.9,2.4-2.9.9.1,1.2.3c.6.4.8,1.3.6,2.3h-3.5ZM358.2,353.3h2.7c0-.9-.3-1.5-1.1-1.5s-1.4.6-1.6,1.5Z"/>
    <path class="st2" d="M363.1,350.5c-.1.6-.5.8-.9.9v-.3c.3,0,.5-.2.5-.6h-.4l.2-.9h.8l-.2,1ZM364.5,350.5c-.1.6-.5.8-.9.9v-.3c.3,0,.5-.2.5-.6h-.4l.2-.9h.8l-.2,1Z"/>
    <path class="st2" d="M366.3,351.3h.6v-.7c.3-.8.7-1.1,1.5-1.1s.3,0,.4,0v.6c-.2,0-.3,0-.4,0-.5,0-.6.2-.6.5v.7c-.1,0,.7,0,.7,0v.6h-1l-.8,4.1h-.7l.8-4.1h-.6v-.6Z"/>
    <path class="st2" d="M369.2,353.8c0,0,0,.2,0,.3,0,.8.4,1.4,1.3,1.4s1.1-.4,1.3-1h.7c-.4,1-1.1,1.6-2.1,1.6s-2-.8-2-2,1.1-2.9,2.4-2.9.9.1,1.2.3c.6.4.8,1.3.6,2.3h-3.5ZM369.2,353.3h2.7c0-.9-.3-1.5-1.1-1.5s-1.4.6-1.6,1.5Z"/>
    <path class="st2" d="M373.8,353.8c0,0,0,.2,0,.3,0,.8.4,1.4,1.3,1.4s1.1-.4,1.3-1h.7c-.4,1-1.1,1.6-2.1,1.6s-2-.8-2-2,1.1-2.9,2.4-2.9.9.1,1.2.3c.6.4.8,1.3.6,2.3h-3.5ZM373.9,353.3h2.7c0-.9-.3-1.5-1.1-1.5s-1.4.6-1.6,1.5Z"/>
    <path class="st2" d="M378.9,349.5h.7l-1.3,6.4h-.7l1.3-6.4Z"/>
    <path class="st2" d="M379.3,354.5h.7c0,.7.5,1.1,1.3,1.1s1.1-.2,1.1-.8-.3-.5-1.1-.8c-.8-.3-1.4-.6-1.4-1.4s.7-1.3,1.6-1.3,1.7.4,1.8,1.5h-.7c0-.6-.5-.9-1.1-.9s-.9.1-.9.7.3.5,1.1.8c.8.3,1.4.6,1.4,1.4s-.9,1.5-1.8,1.5-2-.5-2-1.6Z"/>
    <path class="st2" d="M386.3,349.5h.7l-1.3,6.4h-.7l1.3-6.4Z"/>
    <path class="st2" d="M387.7,351.3h.7l-.9,4.7h-.7l.9-4.7ZM388.1,349.5h.7l-.2.9h-.7l.2-.9Z"/>
    <path class="st2" d="M391,353l1.3,2.9h-.8l-1.1-2.5-.8.7-.3,1.7h-.7l1.3-6.4h.7l-.8,3.9,2.2-2.1h1l-2,1.7Z"/>
    <path class="st2" d="M393.4,353.8c0,0,0,.2,0,.3,0,.8.4,1.4,1.3,1.4s1.1-.4,1.3-1h.7c-.4,1-1.1,1.6-2.1,1.6s-2-.8-2-2,1.1-2.9,2.4-2.9.9.1,1.2.3c.6.4.8,1.3.6,2.3h-3.5ZM393.5,353.3h2.7c0-.9-.3-1.5-1.1-1.5s-1.4.6-1.6,1.5Z"/>
    <path class="st2" d="M401.6,355.4h0c-.3.4-.8.7-1.5.7s-1.5-.6-1.5-1.3c0-1.2.9-1.4,1.9-1.5,1.3,0,1.6-.2,1.6-.8s-.5-.7-1-.7c-.8,0-1.2.3-1.3.9h-.7c.2-.9.9-1.5,2.1-1.5s1.8.4,1.5,1.6l-.4,2.2c0,.3,0,.6.4.5h0v.5c-.2,0-.3,0-.5,0-.5,0-.6-.3-.7-.6ZM400.2,355.5c.9,0,1.4-.6,1.5-1.3v-.6c-.2.2-.5.2-1.3.3-.4,0-1.1,0-1.1.9s.3.8.9.8Z"/>
    <path class="st2" d="M338.7,365c0-1.4.9-3,2.5-3s1.1.3,1.4.8h0l.5-2.5h.7l-1.3,6.4h-.7v-.5c0,0,0,0,0,0-.4.4-.8.6-1.4.6-1.1,0-1.8-.7-1.8-1.9ZM340.6,366.3c1.2,0,1.7-1.3,1.7-2.4s-.4-1.3-1.2-1.3c-1.2,0-1.7,1.3-1.7,2.3s.3,1.4,1.1,1.4Z"/>
    <path class="st2" d="M344.4,364.6c0,0,0,.2,0,.3,0,.8.4,1.4,1.3,1.4s1.1-.4,1.3-1h.7c-.4,1-1.1,1.6-2.1,1.6s-2-.8-2-2,1.1-2.9,2.4-2.9.9.1,1.2.3c.6.4.8,1.3.6,2.3h-3.5ZM344.5,364.1h2.7c0-.9-.3-1.5-1.1-1.5s-1.4.6-1.6,1.5Z"/>
    <path class="st2" d="M348.1,365.3h.7c0,.7.5,1.1,1.3,1.1s1.1-.2,1.1-.8-.3-.5-1.1-.8c-.8-.3-1.4-.6-1.4-1.4s.7-1.3,1.6-1.3,1.7.4,1.8,1.5h-.7c0-.6-.5-.9-1.1-.9s-.9.1-.9.7.3.5,1.1.8c.8.3,1.4.6,1.4,1.4s-.9,1.4-1.8,1.4-2-.5-2-1.6Z"/>
    <path class="st2" d="M352.5,364.9c0-1.5,1-2.9,2.5-2.9s1.7.6,1.8,1.6h-.7c0-.6-.4-1-1.1-1-1.1,0-1.7,1.2-1.7,2.3s.3,1.4,1.2,1.4,1.2-.4,1.4-1.2h.7c-.3,1.1-1.1,1.8-2.1,1.8s-2-.7-2-2Z"/>
    <path class="st2" d="M357.8,364.6c0,0,0,.2,0,.3,0,.8.4,1.4,1.3,1.4s1.1-.4,1.3-1h.7c-.4,1-1.1,1.6-2.1,1.6s-2-.8-2-2,1.1-2.9,2.4-2.9.9.1,1.2.3c.6.4.8,1.3.6,2.3h-3.5ZM357.9,364.1h2.7c0-.9-.3-1.5-1.1-1.5s-1.4.6-1.6,1.5Z"/>
    <path class="st2" d="M363.1,362.8h0c.4-.5,1-.8,1.7-.8s1.3.6,1.1,1.5l-.6,3.3h-.7l.6-3.3c.1-.6,0-.9-.6-.9-.9,0-1.7.7-1.8,1.5l-.5,2.6h-.7l.9-4.7h.7v.7Z"/>
    <path class="st2" d="M366.5,365c0-1.4.9-3,2.5-3s1.1.3,1.4.8h0l.5-2.5h.7l-1.3,6.4h-.7v-.5c.1,0,0,0,0,0-.4.4-.8.6-1.4.6-1.1,0-1.8-.7-1.8-1.9ZM368.3,366.3c1.2,0,1.7-1.3,1.7-2.4s-.4-1.3-1.2-1.3c-1.2,0-1.7,1.3-1.7,2.3s.3,1.4,1.1,1.4Z"/>
    <path class="st2" d="M372.2,362.1h.7l-.9,4.7h-.7l.9-4.7ZM372.5,360.3h.7l-.2.9h-.7l.2-.9Z"/>
    <path class="st2" d="M374.5,362.8h0c.4-.5,1-.8,1.7-.8s1.3.6,1.1,1.5l-.6,3.3h-.7l.6-3.3c.1-.6,0-.9-.6-.9-.9,0-1.7.7-1.8,1.5l-.5,2.6h-.7l.9-4.7h.7v.7Z"/>
    <path class="st2" d="M377.7,367h.7c0,.6.5.7,1.1.7s1.2-.4,1.3-1v-.7c.1,0,.1,0,.1,0-.4.4-.8.6-1.4.6-1,0-1.7-.7-1.7-1.9s.8-2.7,2.4-2.7,1.1.3,1.3.8h0v-.7h.9l-.9,4.7c-.2.9-.9,1.5-2,1.5s-1.8-.3-1.8-1.3ZM379.7,366c1.1,0,1.7-1.1,1.7-2.1s-.4-1.3-1.2-1.3-1.6,1.1-1.6,2.1.3,1.3,1.1,1.3Z"/>
    <path class="st2" d="M384.8,364.6c0,0,0,.2,0,.3,0,.8.4,1.4,1.3,1.4s1.1-.4,1.3-1h.7c-.4,1-1.1,1.6-2.1,1.6s-2-.8-2-2,1.1-2.9,2.4-2.9.9.1,1.2.3c.6.4.8,1.3.6,2.3h-3.5ZM384.9,364.1h2.7c0-.9-.3-1.5-1.1-1.5s-1.4.6-1.6,1.5Z"/>
    <path class="st2" d="M388.8,364.9c0-1.5,1-2.9,2.5-2.9s1.7.6,1.8,1.6h-.7c0-.6-.4-1-1.1-1-1.1,0-1.7,1.2-1.7,2.3s.3,1.4,1.2,1.4,1.2-.4,1.4-1.2h.7c-.3,1.1-1.1,1.8-2.1,1.8s-2-.7-2-2Z"/>
    <path class="st2" d="M394.7,362.9h0c.4-.5,1-.8,1.7-.8s1.3.6,1.1,1.5l-.6,3.3h-.7l.6-3.3c.1-.6,0-.9-.6-.9-.9,0-1.7.7-1.8,1.5l-.5,2.6h-.7l1.3-6.4h.7l-.5,2.5Z"/>
    <path class="st2" d="M398,364.9c0-1.5.9-2.9,2.5-2.9s2,.8,2,2.1-.9,2.8-2.5,2.8-2-.7-2-2ZM400.1,366.3c1.1,0,1.7-1.1,1.7-2.2s-.4-1.5-1.3-1.5-1.7,1.1-1.7,2.3.4,1.4,1.3,1.4Z"/>
    <path class="st2" d="M404.6,362.1h.8l.3,2.8c0,.4,0,1.1,0,1.1h0s.2-.6.4-1l1.3-2.9h.8l.3,2.9c0,.4,0,1,0,1h0s.2-.6.4-1l1.4-2.8h.8l-2.3,4.7h-.7l-.3-2.8c0-.4,0-1,0-1h0s-.2.6-.4,1l-1.2,2.8h-.8l-.6-4.7Z"/>
    <path class="st2" d="M412.1,362.9h0c.4-.5,1-.8,1.7-.8s1.3.6,1.1,1.5l-.6,3.3h-.7l.6-3.3c.1-.6,0-.9-.6-.9-.9,0-1.7.7-1.8,1.5l-.5,2.6h-.7l1.3-6.4h.7l-.5,2.5Z"/>
    <path class="st2" d="M416.2,364.6c0,0,0,.2,0,.3,0,.8.4,1.4,1.3,1.4s1.1-.4,1.3-1h.7c-.4,1-1.1,1.6-2.1,1.6s-2-.8-2-2,1.1-2.9,2.4-2.9.9.1,1.2.3c.6.4.8,1.3.6,2.3h-3.5ZM416.3,364.1h2.7c0-.9-.3-1.5-1.1-1.5s-1.4.6-1.6,1.5Z"/>
    <path class="st2" d="M421.5,362.8h0c.4-.5,1-.8,1.7-.8s1.3.6,1.1,1.5l-.6,3.3h-.7l.6-3.3c.1-.6,0-.9-.6-.9-.9,0-1.7.7-1.8,1.5l-.5,2.6h-.7l.9-4.7h.7v.7Z"/>
    <path class="st2" d="M338.5,376.1h.7c0,.7.5,1.1,1.3,1.1s1.1-.2,1.1-.8-.3-.5-1.1-.8c-.8-.3-1.4-.6-1.4-1.4s.7-1.3,1.6-1.3,1.7.4,1.8,1.5h-.7c0-.6-.5-.9-1.1-.9s-.9.1-.9.7.3.5,1.1.8c.8.3,1.4.6,1.4,1.4s-.9,1.4-1.8,1.4-2-.5-2-1.6Z"/>
    <path class="st2" d="M343.7,372.9h.7v.6c-.1,0-.1,0-.1,0,.4-.5.9-.7,1.5-.7,1,0,1.7.8,1.7,1.9s-.8,3-2.4,3-1.2-.3-1.5-.8h0l-.4,2.2h-.7l1.2-6.1ZM345.1,377.1c1.2,0,1.7-1.3,1.7-2.3s-.3-1.4-1.1-1.4-1.8,1.2-1.8,2.3c0,.8.4,1.4,1.2,1.4Z"/>
    <path class="st2" d="M347.9,375.7c0-1.5.9-2.9,2.5-2.9s2,.8,2,2.1-.9,2.8-2.5,2.8-2-.7-2-2ZM349.9,377.1c1.1,0,1.7-1.1,1.7-2.2s-.4-1.5-1.3-1.5-1.7,1.1-1.7,2.3.4,1.4,1.3,1.4Z"/>
    <path class="st2" d="M355,374.6l1.3,2.9h-.8l-1.1-2.5-.8.7-.3,1.7h-.7l1.3-6.4h.7l-.8,3.9,2.2-2.1h1l-2,1.7Z"/>
    <path class="st2" d="M357.5,375.4c0,0,0,.2,0,.3,0,.8.4,1.4,1.3,1.4s1.1-.4,1.3-1h.7c-.4,1-1.1,1.6-2.1,1.6s-2-.8-2-2,1.1-2.9,2.4-2.9.9.1,1.2.3c.6.4.8,1.3.6,2.3h-3.5ZM357.5,374.9h2.7c0-.9-.3-1.5-1.1-1.5s-1.4.6-1.6,1.5Z"/>
    <path class="st2" d="M362.7,373.6h0c.4-.5,1-.8,1.7-.8s1.3.6,1.1,1.5l-.6,3.3h-.7l.6-3.3c.1-.6,0-.9-.6-.9-.9,0-1.7.7-1.8,1.5l-.5,2.6h-.7l.9-4.7h.7v.7Z"/>
    <path class="st2" d="M365.7,378.3c.2,0,.5-.2.6-.7h-.4l.2-.9h.9l-.2,1c-.1.7-.5,1-1.1,1.1v-.4Z"/>
    <path class="st2" d="M370.3,371.1h.7l-1.3,6.4h-.7l1.3-6.4Z"/>
    <path class="st2" d="M371.7,372.9h.7l-.9,4.7h-.7l.9-4.7ZM372,371.1h.7l-.2.9h-.7l.2-.9Z"/>
    <path class="st2" d="M375,374.6l1.3,2.9h-.8l-1.1-2.5-.8.7-.3,1.7h-.7l1.3-6.4h.7l-.8,3.9,2.2-2.1h1l-2,1.7Z"/>
    <path class="st2" d="M377.4,375.4c0,0,0,.2,0,.3,0,.8.4,1.4,1.3,1.4s1.1-.4,1.3-1h.7c-.4,1-1.1,1.6-2.1,1.6s-2-.8-2-2,1.1-2.9,2.4-2.9.9.1,1.2.3c.6.4.8,1.3.6,2.3h-3.5ZM377.5,374.9h2.7c0-.9-.3-1.5-1.1-1.5s-1.4.6-1.6,1.5Z"/>
    <path class="st2" d="M383.6,372c.1-.6.5-.8.9-.9v.3c-.3,0-.5.2-.5.6h.4l-.2.9h-.8l.2-1ZM384.9,372c.1-.6.5-.8.9-.9v.3c-.3,0-.5.2-.5.6h.4l-.2.9h-.8l.2-1Z"/>
    <path class="st2" d="M386.1,375.4c0,0,0,.2,0,.3,0,.8.4,1.4,1.3,1.4s1.1-.4,1.3-1h.7c-.4,1-1.1,1.6-2.1,1.6s-2-.8-2-2,1.1-2.9,2.4-2.9.9.1,1.2.3c.6.4.8,1.3.6,2.3h-3.5ZM386.2,374.9h2.7c0-.9-.3-1.5-1.1-1.5s-1.4.6-1.6,1.5Z"/>
    <path class="st2" d="M391.1,372.1c-.1.6-.5.8-.9.9v-.3c.3,0,.5-.2.5-.6h-.4l.2-.9h.8l-.2,1ZM392.5,372.1c-.1.6-.5.8-.9.9v-.3c.3,0,.5-.2.5-.6h-.4l.2-.9h.8l-.2,1Z"/>
    <path class="st2" d="M394.6,372.9h.7l-.9,4.7h-.7l.9-4.7ZM395,371.1h.7l-.2.9h-.7l.2-.9Z"/>
    <path class="st2" d="M396.9,373.6h0c.4-.5,1-.8,1.7-.8s1.3.6,1.1,1.5l-.6,3.3h-.7l.6-3.3c.1-.6,0-.9-.6-.9-.9,0-1.7.7-1.8,1.5l-.5,2.6h-.7l.9-4.7h.7v.7Z"/>
    <path class="st2" d="M402.5,372c.1-.6.5-.8.9-.9v.3c-.3,0-.5.2-.5.6h.4l-.2.9h-.8l.2-1ZM403.9,372c.1-.6.5-.8.9-.9v.3c-.3,0-.5.2-.5.6h.4l-.2.9h-.8l.2-1Z"/>
    <path class="st2" d="M406.9,374.6l1.3,2.9h-.8l-1.1-2.5-.8.7-.3,1.7h-.7l1.3-6.4h.7l-.8,3.9,2.2-2.1h1l-2,1.7Z"/>
    <path class="st2" d="M409.3,375.4c0,0,0,.2,0,.3,0,.8.4,1.4,1.3,1.4s1.1-.4,1.3-1h.7c-.4,1-1.1,1.6-2.1,1.6s-2-.8-2-2,1.1-2.9,2.4-2.9.9.1,1.2.3c.6.4.8,1.3.6,2.3h-3.5ZM409.4,374.9h2.7c0-.9-.3-1.5-1.1-1.5s-1.4.6-1.6,1.5Z"/>
    <path class="st2" d="M413.5,372.9h.7l.3-1.5h.7l-.3,1.5h.9v.6h-1l-.6,3c0,.4,0,.5.4.5s.3,0,.4,0h0v.6c-.3,0-.4,0-.6,0-.7,0-1.1-.4-.9-1.2l.6-2.9h-.7v-.6Z"/>
    <path class="st2" d="M416.2,372.9h.7l.3-1.5h.7l-.3,1.5h.9v.6h-1l-.6,3c0,.4,0,.5.4.5s.3,0,.4,0h0v.6c-.3,0-.4,0-.6,0-.7,0-1.1-.4-.9-1.2l.6-2.9h-.7v-.6Z"/>
    <path class="st2" d="M419.5,371.1h.7l-1.3,6.4h-.7l1.3-6.4Z"/>
    <path class="st2" d="M420.9,375.4c0,0,0,.2,0,.3,0,.8.4,1.4,1.3,1.4s1.1-.4,1.3-1h.7c-.4,1-1.1,1.6-2.1,1.6s-2-.8-2-2,1.1-2.9,2.4-2.9.9.1,1.2.3c.6.4.8,1.3.6,2.3h-3.5ZM421,374.9h2.7c0-.9-.3-1.5-1.1-1.5s-1.4.6-1.6,1.5Z"/>
    <path class="st2" d="M425.9,372.1c-.1.6-.5.8-.9.9v-.3c.3,0,.5-.2.5-.6h-.4l.2-.9h.8l-.2,1ZM427.3,372.1c-.1.6-.5.8-.9.9v-.3c.3,0,.5-.2.5-.6h-.4l.2-.9h.8l-.2,1Z"/>
    <path class="st2" d="M427.2,376.7h.9l-.2.9h-.9l.2-.9Z"/>
  </g>
  <g>
    <path class="st2" d="M523.1,349.5h4.9v.7h-2.2l-1.1,5.7h-.8l1.1-5.7h-2v-.7Z"/>
    <path class="st2" d="M528.9,352.1h0c.4-.5,1-.8,1.7-.8s1.3.6,1.1,1.5l-.6,3.3h-.7l.6-3.3c.1-.6,0-.9-.6-.9-.9,0-1.6.7-1.8,1.5l-.5,2.6h-.7l1.2-6.4h.7l-.5,2.5Z"/>
    <path class="st2" d="M533,353.8c0,0,0,.2,0,.3,0,.8.4,1.4,1.3,1.4s1.1-.4,1.3-1h.7c-.4,1-1.1,1.6-2.1,1.6s-1.9-.8-1.9-2,1.1-2.9,2.4-2.9.9.1,1.2.3c.6.4.8,1.3.6,2.3h-3.5ZM533.1,353.3h2.7c0-.9-.3-1.5-1.1-1.5s-1.4.6-1.6,1.5Z"/>
    <path class="st2" d="M539.1,350.4c.1-.6.5-.8.9-.9v.3c-.3,0-.5.2-.5.6h.4l-.2.9h-.8l.2-1ZM540.5,350.4c.1-.6.5-.8.9-.9v.3c-.3,0-.5.2-.5.6h.4l-.2.9h-.8l.2-1Z"/>
    <path class="st2" d="M542,351.3h.7l-.9,4.7h-.7l.9-4.7ZM542.3,349.5h.7l-.2.9h-.7l.2-.9Z"/>
    <path class="st2" d="M544.5,350.5c-.1.6-.5.8-.9.9v-.3c.3,0,.5-.2.5-.6h-.4l.2-.9h.8l-.2,1ZM545.9,350.5c-.1.6-.5.8-.9.9v-.3c.3,0,.5-.2.5-.6h-.4l.2-.9h.8l-.2,1Z"/>
    <path class="st2" d="M547.7,351.3h.6v-.7c.3-.8.7-1.1,1.5-1.1s.3,0,.4,0v.6c-.2,0-.3,0-.4,0-.5,0-.6.2-.6.5v.7c-.1,0,.7,0,.7,0v.6h-1l-.8,4.1h-.7l.8-4.1h-.6v-.6Z"/>
    <path class="st2" d="M550.6,353.8c0,0,0,.2,0,.3,0,.8.4,1.4,1.3,1.4s1.1-.4,1.3-1h.7c-.4,1-1.1,1.6-2.1,1.6s-1.9-.8-1.9-2,1.1-2.9,2.4-2.9.9.1,1.2.3c.6.4.8,1.3.6,2.3h-3.5ZM550.7,353.3h2.7c0-.9-.3-1.5-1.1-1.5s-1.4.6-1.6,1.5Z"/>
    <path class="st2" d="M555.3,353.8c0,0,0,.2,0,.3,0,.8.4,1.4,1.3,1.4s1.1-.4,1.3-1h.7c-.4,1-1.1,1.6-2.1,1.6s-1.9-.8-1.9-2,1.1-2.9,2.4-2.9.9.1,1.2.3c.6.4.8,1.3.6,2.3h-3.5ZM555.3,353.3h2.7c0-.9-.3-1.5-1.1-1.5s-1.4.6-1.6,1.5Z"/>
    <path class="st2" d="M560.3,349.5h.7l-1.2,6.4h-.7l1.2-6.4Z"/>
    <path class="st2" d="M560.8,354.5h.7c0,.7.5,1.1,1.3,1.1s1.1-.2,1.1-.8-.3-.5-1.1-.8c-.8-.3-1.4-.6-1.4-1.4s.7-1.3,1.6-1.3,1.7.4,1.8,1.5h-.7c0-.6-.5-.9-1.1-.9s-.9.1-.9.7.3.5,1.1.8c.8.3,1.4.6,1.4,1.4s-.9,1.5-1.8,1.5-1.9-.5-1.9-1.6Z"/>
    <path class="st2" d="M567.7,349.5h.7l-1.2,6.4h-.7l1.2-6.4Z"/>
    <path class="st2" d="M569.2,351.3h.7l-.9,4.7h-.7l.9-4.7ZM569.5,349.5h.7l-.2.9h-.7l.2-.9Z"/>
    <path class="st2" d="M572.4,353l1.3,2.9h-.8l-1-2.5-.8.7-.3,1.7h-.7l1.2-6.4h.7l-.7,3.9,2.2-2.1h.9l-1.9,1.7Z"/>
    <path class="st2" d="M574.9,353.8c0,0,0,.2,0,.3,0,.8.4,1.4,1.3,1.4s1.1-.4,1.3-1h.7c-.4,1-1.1,1.6-2.1,1.6s-1.9-.8-1.9-2,1.1-2.9,2.4-2.9.9.1,1.2.3c.6.4.8,1.3.6,2.3h-3.5ZM575,353.3h2.7c0-.9-.3-1.5-1.1-1.5s-1.4.6-1.6,1.5Z"/>
    <path class="st2" d="M583,355.4h0c-.3.4-.8.7-1.5.7s-1.4-.6-1.4-1.3c0-1.2.9-1.4,1.8-1.5,1.3,0,1.6-.2,1.6-.8s-.5-.7-1-.7c-.8,0-1.2.3-1.3.9h-.7c.2-.9.9-1.5,2.1-1.5s1.7.4,1.5,1.6l-.4,2.2c0,.3,0,.6.4.5h0v.5c-.2,0-.3,0-.5,0-.5,0-.6-.3-.6-.6ZM581.7,355.5c.9,0,1.4-.6,1.5-1.3v-.6c-.2.2-.5.2-1.3.3-.4,0-1.1,0-1.1.9s.3.8.9.8Z"/>
    <path class="st2" d="M586.1,352h0c.4-.5,1-.8,1.7-.8s1.3.6,1.1,1.5l-.6,3.3h-.7l.6-3.3c.1-.6,0-.9-.6-.9-.9,0-1.6.7-1.8,1.5l-.5,2.6h-.7l.9-4.7h.7v.7Z"/>
    <path class="st2" d="M525.1,366.2h0c-.3.4-.8.7-1.5.7s-1.4-.6-1.4-1.3c0-1.2.9-1.4,1.8-1.5,1.3,0,1.6-.2,1.6-.8s-.5-.7-1-.7c-.8,0-1.2.3-1.3.9h-.7c.2-.9.9-1.5,2.1-1.5s1.7.4,1.5,1.6l-.4,2.2c0,.3,0,.6.4.5h0v.5c-.2,0-.3,0-.5,0-.5,0-.6-.3-.6-.6ZM523.8,366.3c.9,0,1.4-.6,1.5-1.3v-.6c-.2.2-.5.2-1.3.3-.4,0-1.1,0-1.1.9s.3.8.9.8Z"/>
    <path class="st2" d="M526.6,365.3h.7c0,.7.5,1.1,1.3,1.1s1.1-.2,1.1-.8-.3-.5-1.1-.8c-.8-.3-1.4-.6-1.4-1.4s.7-1.3,1.6-1.3,1.7.4,1.8,1.5h-.7c0-.6-.5-.9-1.1-.9s-.9.1-.9.7.3.5,1.1.8c.8.3,1.4.6,1.4,1.4s-.9,1.4-1.8,1.4-1.9-.5-1.9-1.6Z"/>
    <path class="st2" d="M531,364.9c0-1.5,1-2.9,2.5-2.9s1.6.6,1.7,1.6h-.7c0-.6-.4-1-1-1-1.1,0-1.7,1.2-1.7,2.3s.3,1.4,1.2,1.4,1.2-.4,1.4-1.2h.7c-.3,1.1-1.1,1.8-2.1,1.8s-1.9-.7-1.9-2Z"/>
    <path class="st2" d="M536.4,364.6c0,0,0,.2,0,.3,0,.8.4,1.4,1.3,1.4s1.1-.4,1.3-1h.7c-.4,1-1.1,1.6-2.1,1.6s-1.9-.8-1.9-2,1.1-2.9,2.4-2.9.9.1,1.2.3c.6.4.8,1.3.6,2.3h-3.5ZM536.4,364.1h2.7c0-.9-.3-1.5-1.1-1.5s-1.4.6-1.6,1.5Z"/>
    <path class="st2" d="M541.6,362.8h0c.4-.5,1-.8,1.7-.8s1.3.6,1.1,1.5l-.6,3.3h-.7l.6-3.3c.1-.6,0-.9-.6-.9-.9,0-1.6.7-1.8,1.5l-.5,2.6h-.7l.9-4.7h.7v.7Z"/>
    <path class="st2" d="M545,365c0-1.4.8-3,2.4-3s1.1.3,1.4.8h0l.5-2.5h.7l-1.2,6.4h-.7v-.5c0,0,0,0,0,0-.4.4-.8.6-1.4.6-1.1,0-1.8-.7-1.8-1.9ZM546.9,366.3c1.2,0,1.7-1.3,1.7-2.4s-.4-1.3-1.2-1.3c-1.1,0-1.7,1.3-1.7,2.3s.3,1.4,1.1,1.4Z"/>
    <path class="st2" d="M550.7,362.1h.7l-.9,4.7h-.7l.9-4.7ZM551.1,360.3h.7l-.2.9h-.7l.2-.9Z"/>
    <path class="st2" d="M553,362.8h0c.4-.5,1-.8,1.7-.8s1.3.6,1.1,1.5l-.6,3.3h-.7l.6-3.3c.1-.6,0-.9-.6-.9-.9,0-1.6.7-1.8,1.5l-.5,2.6h-.7l.9-4.7h.7v.7Z"/>
    <path class="st2" d="M556.3,367h.7c0,.6.5.7,1,.7s1.2-.4,1.3-1v-.7c.1,0,.1,0,.1,0-.4.4-.8.6-1.3.6-1,0-1.7-.7-1.7-1.9s.8-2.7,2.3-2.7,1.1.3,1.3.8h0v-.7h.8l-.9,4.7c-.2.9-.9,1.5-2,1.5s-1.7-.3-1.8-1.3ZM558.3,366c1.1,0,1.6-1.1,1.6-2.1s-.4-1.3-1.2-1.3-1.6,1.1-1.6,2.1.3,1.3,1.1,1.3Z"/>
    <path class="st2" d="M563.1,362.1h.7l.3-1.5h.7l-.3,1.5h.9v.6h-1l-.6,3c0,.4,0,.5.4.5s.3,0,.4,0h0v.6c-.3,0-.4,0-.6,0-.7,0-1.1-.4-.9-1.2l.6-2.9h-.7v-.6Z"/>
    <path class="st2" d="M565.4,364.9c0-1.5.9-2.9,2.5-2.9s2,.8,2,2.1-.9,2.8-2.4,2.8-2-.7-2-2ZM567.4,366.3c1.1,0,1.7-1.1,1.7-2.2s-.4-1.5-1.2-1.5-1.7,1.1-1.7,2.3.4,1.4,1.3,1.4Z"/>
    <path class="st2" d="M571.6,362.8h0c.4-.5,1-.8,1.7-.8s1.3.6,1.1,1.5l-.6,3.3h-.7l.6-3.3c.1-.6,0-.9-.6-.9-.9,0-1.6.7-1.8,1.5l-.5,2.6h-.7l.9-4.7h.7v.7Z"/>
    <path class="st2" d="M575.7,364.6c0,0,0,.2,0,.3,0,.8.4,1.4,1.3,1.4s1.1-.4,1.3-1h.7c-.4,1-1.1,1.6-2.1,1.6s-1.9-.8-1.9-2,1.1-2.9,2.4-2.9.9.1,1.2.3c.6.4.8,1.3.6,2.3h-3.5ZM575.8,364.1h2.7c0-.9-.3-1.5-1.1-1.5s-1.4.6-1.6,1.5Z"/>
    <path class="st2" d="M581.3,362.1h.8l.3,2.8c0,.4,0,1.1,0,1.1h0s.2-.6.4-1l1.3-2.9h.7l.3,2.9c0,.4,0,1,0,1h0s.2-.6.4-1l1.3-2.8h.8l-2.3,4.7h-.7l-.3-2.8c0-.4,0-1,0-1h0s-.2.6-.4,1l-1.2,2.8h-.7l-.6-4.7Z"/>
    <path class="st2" d="M588.8,362.9h0c.4-.5,1-.8,1.7-.8s1.3.6,1.1,1.5l-.6,3.3h-.7l.6-3.3c.1-.6,0-.9-.6-.9-.9,0-1.6.7-1.8,1.5l-.5,2.6h-.7l1.2-6.4h.7l-.5,2.5Z"/>
    <path class="st2" d="M592.9,364.6c0,0,0,.2,0,.3,0,.8.4,1.4,1.3,1.4s1.1-.4,1.3-1h.7c-.4,1-1.1,1.6-2.1,1.6s-1.9-.8-1.9-2,1.1-2.9,2.4-2.9.9.1,1.2.3c.6.4.8,1.3.6,2.3h-3.5ZM593,364.1h2.7c0-.9-.3-1.5-1.1-1.5s-1.4.6-1.6,1.5Z"/>
    <path class="st2" d="M598.2,362.8h0c.4-.5,1-.8,1.7-.8s1.3.6,1.1,1.5l-.6,3.3h-.7l.6-3.3c.1-.6,0-.9-.6-.9-.9,0-1.6.7-1.8,1.5l-.5,2.6h-.7l.9-4.7h.7v.7Z"/>
    <path class="st2" d="M522.1,376.1h.7c0,.7.5,1.1,1.3,1.1s1.1-.2,1.1-.8-.3-.5-1.1-.8c-.8-.3-1.4-.6-1.4-1.4s.7-1.3,1.6-1.3,1.7.4,1.8,1.5h-.7c0-.6-.5-.9-1.1-.9s-.9.1-.9.7.3.5,1.1.8c.8.3,1.4.6,1.4,1.4s-.9,1.4-1.8,1.4-1.9-.5-1.9-1.6Z"/>
    <path class="st2" d="M527.3,372.9h.7v.6c-.1,0-.1,0-.1,0,.4-.5.9-.7,1.5-.7,1,0,1.6.8,1.6,1.9s-.8,3-2.3,3-1.2-.3-1.4-.8h0l-.4,2.2h-.7l1.2-6.1ZM528.7,377.1c1.2,0,1.6-1.3,1.6-2.3s-.3-1.4-1.1-1.4-1.7,1.2-1.7,2.3c0,.8.4,1.4,1.2,1.4Z"/>
    <path class="st2" d="M531.6,375.7c0-1.5.9-2.9,2.5-2.9s2,.8,2,2.1-.9,2.8-2.4,2.8-2-.7-2-2ZM533.6,377.1c1.1,0,1.7-1.1,1.7-2.2s-.4-1.5-1.2-1.5-1.7,1.1-1.7,2.3.4,1.4,1.3,1.4Z"/>
    <path class="st2" d="M538.7,374.6l1.3,2.9h-.8l-1-2.5-.8.7-.3,1.7h-.7l1.2-6.4h.7l-.7,3.9,2.2-2.1h.9l-1.9,1.7Z"/>
    <path class="st2" d="M541.2,375.4c0,0,0,.2,0,.3,0,.8.4,1.4,1.3,1.4s1.1-.4,1.3-1h.7c-.4,1-1.1,1.6-2.1,1.6s-1.9-.8-1.9-2,1.1-2.9,2.4-2.9.9.1,1.2.3c.6.4.8,1.3.6,2.3h-3.5ZM541.2,374.9h2.7c0-.9-.3-1.5-1.1-1.5s-1.4.6-1.6,1.5Z"/>
    <path class="st2" d="M546.4,373.6h0c.4-.5,1-.8,1.7-.8s1.3.6,1.1,1.5l-.6,3.3h-.7l.6-3.3c.1-.6,0-.9-.6-.9-.9,0-1.6.7-1.8,1.5l-.5,2.6h-.7l.9-4.7h.7v.7Z"/>
    <path class="st2" d="M549.4,378.3c.2,0,.5-.2.6-.7h-.4l.2-.9h.9l-.2,1c-.1.7-.5,1-1.1,1.1v-.4Z"/>
    <path class="st2" d="M554,371.1h.7l-1.2,6.4h-.7l1.2-6.4Z"/>
    <path class="st2" d="M555.4,372.9h.7l-.9,4.7h-.7l.9-4.7ZM555.8,371.1h.7l-.2.9h-.7l.2-.9Z"/>
    <path class="st2" d="M558.7,374.6l1.3,2.9h-.8l-1-2.5-.8.7-.3,1.7h-.7l1.2-6.4h.7l-.7,3.9,2.2-2.1h.9l-1.9,1.7Z"/>
    <path class="st2" d="M561.2,375.4c0,0,0,.2,0,.3,0,.8.4,1.4,1.3,1.4s1.1-.4,1.3-1h.7c-.4,1-1.1,1.6-2.1,1.6s-1.9-.8-1.9-2,1.1-2.9,2.4-2.9.9.1,1.2.3c.6.4.8,1.3.6,2.3h-3.5ZM561.2,374.9h2.7c0-.9-.3-1.5-1.1-1.5s-1.4.6-1.6,1.5Z"/>
    <path class="st2" d="M567.3,372c.1-.6.5-.8.9-.9v.3c-.3,0-.5.2-.5.6h.4l-.2.9h-.8l.2-1ZM568.6,372c.1-.6.5-.8.9-.9v.3c-.3,0-.5.2-.5.6h.4l-.2.9h-.8l.2-1Z"/>
    <path class="st2" d="M569.9,375.4c0,0,0,.2,0,.3,0,.8.4,1.4,1.3,1.4s1.1-.4,1.3-1h.7c-.4,1-1.1,1.6-2.1,1.6s-1.9-.8-1.9-2,1.1-2.9,2.4-2.9.9.1,1.2.3c.6.4.8,1.3.6,2.3h-3.5ZM569.9,374.9h2.7c0-.9-.3-1.5-1.1-1.5s-1.4.6-1.6,1.5Z"/>
    <path class="st2" d="M574.5,375.4c0,0,0,.2,0,.3,0,.8.4,1.4,1.3,1.4s1.1-.4,1.3-1h.7c-.4,1-1.1,1.6-2.1,1.6s-1.9-.8-1.9-2,1.1-2.9,2.4-2.9.9.1,1.2.3c.6.4.8,1.3.6,2.3h-3.5ZM574.6,374.9h2.7c0-.9-.3-1.5-1.1-1.5s-1.4.6-1.6,1.5Z"/>
    <path class="st2" d="M579.6,372.1c-.1.6-.5.8-.9.9v-.3c.3,0,.5-.2.5-.6h-.4l.2-.9h.8l-.2,1ZM580.9,372.1c-.1.6-.5.8-.9.9v-.3c.3,0,.5-.2.5-.6h-.4l.2-.9h.8l-.2,1Z"/>
    <path class="st2" d="M583,372.9h.7l-.9,4.7h-.7l.9-4.7ZM583.4,371.1h.7l-.2.9h-.7l.2-.9Z"/>
    <path class="st2" d="M585.4,373.6h0c.4-.5,1-.8,1.7-.8s1.3.6,1.1,1.5l-.6,3.3h-.7l.6-3.3c.1-.6,0-.9-.6-.9-.9,0-1.6.7-1.8,1.5l-.5,2.6h-.7l.9-4.7h.7v.7Z"/>
    <path class="st2" d="M590.9,372c.1-.6.5-.8.9-.9v.3c-.3,0-.5.2-.5.6h.4l-.2.9h-.8l.2-1ZM592.3,372c.1-.6.5-.8.9-.9v.3c-.3,0-.5.2-.5.6h.4l-.2.9h-.8l.2-1Z"/>
    <path class="st2" d="M592.7,376.1h.7c0,.7.5,1.1,1.3,1.1s1.1-.2,1.1-.8-.3-.5-1.1-.8c-.8-.3-1.4-.6-1.4-1.4s.7-1.3,1.6-1.3,1.7.4,1.8,1.5h-.7c0-.6-.5-.9-1.1-.9s-.9.1-.9.7.3.5,1.1.8c.8.3,1.4.6,1.4,1.4s-.9,1.4-1.8,1.4-1.9-.5-1.9-1.6Z"/>
    <path class="st2" d="M597.9,375.4c0,0,0,.2,0,.3,0,.8.4,1.4,1.3,1.4s1.1-.4,1.3-1h.7c-.4,1-1.1,1.6-2.1,1.6s-1.9-.8-1.9-2,1.1-2.9,2.4-2.9.9.1,1.2.3c.6.4.8,1.3.6,2.3h-3.5ZM597.9,374.9h2.7c0-.9-.3-1.5-1.1-1.5s-1.4.6-1.6,1.5Z"/>
    <path class="st2" d="M602.6,375.4c0,0,0,.2,0,.3,0,.8.4,1.4,1.3,1.4s1.1-.4,1.3-1h.7c-.4,1-1.1,1.6-2.1,1.6s-1.9-.8-1.9-2,1.1-2.9,2.4-2.9.9.1,1.2.3c.6.4.8,1.3.6,2.3h-3.5ZM602.6,374.9h2.7c0-.9-.3-1.5-1.1-1.5s-1.4.6-1.6,1.5Z"/>
    <path class="st2" d="M607.6,372.1c-.1.6-.5.8-.9.9v-.3c.3,0,.5-.2.5-.6h-.4l.2-.9h.8l-.2,1ZM608.9,372.1c-.1.6-.5.8-.9.9v-.3c.3,0,.5-.2.5-.6h-.4l.2-.9h.8l-.2,1Z"/>
    <path class="st2" d="M608.9,376.7h.9l-.2.9h-.9l.2-.9Z"/>
  </g>
  <g>
    <path class="st2" d="M724,349.5h4.9v.7h-2.2l-1.1,5.7h-.8l1.1-5.7h-2v-.7Z"/>
    <path class="st2" d="M729.8,352.1h0c.4-.5,1-.8,1.7-.8s1.3.6,1.1,1.5l-.6,3.3h-.7l.6-3.3c.1-.6,0-.9-.6-.9-.9,0-1.6.7-1.8,1.5l-.5,2.6h-.7l1.2-6.4h.7l-.5,2.5Z"/>
    <path class="st2" d="M733.9,353.8c0,0,0,.2,0,.3,0,.8.4,1.4,1.3,1.4s1.1-.4,1.3-1h.7c-.4,1-1.1,1.6-2.1,1.6s-1.9-.8-1.9-2,1.1-2.9,2.4-2.9.9.1,1.2.3c.6.4.8,1.3.6,2.3h-3.5ZM734,353.3h2.7c0-.9-.3-1.5-1.1-1.5s-1.4.6-1.6,1.5Z"/>
    <path class="st2" d="M740,350.4c.1-.6.5-.8.9-.9v.3c-.3,0-.5.2-.5.6h.4l-.2.9h-.8l.2-1ZM741.3,350.4c.1-.6.5-.8.9-.9v.3c-.3,0-.5.2-.5.6h.4l-.2.9h-.8l.2-1Z"/>
    <path class="st2" d="M741.8,354.1c0-1.5.9-2.9,2.5-2.9s2,.8,2,2.1-.9,2.8-2.4,2.8-2-.7-2-2ZM743.8,355.5c1.1,0,1.7-1.1,1.7-2.2s-.4-1.5-1.2-1.5-1.7,1.1-1.7,2.3.4,1.4,1.3,1.4Z"/>
    <path class="st2" d="M747.6,350.5c-.1.6-.5.8-.9.9v-.3c.3,0,.5-.2.5-.6h-.4l.2-.9h.8l-.2,1ZM749,350.5c-.1.6-.5.8-.9.9v-.3c.3,0,.5-.2.5-.6h-.4l.2-.9h.8l-.2,1Z"/>
    <path class="st2" d="M750.8,351.3h.6v-.7c.3-.8.7-1.1,1.5-1.1s.3,0,.4,0v.6c-.2,0-.3,0-.4,0-.5,0-.6.2-.6.5v.7c-.1,0,.7,0,.7,0v.6h-1l-.8,4.1h-.7l.8-4.1h-.6v-.6Z"/>
    <path class="st2" d="M753.7,353.8c0,0,0,.2,0,.3,0,.8.4,1.4,1.3,1.4s1.1-.4,1.3-1h.7c-.4,1-1.1,1.6-2.1,1.6s-1.9-.8-1.9-2,1.1-2.9,2.4-2.9.9.1,1.2.3c.6.4.8,1.3.6,2.3h-3.5ZM753.7,353.3h2.7c0-.9-.3-1.5-1.1-1.5s-1.4.6-1.6,1.5Z"/>
    <path class="st2" d="M758.4,353.8c0,0,0,.2,0,.3,0,.8.4,1.4,1.3,1.4s1.1-.4,1.3-1h.7c-.4,1-1.1,1.6-2.1,1.6s-1.9-.8-1.9-2,1.1-2.9,2.4-2.9.9.1,1.2.3c.6.4.8,1.3.6,2.3h-3.5ZM758.4,353.3h2.7c0-.9-.3-1.5-1.1-1.5s-1.4.6-1.6,1.5Z"/>
    <path class="st2" d="M763.4,349.5h.7l-1.2,6.4h-.7l1.2-6.4Z"/>
    <path class="st2" d="M763.9,354.5h.7c0,.7.5,1.1,1.3,1.1s1.1-.2,1.1-.8-.3-.5-1.1-.8c-.8-.3-1.4-.6-1.4-1.4s.7-1.3,1.6-1.3,1.7.4,1.8,1.5h-.7c0-.6-.5-.9-1.1-.9s-.9.1-.9.7.3.5,1.1.8c.8.3,1.4.6,1.4,1.4s-.9,1.5-1.8,1.5-1.9-.5-1.9-1.6Z"/>
    <path class="st2" d="M771,352.1h0c.4-.5,1-.8,1.7-.8s1.3.6,1.1,1.5l-.6,3.3h-.7l.6-3.3c.1-.6,0-.9-.6-.9-.9,0-1.6.7-1.8,1.5l-.5,2.6h-.7l1.2-6.4h.7l-.5,2.5Z"/>
    <path class="st2" d="M777.2,355.4h0c-.3.4-.8.7-1.5.7s-1.4-.6-1.4-1.3c0-1.2.9-1.4,1.8-1.5,1.3,0,1.6-.2,1.6-.8s-.5-.7-1-.7c-.8,0-1.2.3-1.3.9h-.7c.2-.9.9-1.5,2.1-1.5s1.7.4,1.5,1.6l-.4,2.2c0,.3,0,.6.4.5h0v.5c-.2,0-.3,0-.5,0-.5,0-.6-.3-.6-.6ZM775.9,355.5c.9,0,1.4-.6,1.5-1.3v-.6c-.2.2-.5.2-1.3.3-.4,0-1.1,0-1.1.9s.3.8.9.8Z"/>
    <path class="st2" d="M780.1,349.5h.7l-1.2,6.4h-.7l1.2-6.4Z"/>
    <path class="st2" d="M781.9,349.5h.7l-1.2,6.4h-.7l1.2-6.4Z"/>
    <path class="st2" d="M782.6,354.1c0-1.5.9-2.9,2.5-2.9s2,.8,2,2.1-.9,2.8-2.4,2.8-2-.7-2-2ZM784.6,355.5c1.1,0,1.7-1.1,1.7-2.2s-.4-1.5-1.2-1.5-1.7,1.1-1.7,2.3.4,1.4,1.3,1.4Z"/>
    <path class="st2" d="M787.5,351.3h.8l.3,2.8c0,.4,0,1.1,0,1.1h0s.2-.6.4-1l1.3-2.9h.7l.3,2.9c0,.4,0,1,0,1h0s.2-.6.4-1l1.3-2.8h.8l-2.3,4.7h-.7l-.3-2.8c0-.4,0-1,0-1h0s-.2.6-.4,1l-1.2,2.8h-.7l-.6-4.7Z"/>
    <path class="st2" d="M795.3,351.3h.8l.3,2.8c0,.4,0,1.1,0,1.1h0s.2-.6.4-1l1.3-2.9h.7l.3,2.9c0,.4,0,1,0,1h0s.2-.6.4-1l1.3-2.8h.8l-2.3,4.7h-.7l-.3-2.8c0-.4,0-1,0-1h0s-.2.6-.4,1l-1.2,2.8h-.7l-.6-4.7Z"/>
    <path class="st2" d="M802.8,352.1h0c.4-.5,1-.8,1.7-.8s1.3.6,1.1,1.5l-.6,3.3h-.7l.6-3.3c.1-.6,0-.9-.6-.9-.9,0-1.6.7-1.8,1.5l-.5,2.6h-.7l1.2-6.4h.7l-.5,2.5Z"/>
    <path class="st2" d="M806.9,353.8c0,0,0,.2,0,.3,0,.8.4,1.4,1.3,1.4s1.1-.4,1.3-1h.7c-.4,1-1.1,1.6-2.1,1.6s-1.9-.8-1.9-2,1.1-2.9,2.4-2.9.9.1,1.2.3c.6.4.8,1.3.6,2.3h-3.5ZM807,353.3h2.7c0-.9-.3-1.5-1.1-1.5s-1.4.6-1.6,1.5Z"/>
    <path class="st2" d="M812.2,352h0c.4-.5,1-.8,1.7-.8s1.3.6,1.1,1.5l-.6,3.3h-.7l.6-3.3c.1-.6,0-.9-.6-.9-.9,0-1.6.7-1.8,1.5l-.5,2.6h-.7l.9-4.7h.7v.7Z"/>
    <path class="st2" d="M723,365.3h.7c0,.7.5,1.1,1.3,1.1s1.1-.2,1.1-.8-.3-.5-1.1-.8c-.8-.3-1.4-.6-1.4-1.4s.7-1.3,1.6-1.3,1.7.4,1.8,1.5h-.7c0-.6-.5-.9-1.1-.9s-.9.1-.9.7.3.5,1.1.8c.8.3,1.4.6,1.4,1.4s-.9,1.4-1.8,1.4-1.9-.5-1.9-1.6Z"/>
    <path class="st2" d="M728.2,362.1h.7v.6c-.1,0-.1,0-.1,0,.4-.5.9-.7,1.5-.7,1,0,1.6.8,1.6,1.9s-.8,3-2.3,3-1.2-.3-1.4-.8h0l-.4,2.2h-.7l1.2-6.1ZM729.6,366.3c1.2,0,1.6-1.3,1.6-2.3s-.3-1.4-1.1-1.4-1.7,1.2-1.7,2.3c0,.8.4,1.4,1.2,1.4Z"/>
    <path class="st2" d="M732.4,364.9c0-1.5.9-2.9,2.5-2.9s2,.8,2,2.1-.9,2.8-2.4,2.8-2-.7-2-2ZM734.4,366.3c1.1,0,1.7-1.1,1.7-2.2s-.4-1.5-1.2-1.5-1.7,1.1-1.7,2.3.4,1.4,1.3,1.4Z"/>
    <path class="st2" d="M739.6,363.8l1.3,2.9h-.8l-1-2.5-.8.7-.3,1.7h-.7l1.2-6.4h.7l-.7,3.9,2.2-2.1h.9l-1.9,1.7Z"/>
    <path class="st2" d="M742,364.6c0,0,0,.2,0,.3,0,.8.4,1.4,1.3,1.4s1.1-.4,1.3-1h.7c-.4,1-1.1,1.6-2.1,1.6s-1.9-.8-1.9-2,1.1-2.9,2.4-2.9.9.1,1.2.3c.6.4.8,1.3.6,2.3h-3.5ZM742.1,364.1h2.7c0-.9-.3-1.5-1.1-1.5s-1.4.6-1.6,1.5Z"/>
    <path class="st2" d="M747.3,362.8h0c.4-.5,1-.8,1.7-.8s1.3.6,1.1,1.5l-.6,3.3h-.7l.6-3.3c.1-.6,0-.9-.6-.9-.9,0-1.6.7-1.8,1.5l-.5,2.6h-.7l.9-4.7h.7v.7Z"/>
    <path class="st2" d="M750.3,367.5c.2,0,.5-.2.6-.7h-.4l.2-.9h.9l-.2,1c-.1.7-.5,1-1.1,1.1v-.4Z"/>
    <path class="st2" d="M754.9,360.3h.7l-1.2,6.4h-.7l1.2-6.4Z"/>
    <path class="st2" d="M756.3,362.1h.7l-.9,4.7h-.7l.9-4.7ZM756.6,360.3h.7l-.2.9h-.7l.2-.9Z"/>
    <path class="st2" d="M759.6,363.8l1.3,2.9h-.8l-1-2.5-.8.7-.3,1.7h-.7l1.2-6.4h.7l-.7,3.9,2.2-2.1h.9l-1.9,1.7Z"/>
    <path class="st2" d="M762,364.6c0,0,0,.2,0,.3,0,.8.4,1.4,1.3,1.4s1.1-.4,1.3-1h.7c-.4,1-1.1,1.6-2.1,1.6s-1.9-.8-1.9-2,1.1-2.9,2.4-2.9.9.1,1.2.3c.6.4.8,1.3.6,2.3h-3.5ZM762.1,364.1h2.7c0-.9-.3-1.5-1.1-1.5s-1.4.6-1.6,1.5Z"/>
    <path class="st2" d="M768.1,361.2c.1-.6.5-.8.9-.9v.3c-.3,0-.5.2-.5.6h.4l-.2.9h-.8l.2-1ZM769.5,361.2c.1-.6.5-.8.9-.9v.3c-.3,0-.5.2-.5.6h.4l-.2.9h-.8l.2-1Z"/>
    <path class="st2" d="M770,364.9c0-1.5.9-2.9,2.5-2.9s2,.8,2,2.1-.9,2.8-2.4,2.8-2-.7-2-2ZM772,366.3c1.1,0,1.7-1.1,1.7-2.2s-.4-1.5-1.2-1.5-1.7,1.1-1.7,2.3.4,1.4,1.3,1.4Z"/>
    <path class="st2" d="M775.7,361.3c-.1.6-.5.8-.9.9v-.3c.3,0,.5-.2.5-.6h-.4l.2-.9h.8l-.2,1ZM777.1,361.3c-.1.6-.5.8-.9.9v-.3c.3,0,.5-.2.5-.6h-.4l.2-.9h.8l-.2,1Z"/>
    <path class="st2" d="M779.2,362.1h.7l-.9,4.7h-.7l.9-4.7ZM779.6,360.3h.7l-.2.9h-.7l.2-.9Z"/>
    <path class="st2" d="M781.6,362.8h0c.4-.5,1-.8,1.7-.8s1.3.6,1.1,1.5l-.6,3.3h-.7l.6-3.3c.1-.6,0-.9-.6-.9-.9,0-1.6.7-1.8,1.5l-.5,2.6h-.7l.9-4.7h.7v.7Z"/>
    <path class="st2" d="M787.1,361.2c.1-.6.5-.8.9-.9v.3c-.3,0-.5.2-.5.6h.4l-.2.9h-.8l.2-1ZM788.4,361.2c.1-.6.5-.8.9-.9v.3c-.3,0-.5.2-.5.6h.4l-.2.9h-.8l.2-1Z"/>
    <path class="st2" d="M789.9,362.1h.7v.7c-.1,0-.1,0-.1,0,.4-.4.8-.8,1.5-.8s.9.3,1,.8h0c.5-.5,1-.8,1.6-.8s1.2.4,1,1.5l-.6,3.3h-.7l.6-3.3c.1-.6-.1-.8-.6-.8-.7,0-1.3.6-1.5,1.4l-.5,2.7h-.7l.6-3.4c0-.5,0-.8-.5-.8s-1.4.7-1.5,1.4l-.5,2.7h-.7l.9-4.7Z"/>
    <path class="st2" d="M796.2,364.9c0-1.5.9-2.9,2.5-2.9s2,.8,2,2.1-.9,2.8-2.4,2.8-2-.7-2-2ZM798.2,366.3c1.1,0,1.7-1.1,1.7-2.2s-.4-1.5-1.2-1.5-1.7,1.1-1.7,2.3.4,1.4,1.3,1.4Z"/>
    <path class="st2" d="M802.4,362.9h0c.4-.5.8-.8,1.3-.8s.3,0,.4,0v.7h-.2c0,0-.2,0-.3,0-.7,0-1.3.6-1.5,1.5l-.5,2.5h-.7l.9-4.7h.7v.7Z"/>
    <path class="st2" d="M804.7,364.6c0,0,0,.2,0,.3,0,.8.4,1.4,1.3,1.4s1.1-.4,1.3-1h.7c-.4,1-1.1,1.6-2.1,1.6s-1.9-.8-1.9-2,1.1-2.9,2.4-2.9.9.1,1.2.3c.6.4.8,1.3.6,2.3h-3.5ZM804.8,364.1h2.7c0-.9-.3-1.5-1.1-1.5s-1.4.6-1.6,1.5Z"/>
    <path class="st2" d="M809.8,361.3c-.1.6-.5.8-.9.9v-.3c.3,0,.5-.2.5-.6h-.4l.2-.9h.8l-.2,1ZM811.1,361.3c-.1.6-.5.8-.9.9v-.3c.3,0,.5-.2.5-.6h-.4l.2-.9h.8l-.2,1Z"/>
    <path class="st2" d="M811,365.9h.9l-.2.9h-.9l.2-.9Z"/>
  </g>
  <g>
    <path class="st2" d="M959.7,349.5h4.9v.7h-2.2l-1.1,5.7h-.8l1.1-5.7h-2.1v-.7Z"/>
    <path class="st2" d="M965.5,352.1h0c.4-.5,1-.8,1.7-.8s1.3.6,1.1,1.5l-.6,3.3h-.7l.6-3.3c.1-.6,0-.9-.6-.9-.9,0-1.7.7-1.8,1.5l-.5,2.6h-.7l1.3-6.4h.7l-.5,2.5Z"/>
    <path class="st2" d="M969.6,353.8c0,0,0,.2,0,.3,0,.8.4,1.4,1.3,1.4s1.1-.4,1.3-1h.7c-.4,1-1.1,1.6-2.1,1.6s-2-.8-2-2,1.1-2.9,2.4-2.9.9.1,1.2.3c.6.4.8,1.3.6,2.3h-3.5ZM969.7,353.3h2.7c0-.9-.3-1.5-1.1-1.5s-1.4.6-1.6,1.5Z"/>
    <path class="st2" d="M975.8,350.4c.1-.6.5-.8.9-.9v.3c-.3,0-.5.2-.5.6h.4l-.2.9h-.8l.2-1ZM977.1,350.4c.1-.6.5-.8.9-.9v.3c-.3,0-.5.2-.5.6h.4l-.2.9h-.8l.2-1Z"/>
    <path class="st2" d="M980.7,355.3h0c-.4.4-.9.8-1.6.8s-1.4-.6-1.2-1.5l.6-3.2h.7l-.6,3.2c-.1.6,0,.9.6.9.8,0,1.5-.7,1.7-1.6l.5-2.6h.7l-.9,4.7h-.7v-.6Z"/>
    <path class="st2" d="M983.9,350.5c-.1.6-.5.8-.9.9v-.3c.3,0,.5-.2.5-.6h-.4l.2-.9h.8l-.2,1ZM985.2,350.5c-.1.6-.5.8-.9.9v-.3c.3,0,.5-.2.5-.6h-.4l.2-.9h.8l-.2,1Z"/>
    <path class="st2" d="M987.1,351.3h.6v-.7c.3-.8.7-1.1,1.5-1.1s.3,0,.4,0v.6c-.2,0-.3,0-.4,0-.5,0-.6.2-.6.5v.7c-.1,0,.7,0,.7,0v.6h-1l-.8,4.1h-.7l.8-4.1h-.6v-.6Z"/>
    <path class="st2" d="M989.9,353.8c0,0,0,.2,0,.3,0,.8.4,1.4,1.3,1.4s1.1-.4,1.3-1h.7c-.4,1-1.1,1.6-2.1,1.6s-2-.8-2-2,1.1-2.9,2.4-2.9.9.1,1.2.3c.6.4.8,1.3.6,2.3h-3.5ZM990,353.3h2.7c0-.9-.3-1.5-1.1-1.5s-1.4.6-1.6,1.5Z"/>
    <path class="st2" d="M994.6,353.8c0,0,0,.2,0,.3,0,.8.4,1.4,1.3,1.4s1.1-.4,1.3-1h.7c-.4,1-1.1,1.6-2.1,1.6s-2-.8-2-2,1.1-2.9,2.4-2.9.9.1,1.2.3c.6.4.8,1.3.6,2.3h-3.5ZM994.7,353.3h2.7c0-.9-.3-1.5-1.1-1.5s-1.4.6-1.6,1.5Z"/>
    <path class="st2" d="M999.6,349.5h.7l-1.3,6.4h-.7l1.3-6.4Z"/>
    <path class="st2" d="M1000.1,354.5h.7c0,.7.5,1.1,1.3,1.1s1.1-.2,1.1-.8-.3-.5-1.1-.8c-.8-.3-1.4-.6-1.4-1.4s.7-1.3,1.6-1.3,1.7.4,1.8,1.5h-.7c0-.6-.5-.9-1.1-.9s-.9.1-.9.7.3.5,1.1.8c.8.3,1.4.6,1.4,1.4s-.9,1.5-1.8,1.5-2-.5-2-1.6Z"/>
    <path class="st2" d="M1007.1,349.5h.7l-1.3,6.4h-.7l1.3-6.4Z"/>
    <path class="st2" d="M1008.5,351.3h.7l-.9,4.7h-.7l.9-4.7ZM1008.8,349.5h.7l-.2.9h-.7l.2-.9Z"/>
    <path class="st2" d="M1011.7,353l1.3,2.9h-.8l-1.1-2.5-.8.7-.3,1.7h-.7l1.3-6.4h.7l-.8,3.9,2.2-2.1h1l-2,1.7Z"/>
    <path class="st2" d="M1014.1,353.8c0,0,0,.2,0,.3,0,.8.4,1.4,1.3,1.4s1.1-.4,1.3-1h.7c-.4,1-1.1,1.6-2.1,1.6s-2-.8-2-2,1.1-2.9,2.4-2.9.9.1,1.2.3c.6.4.8,1.3.6,2.3h-3.5ZM1014.2,353.3h2.7c0-.9-.3-1.5-1.1-1.5s-1.4.6-1.6,1.5Z"/>
    <path class="st2" d="M1022.3,355.4h0c-.3.4-.8.7-1.5.7s-1.5-.6-1.5-1.3c0-1.2.9-1.4,1.9-1.5,1.3,0,1.6-.2,1.6-.8s-.5-.7-1-.7c-.8,0-1.2.3-1.3.9h-.7c.2-.9.9-1.5,2.1-1.5s1.8.4,1.5,1.6l-.4,2.2c0,.3,0,.6.4.5h0v.5c-.2,0-.3,0-.5,0-.5,0-.6-.3-.7-.6ZM1021,355.5c.9,0,1.4-.6,1.5-1.3v-.6c-.2.2-.5.2-1.3.3-.4,0-1.1,0-1.1.9s.3.8.9.8Z"/>
    <path class="st2" d="M1026.6,349.5h.7l-1.3,6.4h-.7l1.3-6.4Z"/>
    <path class="st2" d="M1027.2,354.1c0-1.5.9-2.9,2.5-2.9s2,.8,2,2.1-.9,2.8-2.5,2.8-2-.7-2-2ZM1029.3,355.5c1.1,0,1.7-1.1,1.7-2.2s-.4-1.5-1.3-1.5-1.7,1.1-1.7,2.3.4,1.4,1.3,1.4Z"/>
    <path class="st2" d="M1033.4,352h0c.4-.5,1-.8,1.7-.8s1.3.6,1.1,1.5l-.6,3.3h-.7l.6-3.3c.1-.6,0-.9-.6-.9-.9,0-1.7.7-1.8,1.5l-.5,2.6h-.7l.9-4.7h.7v.7Z"/>
    <path class="st2" d="M1036.7,356.2h.7c0,.6.5.7,1.1.7s1.2-.4,1.3-1v-.7c.1,0,.1,0,.1,0-.4.4-.8.6-1.4.6-1,0-1.7-.7-1.7-1.9s.8-2.7,2.4-2.7,1.1.3,1.3.8h0v-.7h.9l-.9,4.7c-.2.9-.9,1.5-2,1.5s-1.8-.3-1.8-1.3ZM1038.7,355.2c1.1,0,1.7-1.1,1.7-2.1s-.4-1.3-1.2-1.3-1.6,1.1-1.6,2.1.3,1.3,1.1,1.3Z"/>
    <path class="st2" d="M958.7,365.3h.7c0,.7.5,1.1,1.3,1.1s1.1-.2,1.1-.8-.3-.5-1.1-.8c-.8-.3-1.4-.6-1.4-1.4s.7-1.3,1.6-1.3,1.7.4,1.8,1.5h-.7c0-.6-.5-.9-1.1-.9s-.9.1-.9.7.3.5,1.1.8c.8.3,1.4.6,1.4,1.4s-.9,1.4-1.8,1.4-2-.5-2-1.6Z"/>
    <path class="st2" d="M963.3,362.1h.7l.3-1.5h.7l-.3,1.5h.9v.6h-1l-.6,3c0,.4,0,.5.4.5s.3,0,.4,0h0v.6c-.3,0-.4,0-.6,0-.7,0-1.1-.4-.9-1.2l.6-2.9h-.7v-.6Z"/>
    <path class="st2" d="M966.9,362.9h0c.4-.5.8-.8,1.3-.8s.3,0,.4,0v.7h-.2c-.1,0-.2,0-.3,0-.7,0-1.3.6-1.5,1.5l-.5,2.5h-.7l.9-4.7h.7v.7Z"/>
    <path class="st2" d="M969.2,364.6c0,0,0,.2,0,.3,0,.8.4,1.4,1.3,1.4s1.1-.4,1.3-1h.7c-.4,1-1.1,1.6-2.1,1.6s-2-.8-2-2,1.1-2.9,2.4-2.9.9.1,1.2.3c.6.4.8,1.3.6,2.3h-3.5ZM969.3,364.1h2.7c0-.9-.3-1.5-1.1-1.5s-1.4.6-1.6,1.5Z"/>
    <path class="st2" d="M973.5,362.1h.7l.3-1.5h.7l-.3,1.5h.9v.6h-1l-.6,3c0,.4,0,.5.4.5s.3,0,.4,0h0v.6c-.3,0-.4,0-.6,0-.7,0-1.1-.4-.9-1.2l.6-2.9h-.7v-.6Z"/>
    <path class="st2" d="M975.7,364.9c0-1.5,1-2.9,2.5-2.9s1.7.6,1.8,1.6h-.7c0-.6-.4-1-1.1-1-1.1,0-1.7,1.2-1.7,2.3s.3,1.4,1.2,1.4,1.2-.4,1.4-1.2h.7c-.3,1.1-1.1,1.8-2.1,1.8s-2-.7-2-2Z"/>
    <path class="st2" d="M981.6,362.9h0c.4-.5,1-.8,1.7-.8s1.3.6,1.1,1.5l-.6,3.3h-.7l.6-3.3c.1-.6,0-.9-.6-.9-.9,0-1.7.7-1.8,1.5l-.5,2.6h-.7l1.3-6.4h.7l-.5,2.5Z"/>
    <path class="st2" d="M986.7,362.1h.8l.3,2.8c0,.4,0,1.1,0,1.1h0s.2-.6.4-1l1.3-2.9h.8l.3,2.9c0,.4,0,1,0,1h0s.2-.6.4-1l1.4-2.8h.8l-2.3,4.7h-.7l-.3-2.8c0-.4,0-1,0-1h0s-.2.6-.4,1l-1.2,2.8h-.8l-.6-4.7Z"/>
    <path class="st2" d="M994.2,362.9h0c.4-.5,1-.8,1.7-.8s1.3.6,1.1,1.5l-.6,3.3h-.7l.6-3.3c.1-.6,0-.9-.6-.9-.9,0-1.7.7-1.8,1.5l-.5,2.6h-.7l1.3-6.4h.7l-.5,2.5Z"/>
    <path class="st2" d="M998.3,364.6c0,0,0,.2,0,.3,0,.8.4,1.4,1.3,1.4s1.1-.4,1.3-1h.7c-.4,1-1.1,1.6-2.1,1.6s-2-.8-2-2,1.1-2.9,2.4-2.9.9.1,1.2.3c.6.4.8,1.3.6,2.3h-3.5ZM998.4,364.1h2.7c0-.9-.3-1.5-1.1-1.5s-1.4.6-1.6,1.5Z"/>
    <path class="st2" d="M1003.6,362.8h0c.4-.5,1-.8,1.7-.8s1.3.6,1.1,1.5l-.6,3.3h-.7l.6-3.3c.1-.6,0-.9-.6-.9-.9,0-1.7.7-1.8,1.5l-.5,2.6h-.7l.9-4.7h.7v.7Z"/>
    <path class="st2" d="M1008.2,365.3h.7c0,.7.5,1.1,1.3,1.1s1.1-.2,1.1-.8-.3-.5-1.1-.8c-.8-.3-1.4-.6-1.4-1.4s.7-1.3,1.6-1.3,1.7.4,1.8,1.5h-.7c0-.6-.5-.9-1.1-.9s-.9.1-.9.7.3.5,1.1.8c.8.3,1.4.6,1.4,1.4s-.9,1.4-1.8,1.4-2-.5-2-1.6Z"/>
    <path class="st2" d="M1013.4,362.1h.7v.6c-.1,0-.1,0-.1,0,.4-.5.9-.7,1.5-.7,1,0,1.7.8,1.7,1.9s-.8,3-2.4,3-1.2-.3-1.5-.8h0l-.4,2.2h-.7l1.2-6.1ZM1014.8,366.3c1.2,0,1.7-1.3,1.7-2.3s-.3-1.4-1.1-1.4-1.8,1.2-1.8,2.3c0,.8.4,1.4,1.2,1.4Z"/>
    <path class="st2" d="M1017.6,364.9c0-1.5.9-2.9,2.5-2.9s2,.8,2,2.1-.9,2.8-2.5,2.8-2-.7-2-2ZM1019.6,366.3c1.1,0,1.7-1.1,1.7-2.2s-.4-1.5-1.3-1.5-1.7,1.1-1.7,2.3.4,1.4,1.3,1.4Z"/>
    <path class="st2" d="M1024.7,363.8l1.3,2.9h-.8l-1.1-2.5-.8.7-.3,1.7h-.7l1.3-6.4h.7l-.8,3.9,2.2-2.1h1l-2,1.7Z"/>
    <path class="st2" d="M1027.2,364.6c0,0,0,.2,0,.3,0,.8.4,1.4,1.3,1.4s1.1-.4,1.3-1h.7c-.4,1-1.1,1.6-2.1,1.6s-2-.8-2-2,1.1-2.9,2.4-2.9.9.1,1.2.3c.6.4.8,1.3.6,2.3h-3.5ZM1027.2,364.1h2.7c0-.9-.3-1.5-1.1-1.5s-1.4.6-1.6,1.5Z"/>
    <path class="st2" d="M1032.4,362.8h0c.4-.5,1-.8,1.7-.8s1.3.6,1.1,1.5l-.6,3.3h-.7l.6-3.3c.1-.6,0-.9-.6-.9-.9,0-1.7.7-1.8,1.5l-.5,2.6h-.7l.9-4.7h.7v.7Z"/>
    <path class="st2" d="M1035.4,367.5c.2,0,.5-.2.6-.7h-.4l.2-.9h.9l-.2,1c-.1.7-.5,1-1.1,1.1v-.4Z"/>
    <path class="st2" d="M1040,360.3h.7l-1.3,6.4h-.7l1.3-6.4Z"/>
    <path class="st2" d="M1041.4,362.1h.7l-.9,4.7h-.7l.9-4.7ZM1041.7,360.3h.7l-.2.9h-.7l.2-.9Z"/>
    <path class="st2" d="M1044.6,363.8l1.3,2.9h-.8l-1.1-2.5-.8.7-.3,1.7h-.7l1.3-6.4h.7l-.8,3.9,2.2-2.1h1l-2,1.7Z"/>
    <path class="st2" d="M1047.1,364.6c0,0,0,.2,0,.3,0,.8.4,1.4,1.3,1.4s1.1-.4,1.3-1h.7c-.4,1-1.1,1.6-2.1,1.6s-2-.8-2-2,1.1-2.9,2.4-2.9.9.1,1.2.3c.6.4.8,1.3.6,2.3h-3.5ZM1047.1,364.1h2.7c0-.9-.3-1.5-1.1-1.5s-1.4.6-1.6,1.5Z"/>
    <path class="st2" d="M959.7,372c.1-.6.5-.8.9-.9v.3c-.3,0-.5.2-.5.6h.4l-.2.9h-.8l.2-1ZM961.1,372c.1-.6.5-.8.9-.9v.3c-.3,0-.5.2-.5.6h.4l-.2.9h-.8l.2-1Z"/>
    <path class="st2" d="M961.5,375.7c0-1.5.9-2.9,2.5-2.9s2,.8,2,2.1-.9,2.8-2.5,2.8-2-.7-2-2ZM963.5,377.1c1.1,0,1.7-1.1,1.7-2.2s-.4-1.5-1.3-1.5-1.7,1.1-1.7,2.3.4,1.4,1.3,1.4Z"/>
    <path class="st2" d="M966.4,375.7c0-1.5.9-2.9,2.5-2.9s2,.8,2,2.1-.9,2.8-2.5,2.8-2-.7-2-2ZM968.4,377.1c1.1,0,1.7-1.1,1.7-2.2s-.4-1.5-1.3-1.5-1.7,1.1-1.7,2.3.4,1.4,1.3,1.4Z"/>
    <path class="st2" d="M972.2,372.1c-.1.6-.5.8-.9.9v-.3c.3,0,.5-.2.5-.6h-.4l.2-.9h.8l-.2,1ZM973.5,372.1c-.1.6-.5.8-.9.9v-.3c.3,0,.5-.2.5-.6h-.4l.2-.9h.8l-.2,1Z"/>
    <path class="st2" d="M975.7,372.9h.7l-.9,4.7h-.7l.9-4.7ZM976,371.1h.7l-.2.9h-.7l.2-.9Z"/>
    <path class="st2" d="M978,373.6h0c.4-.5,1-.8,1.7-.8s1.3.6,1.1,1.5l-.6,3.3h-.7l.6-3.3c.1-.6,0-.9-.6-.9-.9,0-1.7.7-1.8,1.5l-.5,2.6h-.7l.9-4.7h.7v.7Z"/>
    <path class="st2" d="M983.6,372c.1-.6.5-.8.9-.9v.3c-.3,0-.5.2-.5.6h.4l-.2.9h-.8l.2-1ZM984.9,372c.1-.6.5-.8.9-.9v.3c-.3,0-.5.2-.5.6h.4l-.2.9h-.8l.2-1Z"/>
    <path class="st2" d="M986.4,372.9h.7v.7c-.1,0-.1,0-.1,0,.4-.4.8-.8,1.5-.8s.9.3,1,.8h0c.5-.5,1-.8,1.6-.8s1.3.4,1,1.5l-.6,3.3h-.7l.7-3.3c.1-.6-.1-.8-.6-.8-.7,0-1.3.6-1.5,1.4l-.5,2.7h-.7l.7-3.4c.1-.5,0-.8-.5-.8s-1.4.7-1.5,1.4l-.5,2.7h-.7l.9-4.7Z"/>
    <path class="st2" d="M992.6,375.7c0-1.5.9-2.9,2.5-2.9s2,.8,2,2.1-.9,2.8-2.5,2.8-2-.7-2-2ZM994.7,377.1c1.1,0,1.7-1.1,1.7-2.2s-.4-1.5-1.3-1.5-1.7,1.1-1.7,2.3.4,1.4,1.3,1.4Z"/>
    <path class="st2" d="M997.5,375.7c0-1.5.9-2.9,2.5-2.9s2,.8,2,2.1-.9,2.8-2.5,2.8-2-.7-2-2ZM999.5,377.1c1.1,0,1.7-1.1,1.7-2.2s-.4-1.5-1.3-1.5-1.7,1.1-1.7,2.3.4,1.4,1.3,1.4Z"/>
    <path class="st2" d="M1003.7,373.6h0c.4-.5,1-.8,1.7-.8s1.3.6,1.1,1.5l-.6,3.3h-.7l.6-3.3c.1-.6,0-.9-.6-.9-.9,0-1.7.7-1.8,1.5l-.5,2.6h-.7l.9-4.7h.7v.7Z"/>
    <path class="st2" d="M1008.3,372.1c-.1.6-.5.8-.9.9v-.3c.3,0,.5-.2.5-.6h-.4l.2-.9h.8l-.2,1ZM1009.7,372.1c-.1.6-.5.8-.9.9v-.3c.3,0,.5-.2.5-.6h-.4l.2-.9h.8l-.2,1Z"/>
    <path class="st2" d="M1009.5,376.7h.9l-.2.9h-.9l.2-.9Z"/>
  </g>
  <path class="st2" d="M339.8,324.1c0,1.3.9,1.8,1.8,1.8s1.1-.1,1.5-.3l.2.7c-.3.2-.9.3-1.8.3-1.6,0-2.6-1.1-2.6-2.7s.9-2.9,2.5-2.9,2.2,1.5,2.2,2.5,0,.4,0,.5h-3.7ZM342.7,323.4c0-.6-.3-1.6-1.3-1.6s-1.4.9-1.5,1.6h2.8Z"/>
  <path class="st2" d="M524,319.7c0,.3-.2.6-.6.6s-.6-.3-.6-.6.3-.6.6-.6.6.3.6.6ZM523,326.6v-5.3h1v5.3h-1Z"/>
  <path class="st2" d="M728.6,323.9c0,2-1.4,2.8-2.7,2.8s-2.6-1.1-2.6-2.7,1.2-2.8,2.6-2.8,2.6,1.1,2.6,2.7ZM724.4,323.9c0,1.2.7,2,1.6,2s1.6-.9,1.6-2.1-.5-2-1.6-2-1.6,1.1-1.6,2.1Z"/>
  <path class="st2" d="M964,325.1c0,.5,0,1,0,1.5h-.9v-.9h0c-.3.4-.8,1-1.8,1s-1.8-.5-1.8-2.3v-3.1h1v2.9c0,1,.3,1.7,1.2,1.7s1.1-.5,1.3-.9c0-.1,0-.3,0-.5v-3.3h1v3.9Z"/>
  <g>
    <path class="st2" d="M1056.9,120.7h1c.1,1.3.9,2,2.4,2s1.9-.5,1.9-1.5-.9-1.3-2.4-1.6c-1.4-.3-2.6-.7-2.6-2.2s1.1-2.1,2.7-2.1,2.8,1,3,2.5h-.9c-.1-1.1-.9-1.7-2-1.7s-1.8.5-1.8,1.3.9,1.2,2.1,1.4c1.5.3,2.9.7,2.9,2.5s-1.2,2.3-2.9,2.3-3.3-1.2-3.4-2.8Z"/>
    <path class="st2" d="M1063.8,120.5c0-1.6,1.1-3,2.8-3s2.2.8,2.4,2h-.9c-.1-.8-.7-1.2-1.5-1.2s-1.8,1-1.8,2.3.6,2.2,1.8,2.2,1.5-.5,1.6-1.4h.9c-.1,1.4-1,2.2-2.4,2.2s-2.8-1.3-2.8-3Z"/>
    <path class="st2" d="M1070.7,118.6h0c.3-.5.9-1,1.7-1s.3,0,.4,0v.9h0c-.1,0-.2,0-.4,0-.9,0-1.7.7-1.7,1.7v3.2h-.9v-5.7h.9v.9Z"/>
    <path class="st2" d="M1073.6,115.4h.9v1.1h-.9v-1.1ZM1073.6,117.6h.9v5.7h-.9v-5.7Z"/>
    <path class="st2" d="M1075.7,117.6h.9v.8h0c.4-.6,1-.9,1.8-.9,1.4,0,2.4,1.1,2.4,3s-.9,3-2.5,3-1.3-.2-1.8-.8h0v2.5h-.9v-7.5ZM1080,120.5c0-1.3-.5-2.2-1.6-2.2s-1.8,1-1.8,2.2.5,2.2,1.8,2.2,1.6-.9,1.6-2.2Z"/>
    <path class="st2" d="M1081.3,117.6h.8v-1.8h.9v1.8h1.1v.7h-1.1v3.7c0,.4.2.5.6.5s.4,0,.5,0h0v.8c-.2,0-.5,0-.7,0-.7,0-1.3-.3-1.3-1.1v-3.9h-.8v-.7Z"/>
    <path class="st2" d="M1087.6,118.4h0c.4-.5,1-.9,1.8-.9,1.2,0,1.9.6,1.9,1.8v4h-.9v-3.9c0-.7-.5-1.2-1.3-1.2s-1.6.6-1.6,1.6v3.5h-.9v-7.9h.9v2.9Z"/>
    <path class="st2" d="M1092.2,120.5c0-1.6,1.1-3,2.7-3s2.6,1.3,2.6,3.2h-4.4c0,1.2.7,2,1.8,2s1.4-.4,1.6-1.2h.9c-.3,1.2-1.2,1.9-2.4,1.9s-2.8-1.3-2.8-3ZM1093.2,120h3.4c0-1.1-.6-1.8-1.7-1.8s-1.6.8-1.8,1.8Z"/>
    <path class="st2" d="M1098.4,115.4h.9v1.1h-.9v-1.1ZM1098.4,117.6h.9v5.7h-.9v-5.7Z"/>
    <path class="st2" d="M1100.4,123.6h.8c0,.6.7.9,1.6.9s1.6-.5,1.6-1.5v-.8h0c-.4.5-.9.9-1.7.9-1.5,0-2.5-1.2-2.5-2.8s1.1-2.8,2.4-2.8,1.4.3,1.7.9h0v-.7h.9v5.4c0,1.5-1,2.2-2.5,2.2s-2.3-.6-2.4-1.6ZM1104.5,120.3c0-1.2-.5-2-1.7-2s-1.6.8-1.6,2.1.6,2.1,1.6,2.1,1.7-.9,1.7-2.1Z"/>
    <path class="st2" d="M1107.4,118.4h0c.4-.5,1-.9,1.8-.9,1.2,0,1.9.6,1.9,1.8v4h-.9v-3.9c0-.7-.5-1.2-1.3-1.2s-1.6.6-1.6,1.6v3.5h-.9v-7.9h.9v2.9Z"/>
    <path class="st2" d="M1111.8,117.6h.8v-1.8h.9v1.8h1.1v.7h-1.1v3.7c0,.4.2.5.6.5s.4,0,.5,0h0v.8c-.2,0-.5,0-.7,0-.7,0-1.3-.3-1.3-1.1v-3.9h-.8v-.7Z"/>
  </g>
  <g>
    <path class="st2" d="M1065.1,70.4h1.1l2.9,7.9h-1.1l-.8-2.4h-3.1l-.8,2.4h-1l2.9-7.9ZM1064.3,75h2.6l-.9-2.6c-.2-.4-.4-1.1-.4-1.1h0s-.2.7-.4,1.1l-.9,2.6Z"/>
    <path class="st2" d="M1069.4,76.4h.9c.1,1,.8,1.3,1.6,1.3s1.3-.4,1.3-.9-.4-.8-1.5-1c-1.1-.2-2.1-.5-2.1-1.7s.7-1.6,2-1.6,2.1.7,2.2,1.8h-.9c0-.7-.5-1.1-1.3-1.1s-1.1.4-1.1.8.6.7,1.5.9c1.1.2,2.1.5,2.1,1.8s-.9,1.7-2.2,1.7-2.4-.7-2.5-2Z"/>
    <path class="st2" d="M1074.8,75.4c0-1.6,1.1-3,2.8-3s2.2.8,2.4,2h-.9c-.1-.8-.7-1.2-1.5-1.2s-1.8,1-1.8,2.3.6,2.2,1.8,2.2,1.5-.5,1.6-1.4h.9c-.1,1.4-1,2.2-2.4,2.2s-2.8-1.3-2.8-3Z"/>
    <path class="st2" d="M1080.5,75.4c0-1.6,1.1-3,2.7-3s2.6,1.3,2.6,3.2h-4.4c0,1.2.7,2,1.8,2s1.4-.4,1.6-1.2h.9c-.3,1.2-1.2,1.9-2.4,1.9s-2.8-1.3-2.8-3ZM1081.4,74.9h3.4c0-1.1-.6-1.8-1.7-1.8s-1.6.8-1.8,1.8Z"/>
    <path class="st2" d="M1087.6,73.3h0c.4-.5,1-.9,1.8-.9,1.2,0,1.9.6,1.9,1.8v4h-.9v-3.9c0-.7-.5-1.2-1.3-1.2s-1.6.6-1.6,1.6v3.5h-.9v-5.7h.9v.7Z"/>
    <path class="st2" d="M1092.2,75.4c0-1.9,1.1-3,2.5-3s1.4.4,1.8.9h0v-3h.9v7.9h-.9v-.7h0c-.4.5-1,.9-1.8.9-1.6,0-2.5-1.2-2.5-3ZM1096.5,75.4c0-1.3-.6-2.2-1.8-2.2s-1.6,1-1.6,2.2.5,2.2,1.6,2.2,1.8-.9,1.8-2.2Z"/>
    <path class="st2" d="M1098.3,75.4c0-1.6,1.1-3,2.7-3s2.6,1.3,2.6,3.2h-4.4c0,1.2.7,2,1.8,2s1.4-.4,1.6-1.2h.9c-.3,1.2-1.2,1.9-2.4,1.9s-2.8-1.3-2.8-3ZM1099.2,74.9h3.4c0-1.1-.6-1.8-1.7-1.8s-1.6.8-1.8,1.8Z"/>
    <path class="st2" d="M1105.3,73.5h0c.3-.5.9-1,1.7-1s.3,0,.4,0v.9h0c-.1,0-.2,0-.4,0-.9,0-1.7.7-1.7,1.7v3.2h-.9v-5.7h.9v.9Z"/>
    <path class="st2" d="M1107.9,76.4h.9c.1,1,.8,1.3,1.6,1.3s1.3-.4,1.3-.9-.4-.8-1.5-1c-1.1-.2-2.1-.5-2.1-1.7s.7-1.6,2-1.6,2.1.7,2.2,1.8h-.9c0-.7-.5-1.1-1.3-1.1s-1.1.4-1.1.8.5.7,1.5.9c1.1.2,2.1.5,2.1,1.8s-.9,1.7-2.2,1.7-2.4-.7-2.5-2Z"/>
  </g>
  <g>
    <path class="st2" d="M27.3,22.6h1.7l3.1,9.3c.2.6.5,1.7.5,1.7h0s.3-1.1.5-1.7l3-9.3h1.6l-4.4,12.5h-1.7l-4.3-12.5Z"/>
    <path class="st2" d="M38,28.8c0-3.7,2.3-6.5,6.1-6.5s6.1,2.8,6.1,6.5-2.3,6.5-6.1,6.5-6.1-2.8-6.1-6.5ZM48.6,28.8c0-2.9-1.6-5.1-4.5-5.1s-4.5,2.2-4.5,5.1,1.6,5.1,4.5,5.1,4.5-2.2,4.5-5.1Z"/>
    <path class="st2" d="M50.6,22.6h1.6l2,8.1c.2.8.5,2.1.5,2.1h0s.3-1.3.5-2.1l2.2-8.1h1.7l2.2,8.1c.2.8.5,2.1.5,2.1h0s.3-1.3.5-2.1l2.1-8.1h1.6l-3.5,12.5h-1.5l-2.3-8.8c-.2-.7-.5-1.9-.5-1.9h0s-.3,1.2-.5,1.9l-2.4,8.8h-1.6l-3.2-12.5Z"/>
    <path class="st2" d="M67.5,22.6h8.8v1.4h-7.2v3.9h6.6v1.3h-6.6v4.4h7.4v1.4h-9v-12.5Z"/>
    <path class="st2" d="M78.3,22.6h1.6v11h6.5v1.4h-8.1v-12.5Z"/>
    <path class="st2" d="M86.9,30.8h1.5c.2,2.1,1.5,3.2,3.9,3.2s3-.8,3-2.3-1.5-2.1-3.7-2.6c-2.2-.5-4.1-1.1-4.1-3.5s1.7-3.3,4.2-3.3,4.4,1.6,4.7,3.9h-1.5c-.2-1.8-1.4-2.7-3.2-2.7s-2.8.7-2.8,2,1.4,1.8,3.3,2.2c2.4.5,4.6,1.1,4.6,3.9s-1.9,3.6-4.6,3.6-5.2-2-5.3-4.5Z"/>
  </g>
  <g>
    <path class="st2" d="M1056.5,270.1h2.9c2.4,0,3.5,1.6,3.5,4s-1.2,3.9-3.6,3.9h-2.8v-7.9ZM1059.2,277.1c1.8,0,2.6-1.2,2.6-3s-.7-3.1-2.5-3.1h-1.8v6.1h1.8Z"/>
    <path class="st2" d="M1063.6,275.1c0-1.7,1.1-3,2.7-3s2.6,1.3,2.6,3.2h-4.4c0,1.2.7,2,1.8,2s1.4-.4,1.6-1.2h.9c-.3,1.2-1.2,1.9-2.4,1.9s-2.8-1.3-2.8-3ZM1064.5,274.6h3.4c0-1.1-.6-1.8-1.7-1.8s-1.6.8-1.8,1.8Z"/>
    <path class="st2" d="M1069.4,276.1h.9c.1,1,.8,1.3,1.6,1.3s1.3-.4,1.3-.9-.4-.8-1.5-1c-1.1-.2-2.1-.5-2.1-1.7s.7-1.6,2-1.6,2.1.7,2.2,1.8h-.9c0-.7-.5-1.1-1.3-1.1s-1.1.4-1.1.8.5.7,1.5.9c1.1.2,2.1.5,2.1,1.8s-.9,1.7-2.2,1.7-2.4-.7-2.5-2Z"/>
    <path class="st2" d="M1074.8,275.1c0-1.7,1.1-3,2.8-3s2.2.8,2.4,2h-.9c-.1-.8-.7-1.2-1.5-1.2s-1.8,1-1.8,2.3.6,2.2,1.8,2.2,1.5-.5,1.6-1.4h.9c-.1,1.4-1,2.2-2.4,2.2s-2.8-1.3-2.8-3Z"/>
    <path class="st2" d="M1080.5,275.1c0-1.7,1.1-3,2.7-3s2.6,1.3,2.6,3.2h-4.4c0,1.2.7,2,1.8,2s1.4-.4,1.6-1.2h.9c-.3,1.2-1.2,1.9-2.4,1.9s-2.8-1.3-2.8-3ZM1081.4,274.6h3.4c0-1.1-.6-1.8-1.7-1.8s-1.6.8-1.8,1.8Z"/>
    <path class="st2" d="M1087.6,273h0c.4-.5,1-.9,1.8-.9,1.2,0,1.9.6,1.9,1.8v4h-.9v-3.9c0-.7-.5-1.2-1.3-1.2s-1.6.6-1.6,1.6v3.5h-.9v-5.7h.9v.7Z"/>
    <path class="st2" d="M1092.2,275.1c0-1.9,1.1-3,2.5-3s1.4.4,1.8.9h0v-3h.9v7.9h-.9v-.7h0c-.4.6-1,.9-1.8.9-1.6,0-2.5-1.2-2.5-3ZM1096.5,275.1c0-1.3-.6-2.2-1.8-2.2s-1.6,1-1.6,2.2.5,2.2,1.6,2.2,1.8-.9,1.8-2.2Z"/>
    <path class="st2" d="M1098.3,275.1c0-1.7,1.1-3,2.7-3s2.6,1.3,2.6,3.2h-4.4c0,1.2.7,2,1.8,2s1.4-.4,1.6-1.2h.9c-.3,1.2-1.2,1.9-2.4,1.9s-2.8-1.3-2.8-3ZM1099.2,274.6h3.4c0-1.1-.6-1.8-1.7-1.8s-1.6.8-1.8,1.8Z"/>
    <path class="st2" d="M1105.3,273.2h0c.3-.5.9-1,1.7-1s.3,0,.4,0v.9h0c-.1,0-.2,0-.4,0-.9,0-1.7.7-1.7,1.7v3.2h-.9v-5.7h.9v.9Z"/>
    <path class="st2" d="M1107.9,276.1h.9c.1,1,.8,1.3,1.6,1.3s1.3-.4,1.3-.9-.4-.8-1.5-1c-1.1-.2-2.1-.5-2.1-1.7s.7-1.6,2-1.6,2.1.7,2.2,1.8h-.9c0-.7-.5-1.1-1.3-1.1s-1.1.4-1.1.8.5.7,1.5.9c1.1.2,2.1.5,2.1,1.8s-.9,1.7-2.2,1.7-2.4-.7-2.5-2Z"/>
  </g>
  <path class="st2" d="M724.9,237.9c-18.8,0-34.2-15.3-34.2-34.2s15.3-34.2,34.2-34.2,34.2,15.3,34.2,34.2-15.3,34.2-34.2,34.2ZM724.9,184.1c-10.8,0-19.6,8.8-19.6,19.6s8.8,19.6,19.6,19.6,19.6-8.8,19.6-19.6-8.8-19.6-19.6-19.6Z"/>
  <rect class="st2" x="334.3" y="189.7" width="14.6" height="92.9"/>
  <rect class="st2" x="515.7" y="64.4" width="14.6" height="92.9"/>
  <rect class="st2" x="915.9" y="203.1" width="92.9" height="14.6"/>
  <circle class="st2" cx="152.1" cy="203.7" r="14"/>
  <g>
    <line class="st0" x1="1120.3" y1="108.8" x2="1120.3" y2="215.9"/>
    <polygon class="st3" points="1116.2 112.1 1117 112.8 1120.3 109.2 1123.7 112.8 1124.4 112.1 1120.3 107.7 1116.2 112.1"/>
    <polygon class="st3" points="1116.2 212.6 1117 211.9 1120.3 215.5 1123.7 211.9 1124.4 212.6 1120.3 217 1116.2 212.6"/>
  </g>
</svg>